<svg xmlns="http://www.w3.org/2000/svg" version="1.1" xmlns:xlink="http://www.w3.org/1999/xlink" xmlns:svgjs="http://svgjs.com/svgjs" width="1440" height="560" preserveAspectRatio="none" viewBox="0 0 1440 560"><g mask="url(&quot;#SvgjsMask1000&quot;)" fill="none"><rect width="1440" height="560" x="0" y="0" fill="#0e2a47"></rect><path d="M315.0828641145026 252.99176368313636L252.03268465542533 151.87607932196045 201.53162467809727 242.98240321288665z" fill="rgba(28, 83, 142, 0.4)" class="triangle-float1"></path><path d="M646.379,462.956C697.242,465.742,756.004,466.138,783.28,423.117C811.74,378.227,795.516,319.142,765.265,275.438C739.033,237.539,692.458,224.231,646.379,225.332C602.544,226.38,559.909,243.543,536.945,280.896C512.887,320.028,509.539,370.048,533.204,409.419C556.247,447.755,601.717,460.509,646.379,462.956" fill="rgba(28, 83, 142, 0.4)" class="triangle-float1"></path><path d="M1117.8712370852659 388.6939182911314L1043.275037114514 439.00969049548445 1093.5908093188668 513.6058904662365 1168.1870092896188 463.29011826188344z" fill="rgba(28, 83, 142, 0.4)" class="triangle-float1"></path><path d="M1460.0603510100007 149.59181445318194L1393.5058956432717 6.865324328487475 1250.7794055185773 73.41977969521629 1317.3338608853062 216.14626981991074z" fill="rgba(28, 83, 142, 0.4)" class="triangle-float3"></path><path d="M1311.126,457.584C1355.798,457.018,1387.248,417.735,1407.519,377.923C1425.674,342.266,1428.873,300.492,1408.709,265.931C1388.697,231.631,1350.831,213.376,1311.126,212.707C1270.108,212.016,1228.798,227.375,1207.677,262.544C1185.99,298.656,1190.671,343.205,1210.409,380.419C1231.649,420.465,1265.8,458.158,1311.126,457.584" fill="rgba(28, 83, 142, 0.4)" class="triangle-float3"></path><path d="M695.5222966131546 203.0849843356582L689.7923181582274 312.4194864518603 799.1268202744295 318.1494649067874 804.8567987293567 208.8149627905853z" fill="rgba(28, 83, 142, 0.4)" class="triangle-float1"></path></g><defs><mask id="SvgjsMask1000"><rect width="1440" height="560" fill="#ffffff"></rect></mask><style>
            @keyframes float1 {
                0%{transform: translate(0, 0)}
                50%{transform: translate(-10px, 0)}
                100%{transform: translate(0, 0)}
            }

            .triangle-float1 {
                animation: float1 5s infinite;
            }

            @keyframes float2 {
                0%{transform: translate(0, 0)}
                50%{transform: translate(-5px, -5px)}
                100%{transform: translate(0, 0)}
            }

            .triangle-float2 {
                animation: float2 4s infinite;
            }

            @keyframes float3 {
                0%{transform: translate(0, 0)}
                50%{transform: translate(0, -10px)}
                100%{transform: translate(0, 0)}
            }

            .triangle-float3 {
                animation: float3 6s infinite;
            }
        </style></defs></svg>