<svg id="Component_8_1" data-name="Component 8 – 1" xmlns="http://www.w3.org/2000/svg" width="262.65" height="226" viewBox="0 0 262.65 226">
  <path id="path586" d="M209.217-369.266c10.329,5.169,10.742,19.687,17.262,29.221,12.167,17.8,41.141,13.545,56.887,28.272,8.315,7.778,11.525,20.149,9.485,31.349S284-259.241,275.24-251.965c-5.787,4.806-13.226,10.193-12.326,17.659.321,2.663,1.727,5.046,2.716,7.538,4.433,11.168.018,24.408-8.289,33.085s-19.83,13.527-31.359,16.906a169.8,169.8,0,0,1-31.041,6.023c-5.785.569-11.728.87-17.078,3.144s-9.733,6.37-14.881,9.084c-12.3,6.485-27.175,4.372-40.882,2.016-17.641-3.029-35.293-6.19-52.555-10.924-6.467-1.776-13.063-3.87-18.207-8.174s-8.535-11.348-6.7-17.8c1.54-5.422,6.238-9.221,10.076-13.351s7.141-9.941,5.067-15.183c-2.438-6.166-10.36-7.494-16.033-10.924-6.052-3.66-9.87-10.272-11.568-17.14s-1.507-14.045-1.109-21.107c.353-6.259.905-12.679,3.635-18.323,5.212-10.771,17.4-16.551,29.252-18.212,9.6-1.348,14.448-1.7,19.642-11.378,6.309-11.755,10.431-24.769,18.417-35.457s21.563-18.862,34.4-15.22c8.077,2.29,14.341,8.775,22.2,11.745,8.953,3.386,16.229,1.768,23.144-3.886,7.29-5.96,17.8-12.26,27.465-7.423" transform="translate(-30.796 370.985)" fill="#03628e"/>
  <path id="path588" d="M120.246-256.125c28.221,5.958,63.4,9.423,63.4,9.423-.825,3.521-.129,10.311,1.162,17.79,2.6,15,7.611,32.838,7.611,32.838a10.711,10.711,0,0,0,9-1.517c-.734-15.337,3.374-57.2-4.479-62.049-13.091-8.081-60.4-21.313-68.357-21.876-5.483-.377-10.839.518-13.216,4.619a11.785,11.785,0,0,0-1.205,7.076q.05.565.136,1.114c1.622,10.068-7.039,9.844,5.944,12.582" transform="translate(9.212 414.513)" fill="#f5a784"/>
  <path id="path590" d="M129.828-321.606c-.232.634-.672,1.126-.931,1.721-.31.738-.272,1.618-.582,2.381-.091.208-.777,1.709-1.023.817-.168-.012-.337-.026-.492-.04-4.219-.272-8.439-.583-12.633-1.023-1.192-.129-2.382-.18-3.561-.361a2.411,2.411,0,0,1-1.98-1.114,3.364,3.364,0,0,1-.246-.389,11.632,11.632,0,0,1-1.41-5.916,8.364,8.364,0,0,1,.323-2.407,7.488,7.488,0,0,1,1.205-2.292,13.966,13.966,0,0,1,6.278-4.53c-.13-.674-1.269-1.088-1.683-1.644a3.657,3.657,0,0,1-.725-2.383,4.245,4.245,0,0,1,.582-1.747,5.6,5.6,0,0,1,4.221-2.784,5.117,5.117,0,0,1,4.181,1.618,4.553,4.553,0,0,1,.376.468,4.613,4.613,0,0,1,.143,4.956c-.26.414-.6.958-.3,1.346a1.06,1.06,0,0,0,.531.311,16.416,16.416,0,0,1,4.582,2.252,9.508,9.508,0,0,1,3.535,5.619,9.529,9.529,0,0,1-.39,5.139" transform="translate(6.295 384.448)" fill="#19262b"/>
  <path id="path592" d="M120.936-327.453a2.125,2.125,0,0,1,3.433,0c1.716,2.06-1.2,6-3.433,6.176a48.805,48.805,0,0,1,0-6.176" transform="translate(13.041 391.737)" fill="#e0855c"/>
  <path id="path594" d="M143.491-292.351c-.039.609-.077,1.229-.128,1.838-.867,12.338-2.137,25.863-2.59,30.576-.025.337-.168,1.735-.168,1.735a60.883,60.883,0,0,1-7.185,1.295c-6.147.779-15.39,1.192-24.452-1.295l-.041-.4c-.31-3.069-2.289-22.534-2.95-26.575-.091-.581-.211-1.178-.337-1.786-.212-1.035-.44-2.058-.7-3.081a122.984,122.984,0,0,0-5.527-16.168.851.851,0,0,1,.349-1.049,32.5,32.5,0,0,1,9.424-3.585c.323-.066.647-.131.984-.194.944-.169,1.942-.323,2.977-.414.6-.065,1.2-.117,1.825-.143a.239.239,0,0,1,.129,0,10.3,10.3,0,0,1,1.114-.052s0-1.231-.053-2.926c-.039-.983-.077-2.109-.155-3.249-.078-1.655-.265-3.323-.427-4.621a3.654,3.654,0,0,0-.065-.361c0-.143.077-.077.207.012.09.077.205.159.349.26a.791.791,0,0,1,.116.089c.311.208.634.414,1.01.636a14.987,14.987,0,0,0,2.136,1.061c.129.052.271.1.4.155a.449.449,0,0,0,.143.052,4.068,4.068,0,0,0,.518.18,17.937,17.937,0,0,0,1.812.494c.376.077.764.141,1.165.194.272.038.557.063.854.089a13.729,13.729,0,0,0,1.812.026,11.01,11.01,0,0,0,1.528-.155,7.751,7.751,0,0,0,.787-.135l.533,5.585c0,.026.207,2.3.207,2.3h.479a3.876,3.876,0,0,1,.388.014c.75.012,1.942.038,3.326.115,1.2.065,2.563.169,3.923.325l1.217.155c2.343.323,5.735.168,5.76,1.632.078,3.985-.232,10.407-.7,17.372" transform="translate(2.587 394.403)" fill="#f5a784"/>
  <path id="path596" d="M110.2-322.966c2,9.066,11.118,8.444,13.259,7.244l-.38-4.094a15.966,15.966,0,0,1-12.879-3.15" transform="translate(7.868 394.367)" fill="#e0855c"/>
  <path id="path598" d="M126-330.937c1.14,1.186,1.235,3.848,1.33,6.79.289,8.908-2.38,11.689-6.93,12.181s-9.31-1.261-10.29-9.522c-.49-4.13-1.012-7.946.49-9.729,2.24-2.661,11.9-3.361,15.4.28" transform="translate(7.582 389.266)" fill="#f5a784"/>
  <path id="path600" d="M111.794-325.45s-1.393-3.69-3.59-1.733.84,7.528,4.2,7.115c0,0,.46-4.12-.61-5.383" transform="translate(6.534 392.035)" fill="#f5a784"/>
  <path id="path602" d="M108.715-326.241a3.1,3.1,0,0,1,1.334.872,3.76,3.76,0,0,1,.981,1.247c.057.149-.151.242-.252.147-.285-.264-.513-.583-.78-.868a1.745,1.745,0,0,1-.644.51c-.2.073-.352-.176-.263-.343a1.566,1.566,0,0,1,.533-.51,8.129,8.129,0,0,1-1.062-.8.157.157,0,0,1,.153-.26" transform="translate(7.05 392.771)" fill="#e0855c"/>
  <path id="path604" d="M116.588-322.671c.39-.06,1.285.174,1.468-.246a11.41,11.41,0,0,0-.563-2.778,34.945,34.945,0,0,1-.9-3.682.074.074,0,0,1,.136-.038,42.881,42.881,0,0,1,1.786,6.729.193.193,0,0,1-.185.242c-.571-.008-1.128.111-1.7.115-.191,0-.247-.313-.046-.343" transform="translate(10.918 391.21)" fill="#e0855c"/>
  <path id="path606" d="M118.369-330.05c.552-.28,1.583-.355,1.985.22a.17.17,0,0,1-.147.254c-.274-.012-.517-.147-.791-.169a2.208,2.208,0,0,0-.862.133.241.241,0,0,1-.185-.438" transform="translate(11.79 390.814)" fill="#3b2645"/>
  <path id="path608" d="M112.878-329.444c.314-.783,1.681-.858,2.264-.373a.222.222,0,0,1-.1.367,5.053,5.053,0,0,1-1.054.008,3.42,3.42,0,0,0-.844.268.22.22,0,0,1-.269-.27" transform="translate(9.167 390.883)" fill="#3b2645"/>
  <path id="path610" d="M115.932-327.94a4.153,4.153,0,0,0-1.934-.212,2.369,2.369,0,0,0-1.619.549c-.035.04-.03.125.036.135a6.9,6.9,0,0,0,1.584-.2,12.766,12.766,0,0,1,1.826.123c.2.01.3-.313.108-.4" transform="translate(8.92 391.829)" fill="#3b2645"/>
  <path id="path612" d="M119.9-328.4a2.63,2.63,0,0,0-1.688.571c-.273.228.074.593.355.46a2.8,2.8,0,0,1,1.432-.361c.42.028.8.289,1.209.254a.226.226,0,0,0,.192-.335c-.245-.5-.993-.587-1.5-.589" transform="translate(11.723 391.722)" fill="#3b2645"/>
  <path id="path614" d="M119.747-323.013a6.775,6.775,0,0,1-2.556.311,11.321,11.321,0,0,1-2.178-.922c-.149-.056-.257.131-.194.254.813,1.562,3.9,1.788,5.16.755.2-.165-.022-.442-.232-.4" transform="translate(10.109 394.042)" fill="#e0855c"/>
  <path id="path616" d="M228.447-315.869c-5.781-.779-21.335.157-21.67.414-4.138.866-27.449,5.7-32.023,5.878-3.807.133-19.247-1.525-30.225-2.744-2.236-.258-4.286-.486-6.021-.688-.965-.1-10.621-1.58-10.621-1.58-6.269-.7-3.725,2.762-4.282,7.318a7.533,7.533,0,0,0,.259,2.916,6.63,6.63,0,0,0,3.615,4.116c1.993.928,8.4,1.709,16.013,2.264.924.081,1.868.135,2.827.2,12.256.787,26.515,1.013,30.716.387,10.325-1.523,26.551-7.954,32.459-10.395a.962.962,0,0,0,.178-.032c4.955-1.679,9.661-.7,14.723-1.259.21-.022.458-.077.533-.274a.462.462,0,0,0-.016-.321c-.432-1.229-2.332-.642-3.123-1.352.668-.585,1.85-.7,2.669-1.1a40.168,40.168,0,0,0,4.316-2.756c.182-.121.385-.278.385-.5,0-.317-.4-.45-.714-.494" transform="translate(14.369 397.675)" fill="#f5a784"/>
  <path id="path618" d="M40.125-315.869c5.781-.779,21.336.157,21.671.414,4.138.866,27.449,5.7,32.024,5.878,3.806.133,19.246-1.525,30.224-2.744,2.237-.258,4.287-.486,6.021-.688.965-.1,10.621-1.58,10.621-1.58,6.269-.7,3.725,2.762,4.28,7.318a7.511,7.511,0,0,1-.257,2.916,6.628,6.628,0,0,1-3.616,4.116c-1.993.928-8.4,1.709-16.012,2.264-.924.081-1.869.135-2.83.2-12.255.787-26.513,1.013-30.715.387-10.325-1.523-26.551-7.954-32.458-10.395a.938.938,0,0,1-.179-.032c-4.954-1.679-9.661-.7-14.725-1.259-.209-.022-.456-.077-.532-.274a.461.461,0,0,1,.015-.321c.432-1.229,2.333-.642,3.124-1.352-.668-.585-1.85-.7-2.67-1.1a40.315,40.315,0,0,1-4.317-2.756c-.182-.121-.385-.278-.385-.5,0-.317.4-.45.713-.494" transform="translate(-26.601 397.675)" fill="#f5a784"/>
  <path id="path620" d="M155.39-278.16c.089.4-9.2,45.322-34.762,58.213-16.662,8.4-35.045,13.894-53.366,17.3-.754.141-1.514.28-2.269.4a13.641,13.641,0,0,0,1.114,6.445c.761,1.451,1.636,2.944,3.249,3.539a2.873,2.873,0,0,1,.853.391,1.5,1.5,0,0,1-.306,2.228,4.279,4.279,0,0,1-2.486.573c-2.924.069-6.23.319-7.622-2.587a46.813,46.813,0,0,1-2.169-5.625c-.982-3-3.95-11.081.094-12.147,13.551-3.575,47.8-21.588,53.542-24.852,5.186-2.952,10.453-33.841,18.944-43.3s23.7-7.236,25.184-.581" transform="translate(-18.692 413.377)" fill="#f5a784"/>
  <path id="path622" d="M165.965-224.47c.109.924.184,1.854.234,2.782.121,2.224-1.586,4.869.676,6.495,1.207.868,2.855.739,4.255.823,3.073.182,6.152.063,9.225-.034q3.021-.1,6.041-.26c1.675-.087,4.3.206,5.718-.676a.817.817,0,0,0,.408-.462.74.74,0,0,0-.119-.527,3.137,3.137,0,0,0-1.768-1.174c-3.079-1.073-6.37-1.445-9.423-2.583a11.651,11.651,0,0,1-5.982-4.5c-.95-1.552-1.035-3.293-2.875-4.114-2.93-1.307-6.794.773-6.39,4.231" transform="translate(34.892 440.078)" fill="#f5a784"/>
  <path id="path624" d="M141.532-294.134c-.867,12.338-2.137,25.863-2.59,30.576-1.89.829-4.427,1.9-7.353,3.029-6.148.777-15.39,1.192-24.452-1.295,0,0-.015-.145-.041-.4-.31-3.069-2.289-22.534-2.95-26.575-.091-.581-.211-1.178-.337-1.786-.212-1.035-.44-2.058-.7-3.081,1.955-2.758,4.893-8.932,4.246-20.8.323-.065.647-.131.984-.194.944-.169,1.942-.323,2.977-.414.544,4.647,2.718,17.023,10.33,16.84,8.7-.206,9.735-10.978,9.812-17.217,1.2.065,2.563.169,3.923.325.012,4.568.544,17.189,6.149,21" transform="translate(4.418 398.024)" fill="#bad4df"/>
  <path id="path626" d="M222.938-211.321c-5.165,3.3-12.841.555-12.841.555-6.6-12.219-7.12-34.446-7.12-34.446s-37.838-2.809-52.814-2.809a15.072,15.072,0,0,0-7.741,1.826c-7.353,4.219-9.126,15.014-22.071,25.111C103.833-208.188,73.09-206.39,73.09-206.39c-4.466-3.315-4.208-11.015-4.208-11.015a51.157,51.157,0,0,1,13.385-10.641,52.8,52.8,0,0,1,5.2-2.615c11.69-5.127,17.32-9.475,17.669-9.748,5.8-19.675,18.486-39.676,18.486-39.676,18.3,4.286,32.128-1.513,32.128-1.513,7.988,0,58.3,16.232,64.905,21.513s7.445,45.449,2.278,48.764" transform="translate(-12.252 414.511)" fill="#8da5b1"/>
  <path id="path628" d="M178.893-254.058s-37.838-2.809-52.814-2.809a15.071,15.071,0,0,0-7.741,1.826c.064-.4,1.683-8.8,16.621-8.374,15.3.438,43.934,9.358,43.934,9.358" transform="translate(11.832 423.357)" fill="#5b7581"/>
  <path id="path630" d="M83.384-240.682c-1.19-.41-2.651-.01-3.9.022-1.105.032-2.429-.224-3.381.416a.336.336,0,0,0-.067.523c.9.777,2.316.644,3.449.642,1.3,0,2.906.174,4.044-.511a.606.606,0,0,0-.143-1.092" transform="translate(-8.816 434.346)" fill="#bed6e1"/>
  <path id="path632" d="M94.989-244.361c-1.288-.171-2.324,1.8-2.93,2.738a10.461,10.461,0,0,0-1.727,4.358c-.074.609.862.811,1.131.307.681-1.281,1.212-2.617,2.014-3.836.585-.886,2.12-1.961,1.989-3.093a.493.493,0,0,0-.475-.474" transform="translate(-1.808 432.639)" fill="#bed6e1"/>
  <path id="path634" d="M102.046-254.407c-1.069-.313-2.072.456-3.029.9a20.53,20.53,0,0,0-3.594,2,.533.533,0,0,0,.41.969,19.946,19.946,0,0,0,3.622-1.267c.987-.43,2.449-.741,2.93-1.768a.576.576,0,0,0-.338-.833" transform="translate(0.555 427.716)" fill="#bed6e1"/>
  <path id="path636" d="M110.207-258.364a20.176,20.176,0,0,0-1.772,3.251A33.1,33.1,0,0,0,107-252.006c-.3.823.99,1.346,1.406.593a32.308,32.308,0,0,0,1.391-3.125,20.011,20.011,0,0,0,1.292-3.458.483.483,0,0,0-.878-.369" transform="translate(6.287 425.719)" fill="#bed6e1"/>
  <path id="path638" d="M105.927-270.658c-.084-.416-.676-.361-.791,0-.822,2.619-.775,5.644-.908,8.365-.056,1.122,1.677,1.116,1.739,0,.153-2.714.5-5.68-.04-8.365" transform="translate(4.961 419.696)" fill="#bed6e1"/>
  <path id="path640" d="M117.782-271.737c-.466-1.116-1.778-1.828-2.762-2.48-.839-.555-2.17-1.574-3.224-1.247a.416.416,0,0,0-.285.5c.239.954,1.526,1.582,2.283,2.113.932.652,1.915,1.818,3.037,2.062.508.111,1.2-.365.951-.952" transform="translate(8.501 417.467)" fill="#bed6e1"/>
  <path id="path642" d="M130.73-268.714a37.4,37.4,0,0,0-8.1,1.025.535.535,0,0,0,.142,1.045,37.611,37.611,0,0,0,8.171-.482c.908-.149.682-1.608-.216-1.588" transform="translate(13.738 420.785)" fill="#bed6e1"/>
  <path id="path644" d="M135.79-276.958c-1-.678-2.378-.45-3.545-.51a15.713,15.713,0,0,0-3.848.014.4.4,0,0,0-.094.722,10.623,10.623,0,0,0,3.828.973c1.193.161,2.581.519,3.659-.117a.634.634,0,0,0,0-1.082" transform="translate(16.592 416.465)" fill="#bed6e1"/>
  <path id="path646" d="M142.572-266.921a10.259,10.259,0,0,0-1.6-2.906,15.342,15.342,0,0,0-1.9-2.678.6.6,0,0,0-1,.581,15.352,15.352,0,0,0,1.424,2.954,10.245,10.245,0,0,0,1.768,2.807.785.785,0,0,0,1.3-.757" transform="translate(21.433 418.857)" fill="#bed6e1"/>
  <path id="path648" d="M155.639-268.82a11.765,11.765,0,0,0-6.989-.278.535.535,0,0,0,.141,1.045,45.191,45.191,0,0,1,6.374.95.891.891,0,0,0,.474-1.717" transform="translate(26.408 420.399)" fill="#bed6e1"/>
  <path id="path650" d="M160.085-259.706c-.47-.9-1.651-1.406-2.484-1.935a17.946,17.946,0,0,0-2.891-1.6c-.539-.22-.884.555-.535.92a18.115,18.115,0,0,0,2.593,2.1,6.164,6.164,0,0,0,2.726,1.538c.549.057.807-.613.591-1.027" transform="translate(29.214 423.433)" fill="#bed6e1"/>
  <path id="path652" d="M169.706-263.285c-.523-1.083-2.135-1.35-3.194-1.727a14.929,14.929,0,0,0-4.247-1.156.418.418,0,0,0-.293.706,13.9,13.9,0,0,0,3.6,1.844c1.12.466,2.665,1.489,3.86,1a.466.466,0,0,0,.274-.668" transform="translate(33.019 422.025)" fill="#bed6e1"/>
  <path id="path654" d="M166.926-257.779c-1.037,2.458-2.639,5.825-1.9,8.537a.46.46,0,0,0,.831.111,11.839,11.839,0,0,0,1.114-3.9c.313-1.489.613-2.988,1-4.457.18-.7-.783-.91-1.043-.289" transform="translate(34.475 425.931)" fill="#bed6e1"/>
  <path id="path656" d="M168.091-238.945a9.155,9.155,0,0,0-1.931-2.7,18.513,18.513,0,0,0-2.611-2.776.453.453,0,0,0-.708.547,18.091,18.091,0,0,0,2.111,3.158,9.1,9.1,0,0,0,2.195,2.5.65.65,0,0,0,.944-.726" transform="translate(33.476 432.557)" fill="#bed6e1"/>
  <path id="path658" d="M172.153-247.581c-.04-1.727-.131-3.444-.3-5.163a.5.5,0,0,0-1,0c-.171,1.721-.26,3.434-.3,5.163a13.918,13.918,0,0,0,.25,4.574.577.577,0,0,0,1.1,0,14.029,14.029,0,0,0,.25-4.574" transform="translate(37.226 428.327)" fill="#bed6e1"/>
  <path id="path660" d="M91.293-242.274a51.216,51.216,0,0,1-13.41.74,52.805,52.805,0,0,1,5.2-2.615c11.69-5.127,17.32-9.475,17.669-9.748,0,0,.233,9.643-9.463,11.624" transform="translate(-7.868 428)" fill="#5b7581"/>
  <path id="path662" d="M203.489-233.681v5.787a3.545,3.545,0,0,1-.426,1.685c-.343.636-.686,1.271-.985,1.786a5.659,5.659,0,0,0,.621,5.819,3.626,3.626,0,0,1,.791,2.157v8.838a1.934,1.934,0,0,1-1.933,1.933H188.269a1.933,1.933,0,0,1-1.933-1.933v-8.809a3.649,3.649,0,0,1,.8-2.173,5.656,5.656,0,0,0,.628-5.833c-.3-.529-.654-1.178-1.005-1.834a3.568,3.568,0,0,1-.422-1.677v-5.748a12.309,12.309,0,0,1,.186-2.155,11.435,11.435,0,0,1,5.72-8.039v-2.474h5.341v2.474a11.445,11.445,0,0,1,5.71,7.96,12.25,12.25,0,0,1,.2,2.234" transform="translate(44.943 431.675)" fill="#8da5b1"/>
  <path id="path664" d="M194.289-243.807h-2.1a2.43,2.43,0,0,1-2.429-2.429,2.43,2.43,0,0,1,2.429-2.431h2.1a2.43,2.43,0,0,1,2.431,2.431,2.429,2.429,0,0,1-2.431,2.429" transform="translate(46.613 430.547)" fill="#5b7581"/>
  <path id="path666" d="M203.489-236.482v4.645H186.336v-4.645a12.306,12.306,0,0,1,.186-2.155,19.411,19.411,0,0,1,16.771-.079,12.253,12.253,0,0,1,.2,2.234" transform="translate(44.943 434.476)" fill="#5b7581"/>
  <path id="path668" d="M203.489-225.926v.9c-2.357-.022-4.721-.089-7.06-.052-2.2.042-8.924.3-10.093.343v-.666c1.081-.061,2.161-.085,3.22-.135,2.2-.1,11.475-.379,13.934-.391" transform="translate(44.943 441.621)" fill="#5b7581"/>
  <path id="path670" d="M203.489-223.979v.783c-2.621.065-5.246.059-7.861.065q-4.651.009-9.292-.151v-.535c3.1-.006,14.532-.119,17.153-.163" transform="translate(44.943 442.569)" fill="#5b7581"/>
  <path id="path672" d="M97.44-329.851c-7.106-1-14.245-1.58-21.326-2.817-3.433-.6-6.851-1.279-10.258-2.012-3.153-.68-6.35-1.618-9.6-1.307-.358.036-.511.611-.093.686,13.629,2.411,27.178,6.287,41.1,6.771.741.028.94-1.213.18-1.32" transform="translate(-18.567 387.997)" fill="#bed6e1"/>
  <path id="path674" d="M96.834-336c-4.446-3.281-9.32-6.122-14.028-9.009-.52-.317-.949.462-.47.8,4.5,3.21,9.032,6.59,13.8,9.4.786.464,1.4-.68.7-1.2" transform="translate(-5.801 383.596)" fill="#bed6e1"/>
  <path id="path676" d="M148.846-350.644a85.068,85.068,0,0,0-8.908,7.518c-2.764,2.486-6.167,5.012-8.128,8.2a.327.327,0,0,0,.444.444c3.117-1.759,5.676-4.764,8.339-7.141,2.986-2.663,6.271-5.115,9.074-7.962.523-.531-.165-1.5-.821-1.063" transform="translate(18.369 380.835)" fill="#bed6e1"/>
  <path id="path678" d="M174.582-335c-6.221.349-12.445.69-18.664,1.059-5.783.345-11.8.317-17.5,1.354-.551.1-.373.89.125.926,5.942.422,12.078-.3,18.022-.593,6.009-.3,12.015-.628,18.022-.946,1.154-.061,1.16-1.866,0-1.8" transform="translate(21.443 388.504)" fill="#bed6e1"/>
  <path id="path680" d="M113.967-338.977c-.515,2.561,2.241,4.013,2.629,4.205a8.56,8.56,0,0,0-3.586.014c-.13-.674-1.269-1.088-1.683-1.644a3.657,3.657,0,0,1-.725-2.383,4.245,4.245,0,0,1,.582-1.747,5.6,5.6,0,0,1,4.221-2.784,5.117,5.117,0,0,1,4.181,1.618c-2.8-.581-5.11.188-5.619,2.72" transform="translate(8.06 384.448)" fill="#091114"/>
  <path id="path682" d="M124.5-286.93a7.854,7.854,0,0,0-3.047.761c-.624.242-1.217.551-1.833.811q-.848.339-1.7.68-2.346-1.419-.984-2.756c1.187-2.486,4.853-3.878,6.927-5.529,2.485-1.981,4.932-5.857.25-6.707-4.656-.849-12.274,1.693-14.869,5.763-.126.2.118.4.305.305,2.426-1.209,4.3-2.95,6.919-3.88a19.582,19.582,0,0,1,2.942-.8c1.287-.24,7.153-1.416,5.49,2.764-.6,1.511-3.119,2.635-4.424,3.529a19.035,19.035,0,0,0-3.9,3.182c-.925,1.092-2.519,3.47-1.1,4.788,1.037.964,2.5.313,3.6-.117.639-.25,1.252-.585,1.881-.858q2.878-2.094,4.149,2.246a10.806,10.806,0,0,1-2.143,1.624c-.515.305-.035,1.13.469.8,1.356-.876,3.984-2.587,3.793-4.526-.141-1.414-1.454-2.026-2.728-2.09" transform="translate(7.387 405.632)" fill="#578498"/>
</svg>
