<svg xmlns="http://www.w3.org/2000/svg" version="1.1" xmlns:xlink="http://www.w3.org/1999/xlink" xmlns:svgjs="http://svgjs.com/svgjs" width="1440" height="560" preserveAspectRatio="none" viewBox="0 0 1440 560"><g mask="url(&quot;#SvgjsMask1011&quot;)" fill="none"><rect width="1440" height="560" x="0" y="0" fill="#1e3266"></rect><path d="M1488 560L0 560 L0 290.66Q34.83 253.49, 72 288.32Q141.69 286.01, 144 355.71Q163.72 255.43, 264 275.15Q338.51 229.66, 384 304.18Q430.71 278.89, 456 325.6Q499 296.6, 528 339.6Q568.83 260.43, 648 301.25Q693.38 274.63, 720 320Q793.64 273.64, 840 347.28Q861.9 249.18, 960 271.09Q1002.22 241.31, 1032 283.53Q1089.36 268.89, 1104 326.25Q1169.36 271.61, 1224 336.96Q1265.63 306.6, 1296 348.23Q1316.26 248.49, 1416 268.75Q1495.06 275.81, 1488 354.87z" fill="#182f5d"></path><path d="M1488 560L0 560 L0 347.48Q71.35 298.83, 120 370.18Q186.13 364.31, 192 430.43Q205.91 372.34, 264 386.25Q317.79 320.04, 384 373.83Q448.19 366.02, 456 430.22Q497.02 351.25, 576 392.27Q592.48 336.75, 648 353.22Q696.76 329.99, 720 378.75Q795.88 334.63, 840 410.52Q868.26 366.78, 912 395.05Q955.07 318.12, 1032 361.18Q1121.18 330.37, 1152 419.55Q1171.29 366.84, 1224 386.12Q1243.24 333.36, 1296 352.59Q1340.83 325.41, 1368 370.24Q1458.73 340.97, 1488 431.7z" fill="#25467d"></path><path d="M1560 560L0 560 L0 464.17Q56.46 448.63, 72 505.09Q80.18 441.27, 144 449.45Q161.25 394.69, 216 411.94Q260.18 384.12, 288 428.3Q381.38 401.68, 408 495.06Q425.38 440.44, 480 457.83Q552.33 410.15, 600 482.48Q616.03 426.51, 672 442.54Q740.45 390.99, 792 459.44Q838.46 385.9, 912 432.36Q939.88 388.24, 984 416.11Q1042.32 402.43, 1056 460.75Q1108.27 441.02, 1128 493.29Q1156.08 401.37, 1248 429.45Q1313.06 374.5, 1368 439.56Q1391.12 390.68, 1440 413.8Q1523.56 377.36, 1560 460.92z" fill="#356cb1"></path><path d="M1512 560L0 560 L0 578.85Q37.36 544.21, 72 581.57Q69.79 507.36, 144 505.15Q197.45 438.6, 264 492.05Q361.81 469.86, 384 567.67Q412.56 524.23, 456 552.8Q530.35 507.15, 576 581.5Q592.62 526.12, 648 542.73Q680.32 455.05, 768 487.36Q811.63 459, 840 502.63Q934.34 476.97, 960 571.31Q1028.75 520.06, 1080 588.81Q1116.2 505.01, 1200 541.22Q1253.2 474.42, 1320 527.63Q1386.85 522.48, 1392 589.32Q1427.52 504.84, 1512 540.36z" fill="white"></path></g><defs><mask id="SvgjsMask1011"><rect width="1440" height="560" fill="#ffffff"></rect></mask></defs></svg>