<svg xmlns="http://www.w3.org/2000/svg" width="512" height="512" viewBox="0 0 512 512">
  <g id="Group_33390" data-name="Group 33390" transform="translate(-189 -255)">
    <rect id="Rectangle_3124" data-name="Rectangle 3124" width="512" height="512" rx="100" transform="translate(189 255)" fill="#025074"/>
    <g id="greentree_logo-white" data-name="greentree logo-white" transform="translate(321.009 356.517)">
      <g id="Group_33385" data-name="Group 33385" transform="translate(0 0)">
        <path id="Path_40040" data-name="Path 40040" d="M51.254,279.2S37.218,290.41,26.03,285.049,8.214,268.866,8.214,268.866s7.652-10.474,21.013-7.68c11.788,2.467,12.557,12.725,22.616,15.347,0,0-20.328,2.019-31.9-4.539C19.939,272,28.964,282.045,51.254,279.2Z" transform="translate(-4.609 -146.283)" fill="#fbfbfb"/>
        <path id="Path_40041" data-name="Path 40041" d="M126.379,369.156s-23.213,11.862-37.546,1-20.59-28.15-20.59-28.15,13.928-12.668,32.1-4.825c16.028,6.918,14.129,21.716,27.654,28.351,0,0-29.471-3.016-44-15.684C83.988,349.853,93.879,366.743,126.379,369.156Z" transform="translate(-38.29 -187.754)" fill="#fbfbfb"/>
        <path id="Path_40042" data-name="Path 40042" d="M143.132,239.383s-25.321,6.263-36.782-7.57-13.586-32.091-13.586-32.091,16.467-9.162,32.353,2.608c14.016,10.385,8.772,24.357,20.416,33.9,0,0-28-9.647-39.241-25.289C106.293,210.94,112.048,229.636,143.132,239.383Z" transform="translate(-52.049 -110.156)" fill="#fbfbfb"/>
        <path id="Path_40043" data-name="Path 40043" d="M241.054,165.943S220,154.862,220.65,138.5,231,108.436,231,108.436s16.8,3.744,20.422,21.379c3.194,15.559-8.907,21.888-6.81,35.435,0,0-13.161-23.526-11.259-40.985C233.357,124.266,225.855,140.476,241.054,165.943Z" transform="translate(-123.796 -60.842)" fill="#fbfbfb"/>
        <path id="Path_40044" data-name="Path 40044" d="M159.09,35.7C163.225,46,177.565,55.23,177.565,55.23c-5.2-6.934-.338-14.037-6.751-21.77-7.268-8.761-17.75-5.888-17.75-5.888s-1.329,10.509,3.177,19.822,19.543,9.275,19.543,9.275C159.731,46.956,159.09,35.7,159.09,35.7Z" transform="translate(-85.78 -15.217)" fill="#fbfbfb"/>
        <path id="Path_40045" data-name="Path 40045" d="M241.472,34.667c-1.81-8.311,5.443-12.682,2.879-22.2C241.443,1.689,230.9,0,230.9,0s-5.491,8.851-5.275,19,13.668,16.223,13.668,16.223c-10.37-15.2-6.337-25.515-6.337-25.515C232.436,20.592,241.472,34.667,241.472,34.667Z" transform="translate(-126.592 0)" fill="#fbfbfb"/>
        <path id="Path_40046" data-name="Path 40046" d="M298.73,47.637s15.74-9.645,14.4-22.282-9.548-22.763-9.548-22.763S290.767,6.341,288.859,20.18c-1.682,12.213,8.012,16.5,7.078,27.1,0,0,8.993-18.886,6.633-32.308C302.57,14.973,309.2,27.146,298.73,47.637Z" transform="translate(-161.965 -1.454)" fill="#fbfbfb"/>
        <path id="Path_40047" data-name="Path 40047" d="M28.62,208.431S14.4,212.124,7.86,204.409,0,186.423,0,186.423s9.212-5.264,18.236,1.261c7.959,5.754,5.1,13.657,11.717,18.957,0,0-15.829-5.252-22.261-13.99C7.691,192.651,11.053,203.143,28.62,208.431Z" transform="translate(0 -103.474)" fill="#fbfbfb"/>
        <path id="Path_40048" data-name="Path 40048" d="M78.163,133.5s-12.768,3.318-18.645-3.612-7.059-16.153-7.059-16.153,8.273-4.729,16.379,1.131c7.148,5.168,4.579,12.268,10.523,17.027,0,0-14.217-4.718-19.994-12.566C59.368,119.325,62.386,128.751,78.163,133.5Z" transform="translate(-29.434 -62.803)" fill="#fbfbfb"/>
        <path id="Path_40049" data-name="Path 40049" d="M389.958,369.156s23.213,11.862,37.546,1,20.589-28.15,20.589-28.15S434.166,329.343,416,337.186c-16.028,6.918-14.129,21.716-27.655,28.351,0,0,29.471-3.016,44-15.684C432.348,349.853,422.457,366.743,389.958,369.156Z" transform="translate(-217.895 -187.754)" fill="#fbfbfb"/>
        <path id="Path_40050" data-name="Path 40050" d="M163.276,143.307s-18.48.047-24.018-11.4-3.9-24.362-3.9-24.362,12.881-3.53,21.814,7.239c7.881,9.5,1.9,18.231,8.3,26.754,0,0-17.625-11.346-22.706-24C142.759,117.542,143.547,131.369,163.276,143.307Z" transform="translate(-75.82 -60.033)" fill="#fbfbfb"/>
        <path id="Path_40051" data-name="Path 40051" d="M163.276,143.307s-18.48.047-24.018-11.4-3.9-24.362-3.9-24.362,12.881-3.53,21.814,7.239c7.881,9.5,1.9,18.231,8.3,26.754,0,0-17.625-11.346-22.706-24C142.759,117.542,143.547,131.369,163.276,143.307Z" transform="translate(-75.82 -60.033)" fill="#fbfbfb"/>
        <path id="Path_40052" data-name="Path 40052" d="M385.864,123.223s15.25.04,19.819-9.4,3.22-20.1,3.22-20.1-10.629-2.913-18,5.973c-6.5,7.842-1.571,15.043-6.846,22.077,0,0,14.544-9.364,18.736-19.8C402.794,101.964,402.144,113.374,385.864,123.223Z" transform="translate(-215.491 -52.327)" fill="#fbfbfb"/>
        <path id="Path_40053" data-name="Path 40053" d="M392.815,220.262s24.4,5.47,33.335-7.156,8.6-29.186,8.6-29.186-16.513-8.165-29.833,2.625c-11.753,9.522-5.09,22.138-14.739,30.878,0,0,24.88-8.966,33.379-23.227C423.556,194.2,420.561,211.177,392.815,220.262Z" transform="translate(-218.924 -101.535)" fill="#fbfbfb"/>
        <path id="Path_40054" data-name="Path 40054" d="M486.842,261.537c-11.62,3.433-10.6,14.793-20.422,18.29,0,0,21.146,1,31.828-6.925,0,0-7.456,11.624-30.755,9.832,0,0,16.333,11.516,26.83,4.927s15.364-18.921,15.364-18.921S500.013,257.651,486.842,261.537Z" transform="translate(-261.704 -146.282)" fill="#fbfbfb"/>
        <path id="Path_40055" data-name="Path 40055" d="M370.61,57.271s12.826.033,16.669-7.91,2.707-16.909,2.707-16.909-8.94-2.451-15.138,5.024c-5.47,6.6-1.321,12.654-5.758,18.568,0,0,12.232-7.875,15.759-16.655C384.85,39.389,384.3,48.986,370.61,57.271Z" transform="translate(-207.093 -17.992)" fill="#fbfbfb"/>
        <path id="Path_40056" data-name="Path 40056" d="M469.261,130.424s12.828.033,16.669-7.91,2.709-16.91,2.709-16.91-8.94-2.45-15.139,5.023c-5.469,6.6-1.32,12.654-5.758,18.569,0,0,12.232-7.875,15.76-16.655C483.5,112.542,482.956,122.139,469.261,130.424Z" transform="translate(-262.446 -59.038)" fill="#fbfbfb"/>
        <path id="Path_40057" data-name="Path 40057" d="M328.758,237.637s12.828.033,16.67-7.91,2.709-16.909,2.709-16.909S339.2,210.366,333,217.84c-5.469,6.6-1.32,12.654-5.757,18.568,0,0,12.233-7.875,15.759-16.655C343,219.754,342.452,229.351,328.758,237.637Z" transform="translate(-183.611 -119.193)" fill="#fbfbfb"/>
        <path id="Path_40058" data-name="Path 40058" d="M506.513,209.274s12.828.033,16.67-7.909,2.709-16.909,2.709-16.909-8.939-2.45-15.139,5.024c-5.469,6.6-1.32,12.654-5.758,18.568,0,0,12.232-7.875,15.759-16.655C520.754,191.392,520.207,200.989,506.513,209.274Z" transform="translate(-283.347 -103.28)" fill="#fbfbfb"/>
        <path id="Path_40059" data-name="Path 40059" d="M320.039,159.611s15.441-6.079,16.245-17.465-4.872-21.624-4.872-21.624-11.927,1.317-15.79,13.262c-3.407,10.54,4.494,15.846,2,25.076,0,0,10.924-15.3,10.944-27.543C328.568,131.316,332.524,143.116,320.039,159.611Z" transform="translate(-176.606 -67.623)" fill="#fbfbfb"/>
      </g>
      <g id="Group_33388" data-name="Group 33388" transform="translate(46.602 125.442)">
        <path id="Path_40060" data-name="Path 40060" d="M274.8,676.069s-26.266-10.323-53.989-18.1c-9.379-2.63-19.891-3.471-29.7-3.435-9.807-.036-21.468.805-30.847,3.435-4.935,1.384-8.682,2.72-13.51,4.009a252.284,252.284,0,0,0-39.052,14.09Z" transform="translate(-107.032 -492.693)" fill="#fbfbfb"/>
        <g id="Group_33387" data-name="Group 33387">
          <g id="Group_33386" data-name="Group 33386" transform="translate(27.876)">
            <path id="Path_40061" data-name="Path 40061" d="M271.983,339.372c0,6.553,4.157,14.275,9.284,14.275s9.286-7.722,9.286-14.275-4.157-9.452-9.286-9.452S271.983,332.821,271.983,339.372Z" transform="translate(-227.084 -310.557)" fill="#fbfbfb"/>
            <path id="Path_40062" data-name="Path 40062" d="M265.051,441.5l-19.378-47.855s-8.882-24.935.2-45.042c5.677-12.567,30.682-24.933,26.848-33.981s-22.609-21.919-25.032-23.929-5.651-4.825-5.651-4.825c-11.305-1.006-2.422,10.858-2.422,10.858s3.633-1.609,4.845-1.006,20.994,13.874,13.725,22.722c-4.355,5.3-13.981,10.012-21.012,12.948a35.52,35.52,0,0,1-25.287.214c-7.067-2.917-17.063-7.733-21.523-13.163-7.268-8.848,12.515-22.119,13.727-22.722s4.844,1.006,4.844,1.006,8.883-11.864-2.422-10.858c0,0-3.23,2.815-5.653,4.825s-21.2,14.881-25.031,23.929S197,336.033,202.676,348.6c9.084,20.107.2,45.042.2,45.042L183.5,441.5c-21.6,13.674-11.411,12.291-11.411,12.291l19.486-4.249s18.167-38.2,22.609-48.66,15.743-10.454,20.185,0,22.609,48.66,22.609,48.66l19.723,4.3S287.861,455.17,265.051,441.5Z" transform="translate(-169.687 -285.803)" fill="#fbfbfb"/>
          </g>
          <path id="Path_40063" data-name="Path 40063" d="M136.452,668.638a4.754,4.754,0,0,1-1.651-.082c-8.7,2.844-17.541,7.1-28.625,13.208,0,0,4.44-1.258,11.456-3.4,8.889-2.712,22.137-6.754,36.1-9.911l2.07-4.034Z" transform="translate(-106.176 -498.24)" fill="#fbfbfb"/>
          <path id="Path_40064" data-name="Path 40064" d="M421.346,681.635c-11.919-6.567-21.448-10.961-30.6-13.8-.324,1.033-2.688.753-2.688.753l-19.9-4.35,1.46,3.2c13.942,3,27.712,7.171,37.634,10.127C415.75,680.095,421.346,681.635,421.346,681.635Z" transform="translate(-253.171 -498.137)" fill="#fbfbfb"/>
        </g>
      </g>
    </g>
  </g>
</svg>
