<svg xmlns="http://www.w3.org/2000/svg" width="512" height="512" viewBox="0 0 512 512">
  <g id="WHite-512" transform="translate(-158 -275)">
    <g id="greentree_logo-white" data-name="greentree logo-white" transform="translate(209 275)">
      <g id="Group_33385" data-name="Group 33385" transform="translate(0 0)">
        <path id="Path_40040" data-name="Path 40040" d="M79.537,291.351s-23.26,18.575-41.8,9.69S8.214,274.224,8.214,274.224s12.68-17.357,34.822-12.727c19.534,4.089,20.809,21.087,37.478,25.432,0,0-33.687,3.346-52.869-7.521C27.644,279.41,42.6,296.064,79.537,291.351Z" transform="translate(-2.24 -71.087)" fill="#fbfbfb"/>
        <path id="Path_40041" data-name="Path 40041" d="M164.582,391.848s-38.467,19.656-62.219,1.665-34.12-46.648-34.12-46.648,23.081-20.992,53.187-8c26.56,11.463,23.414,35.986,45.827,46.981,0,0-48.838-5-72.922-25.99C94.335,359.861,110.726,387.85,164.582,391.848Z" transform="translate(-18.607 -91.24)" fill="#fbfbfb"/>
        <path id="Path_40042" data-name="Path 40042" d="M176.23,267.679s-41.96,10.379-60.953-12.545-22.513-53.18-22.513-53.18,27.288-15.182,53.614,4.322c23.227,17.209,14.536,40.364,33.832,56.175,0,0-46.4-15.986-65.028-41.907C115.183,220.544,124.72,251.526,176.23,267.679Z" transform="translate(-25.293 -53.531)" fill="#fbfbfb"/>
        <path id="Path_40043" data-name="Path 40043" d="M254.471,203.734s-34.888-18.364-33.812-45.472,17.156-49.826,17.156-49.826,27.838,6.2,33.842,35.428c5.294,25.783-14.76,36.272-11.285,58.721,0,0-21.809-38.986-18.657-67.917C241.716,134.669,229.285,161.53,254.471,203.734Z" transform="translate(-60.159 -29.566)" fill="#fbfbfb"/>
        <path id="Path_40044" data-name="Path 40044" d="M163.17,41.343C170.022,58.4,193.785,73.7,193.785,73.7c-8.62-11.491-.56-23.261-11.187-36.076-12.044-14.518-29.414-9.758-29.414-9.758s-2.2,17.415,5.265,32.847,32.385,15.369,32.385,15.369C164.232,59.99,163.17,41.343,163.17,41.343Z" transform="translate(-41.685 -7.395)" fill="#fbfbfb"/>
        <path id="Path_40045" data-name="Path 40045" d="M251.891,57.448c-3-13.772,9.02-21.016,4.77-36.783C251.842,2.8,234.37,0,234.37,0s-9.1,14.667-8.742,31.493,22.65,26.885,22.65,26.885c-17.185-25.186-10.5-42.282-10.5-42.282C236.916,34.125,251.891,57.448,251.891,57.448Z" transform="translate(-61.517 0)" fill="#fbfbfb"/>
        <path id="Path_40046" data-name="Path 40046" d="M305.346,77.237s26.084-15.983,23.869-36.924S313.392,2.592,313.392,2.592s-21.243,6.213-24.4,29.145c-2.787,20.239,13.277,27.346,11.73,44.909,0,0,14.9-31.3,10.992-53.539C311.71,23.109,322.7,43.281,305.346,77.237Z" transform="translate(-78.707 -0.707)" fill="#fbfbfb"/>
        <path id="Path_40047" data-name="Path 40047" d="M47.427,224.212s-23.56,6.119-34.4-6.666S0,187.742,0,187.742s15.265-8.724,30.219,2.089c13.189,9.535,8.448,22.632,19.416,31.414,0,0-26.231-8.7-36.89-23.183C12.746,198.062,18.317,215.45,47.427,224.212Z" transform="translate(0 -50.283)" fill="#fbfbfb"/>
        <path id="Path_40048" data-name="Path 40048" d="M95.055,147.672s-21.158,5.5-30.9-5.986-11.7-26.768-11.7-26.768,13.71-7.837,27.142,1.874c11.845,8.564,7.588,20.329,17.439,28.216,0,0-23.56-7.818-33.132-20.824C63.908,124.184,68.91,139.8,95.055,147.672Z" transform="translate(-14.304 -30.519)" fill="#fbfbfb"/>
        <path id="Path_40049" data-name="Path 40049" d="M391.019,391.848s38.467,19.656,62.22,1.665,34.119-46.648,34.119-46.648-23.079-20.992-53.186-8c-26.561,11.463-23.414,35.986-45.827,46.981,0,0,48.838-5,72.921-25.99C461.265,359.861,444.875,387.85,391.019,391.848Z" transform="translate(-105.887 -91.24)" fill="#fbfbfb"/>
        <path id="Path_40050" data-name="Path 40050" d="M181.773,167.17s-30.625.079-39.8-18.888S135.5,107.91,135.5,107.91s21.346-5.849,36.149,12c13.059,15.748,3.154,30.211,13.748,44.336,0,0-29.206-18.8-37.627-39.767C147.773,124.475,149.078,147.388,181.773,167.17Z" transform="translate(-36.845 -29.173)" fill="#fbfbfb"/>
        <path id="Path_40051" data-name="Path 40051" d="M181.773,167.17s-30.625.079-39.8-18.888S135.5,107.91,135.5,107.91s21.346-5.849,36.149,12c13.059,15.748,3.154,30.211,13.748,44.336,0,0-29.206-18.8-37.627-39.767C147.773,124.475,149.078,147.388,181.773,167.17Z" transform="translate(-36.845 -29.173)" fill="#fbfbfb"/>
        <path id="Path_40052" data-name="Path 40052" d="M387.051,142.913s25.271.066,32.843-15.584,5.336-33.312,5.336-33.312-17.615-4.827-29.828,9.9c-10.775,13-2.6,24.929-11.344,36.584,0,0,24.1-15.518,31.049-32.816C415.106,107.684,414.028,126.591,387.051,142.913Z" transform="translate(-104.718 -25.429)" fill="#fbfbfb"/>
        <path id="Path_40053" data-name="Path 40053" d="M394.549,246.09s40.438,9.064,55.24-11.858,14.248-48.366,14.248-48.366-27.365-13.531-49.437,4.349c-19.477,15.78-8.435,36.687-24.424,51.169,0,0,41.23-14.858,55.314-38.49C445.491,202.9,440.528,231.034,394.549,246.09Z" transform="translate(-106.386 -49.341)" fill="#fbfbfb"/>
        <path id="Path_40054" data-name="Path 40054" d="M500.262,262.079c-19.255,5.689-17.56,24.514-33.841,30.309,0,0,35.042,1.664,52.743-11.476,0,0-12.355,19.262-50.965,16.294,0,0,27.067,19.083,44.462,8.165s25.461-31.355,25.461-31.355S522.088,255.641,500.262,262.079Z" transform="translate(-127.176 -71.086)" fill="#fbfbfb"/>
        <path id="Path_40055" data-name="Path 40055" d="M371.609,73.834s21.255.055,27.624-13.109S403.719,32.7,403.719,32.7s-14.814-4.061-25.085,8.325c-9.065,10.93-2.19,20.969-9.543,30.77,0,0,20.27-13.05,26.115-27.6C395.206,44.2,394.3,60.1,371.609,73.834Z" transform="translate(-100.637 -8.743)" fill="#fbfbfb"/>
        <path id="Path_40056" data-name="Path 40056" d="M470.259,146.987s21.257.055,27.623-13.108,4.49-28.021,4.49-28.021-14.814-4.061-25.088,8.324c-9.063,10.93-2.188,20.969-9.541,30.771,0,0,20.27-13.05,26.116-27.6C493.859,117.353,492.954,133.257,470.259,146.987Z" transform="translate(-127.536 -28.69)" fill="#fbfbfb"/>
        <path id="Path_40057" data-name="Path 40057" d="M329.756,254.2s21.257.055,27.625-13.109,4.49-28.021,4.49-28.021-14.814-4.061-25.09,8.325c-9.062,10.93-2.187,20.969-9.541,30.77,0,0,20.271-13.05,26.115-27.6C353.355,224.565,352.449,240.469,329.756,254.2Z" transform="translate(-89.226 -57.922)" fill="#fbfbfb"/>
        <path id="Path_40058" data-name="Path 40058" d="M507.511,225.836s21.258.055,27.625-13.107,4.489-28.021,4.489-28.021-14.814-4.06-25.088,8.326C505.473,203.963,512.35,214,505,223.8c0,0,20.271-13.05,26.115-27.6C531.11,196.2,530.2,212.107,507.511,225.836Z" transform="translate(-137.693 -50.189)" fill="#fbfbfb"/>
        <path id="Path_40059" data-name="Path 40059" d="M323.512,185.3s25.588-10.074,26.92-28.943-8.073-35.834-8.073-35.834S322.593,122.7,316.192,142.5c-5.646,17.466,7.448,26.26,3.318,41.555,0,0,18.1-25.362,18.136-45.643C337.645,138.409,344.2,157.964,323.512,185.3Z" transform="translate(-85.822 -32.861)" fill="#fbfbfb"/>
      </g>
      <g id="Group_33388" data-name="Group 33388" transform="translate(77.226 207.875)">
        <path id="Path_40060" data-name="Path 40060" d="M384.6,690.221s-43.526-17.107-89.468-29.994c-15.543-4.359-32.962-5.753-49.214-5.692-16.252-.06-35.575,1.334-51.119,5.692-8.178,2.294-14.388,4.507-22.387,6.644a418.088,418.088,0,0,0-64.714,23.35Z" transform="translate(-106.592 -386.341)" fill="#fbfbfb"/>
        <g id="Group_33387" data-name="Group 33387">
          <g id="Group_33386" data-name="Group 33386" transform="translate(46.194)">
            <path id="Path_40061" data-name="Path 40061" d="M271.983,345.583c0,10.859,6.89,23.656,15.385,23.656s15.389-12.8,15.389-23.656-6.889-15.663-15.389-15.663S271.983,334.728,271.983,345.583Z" transform="translate(-197.58 -297.833)" fill="#fbfbfb"/>
            <path id="Path_40062" data-name="Path 40062" d="M327.719,543.809l-32.113-79.3s-14.719-41.321.332-74.641c9.407-20.825,50.845-41.317,44.491-56.312s-37.466-36.323-41.481-39.654-9.365-8-9.365-8c-18.734-1.668-4.014,17.993-4.014,17.993s6.02-2.667,8.028-1.667,34.791,22.992,22.745,37.654c-7.217,8.786-23.168,16.592-34.821,21.457-19.624,7.974-37.564,2.039-41.9.355-11.711-4.834-28.275-12.815-35.667-21.812-12.044-14.662,20.74-36.654,22.747-37.654s8.028,1.667,8.028,1.667,14.72-19.66-4.014-17.993c0,0-5.353,4.665-9.367,8s-35.125,24.66-41.479,39.654,35.083,35.487,44.49,56.312c15.053,33.319.332,74.641.332,74.641l-32.112,79.3c-35.791,22.66-18.91,20.368-18.91,20.368l32.292-7.041s30.106-63.31,37.466-80.636,26.089-17.324,33.449,0,37.466,80.636,37.466,80.636l32.684,7.122S365.518,566.469,327.719,543.809Z" transform="translate(-169.687 -285.803)" fill="#fbfbfb"/>
          </g>
          <path id="Path_40063" data-name="Path 40063" d="M156.348,671.41a7.883,7.883,0,0,1-2.736-.136c-14.41,4.713-29.068,11.766-47.436,21.888,0,0,7.358-2.084,18.985-5.634,14.73-4.495,36.684-11.192,59.821-16.423l3.431-6.685Z" transform="translate(-106.176 -389.037)" fill="#fbfbfb"/>
          <path id="Path_40064" data-name="Path 40064" d="M456.3,693.07c-19.752-10.882-35.543-18.165-50.707-22.875-.538,1.711-4.454,1.247-4.454,1.247l-32.979-7.208,2.419,5.3c23.1,4.978,45.922,11.883,62.365,16.782C447.024,690.518,456.3,693.07,456.3,693.07Z" transform="translate(-177.608 -388.987)" fill="#fbfbfb"/>
        </g>
      </g>
    </g>
    <rect id="Rectangle_3126" data-name="Rectangle 3126" width="512" height="512" transform="translate(158 275)" fill="none"/>
  </g>
</svg>
