<svg xmlns="http://www.w3.org/2000/svg" xmlns:xlink="http://www.w3.org/1999/xlink" width="232.699" height="226" viewBox="0 0 232.699 226">
  <defs>
    <clipPath id="clip-path">
      <path id="path194" d="M282.113-177.164l-46.681-26.8L327.376-257l46.681,26.8-91.943,53.03m4.576-12.711a.9.9,0,0,0,.529.738l1.041.6a2.611,2.611,0,0,0,1.279.306,2.608,2.608,0,0,0,1.278-.306l7.041-4.065a.9.9,0,0,0,.53-.738.9.9,0,0,0-.53-.739l-1.042-.6a2.616,2.616,0,0,0-1.279-.306,2.616,2.616,0,0,0-1.279.306L291.7-193.2l-7.245-4.189,2.563-1.479a.9.9,0,0,0,.529-.739.9.9,0,0,0-.529-.738l-1.042-.6a2.611,2.611,0,0,0-1.279-.306,2.61,2.61,0,0,0-1.279.306l-7.04,4.065a.9.9,0,0,0-.53.738.9.9,0,0,0,.53.739l1.041.6a2.618,2.618,0,0,0,1.279.306,2.617,2.617,0,0,0,1.279-.306l2.32-1.34,7.245,4.189-2.32,1.34a.9.9,0,0,0-.529.739m22.139-29.862a5.435,5.435,0,0,0,1.8,3.823,11.76,11.76,0,0,0,4.458,2.37,35.141,35.141,0,0,0,11.073,1.642,59.99,59.99,0,0,0,9.115-.765,40.606,40.606,0,0,0,16.4-7.1c3.49-2.655,6.161-6.789,6.162-11.105a10.288,10.288,0,0,0-.1-1.453c-.626-4.393-4.736-7.632-8.74-9.115a5.888,5.888,0,0,0-2.044-.352c-2.763,0-5.677,1.736-6.365,4.422-.333,1.3-.176,2.693-.554,3.981a7.538,7.538,0,0,1-3.77,4.151c-6.649,3.738-15.064,1.947-22.323,4.288-2.249.725-4.609,2.154-5.047,4.476a3.941,3.941,0,0,0-.067.735" transform="translate(-235.433 256.997)"/>
    </clipPath>
  </defs>
  <g id="Online_coach" data-name="Online coach" transform="translate(0 618.04)">
    <g id="g12" transform="translate(0 -618.04)">
      <path id="path14" d="M34.078-364.351c-45.437,27.487-45.437,72.053,0,99.54s119.106,27.488,164.543,0,45.437-72.053,0-99.54-119.106-27.488-164.543,0" transform="translate(0 470.195)" fill="#03628e"/>
      <path id="path16" d="M367.855-362.093c-5.893,3.4-5.893,8.918,0,12.321s15.447,3.4,21.34,0,5.893-8.918,0-12.321-15.447-3.4-21.34,0" transform="translate(-230.538 457.305)" fill="#dadbd8"/>
      <path id="path18" d="M58.428-313.467l-35.27-20.174a.466.466,0,0,1,0-.882l96.3-55.6a1.691,1.691,0,0,1,1.529,0l35.269,20.174a.466.466,0,0,1,0,.883l-96.3,55.6a1.69,1.69,0,0,1-1.529,0" transform="translate(-14.489 473.58)" fill="#dadbd8"/>
      <path id="path20" d="M187.108-121.691c3.37,1.946,3.37,5.1,0,7.045a13.484,13.484,0,0,1-12.2,0c-3.37-1.946-3.37-5.1,0-7.045a13.486,13.486,0,0,1,12.2,0" transform="translate(-109.344 304.117)" fill="#dadbd8"/>
      <path id="path22" d="M374.057-219.527,282.113-166.5l-46.681-26.8,91.943-53.03,46.681,26.8" transform="translate(-149.342 382.254)" fill="#dadbd8"/>
      <path id="path36" d="M368.7-390.612a.411.411,0,0,1,.243-.339,1.3,1.3,0,0,1,1.175,0,.412.412,0,0,1,.243.339l-2.958,17.464h0a.294.294,0,0,1-.171.234.917.917,0,0,1-.831,0,.294.294,0,0,1-.171-.234h0l2.471-17.464" transform="translate(-232.312 474.081)" fill="#33535f"/>
      <path id="path38" d="M432.493-390.612a.412.412,0,0,0-.243-.339,1.3,1.3,0,0,0-1.176,0,.412.412,0,0,0-.243.339l2.958,17.464h0a.293.293,0,0,0,.171.234.917.917,0,0,0,.831,0,.294.294,0,0,0,.171-.234h0l-2.47-17.464" transform="translate(-273.288 474.081)" fill="#33535f"/>
      <path id="path40" d="M403.849-386.993a.412.412,0,0,0-.243-.339,1.3,1.3,0,0,0-1.175,0,.413.413,0,0,0-.243.339l.243,20.776h0a.3.3,0,0,0,.172.234.92.92,0,0,0,.831,0,.3.3,0,0,0,.171-.234h0l.243-20.776" transform="translate(-255.119 471.785)" fill="#33535f"/>
      <path id="path42" d="M393.52-420.422h-.014c0-2.2-1.44-4.4-4.348-6.079-5.815-3.357-15.243-3.357-21.057,0-2.908,1.679-4.35,3.879-4.347,6.079h-.014v1.181c.035,2.172,1.492,4.336,4.361,5.993,5.815,3.357,15.243,3.357,21.057,0,2.87-1.657,4.326-3.821,4.361-5.993v-1.181" transform="translate(-230.731 498.138)" fill="#298fbe"/>
      <path id="path44" d="M368.1-426.5c-5.815,3.357-5.815,8.8,0,12.157s15.243,3.357,21.057,0,5.815-8.8,0-12.157-15.242-3.357-21.057,0" transform="translate(-230.731 498.138)" fill="#26b6a6"/>
      <path id="path46" d="M379.143-411.413a21.528,21.528,0,0,1-10.529-2.518,9.918,9.918,0,0,1-3.381-3.006l-.685-4.781a8.606,8.606,0,0,1,4.066-4.37,19.45,19.45,0,0,1,6.847-2.253q.05.094.1.192l.01.018a3.213,3.213,0,0,0-.639.547,1.876,1.876,0,0,0-.184.237,1.933,1.933,0,0,0-.247.5,6.651,6.651,0,0,0,.5,4.492c-1.134,1.057-.907,2.463.682,3.381a6.869,6.869,0,0,0,3.359.8,6.865,6.865,0,0,0,3.358-.8c1.545-.892,1.8-2.246.774-3.293a6.72,6.72,0,0,0,.544-4.571,1.937,1.937,0,0,0-.268-.536,1.858,1.858,0,0,0-.155-.2,3.289,3.289,0,0,0-.742-.619c.026-.06.05-.119.073-.179a19.569,19.569,0,0,1,7.039,2.28c2.907,1.679,4.361,3.879,4.361,6.079s-1.453,4.4-4.361,6.078a21.525,21.525,0,0,1-10.528,2.518" transform="translate(-231.243 497.726)" fill="#68afcf"/>
      <path id="path48" d="M395.956-407.735a6.869,6.869,0,0,1-3.359-.8c-1.589-.918-1.816-2.324-.682-3.381A5.818,5.818,0,0,0,393-410.238l.037.038.064.063q.066.064.14.125l.048.037.113.086a2.23,2.23,0,0,0,.211.135,4.918,4.918,0,0,0,2.406.575,4.916,4.916,0,0,0,2.406-.575,2.216,2.216,0,0,0,.209-.134l.122-.092.039-.031c.052-.042.1-.085.146-.13l.056-.054.044-.046a5.72,5.72,0,0,0,1.045-1.591c1.03,1.046.771,2.4-.774,3.292a6.865,6.865,0,0,1-3.358.8" transform="translate(-248.154 487.292)" fill="#57a1c4"/>
      <path id="path50" d="M393-419.588c-1.615-1.648-2.565-5.764-.989-7.071h8.016c1.575,1.307.627,5.42-.987,7.069l-.044.046-.056.054c-.046.044-.094.088-.146.13l-.039.031-.122.092a2.21,2.21,0,0,1-.209.134,5.316,5.316,0,0,1-4.812,0,2.206,2.206,0,0,1-.211-.135l-.113-.086-.048-.037c-.05-.041-.1-.083-.14-.125l-.064-.063-.037-.038" transform="translate(-248.153 496.642)" fill="#e7e8e5"/>
      <path id="path52" d="M399.562-429.473c1.829,1.056,1.829,2.768,0,3.824a7.321,7.321,0,0,1-6.624,0c-1.829-1.056-1.829-2.768,0-3.824a7.321,7.321,0,0,1,6.624,0" transform="translate(-248.382 498.929)" fill="#fafaf9"/>
      <path id="path54" d="M401.447-426.888a1.228,1.228,0,0,1,0,2.327,4.456,4.456,0,0,1-4.03,0,1.228,1.228,0,0,1,0-2.327,4.453,4.453,0,0,1,4.03,0" transform="translate(-251.563 497.093)" fill="#e7e8e5"/>
      <path id="path56" d="M397.708-423.868a4.455,4.455,0,0,1,4.03,0,1.855,1.855,0,0,1,.667.611,1.856,1.856,0,0,1-.667.611,4.456,4.456,0,0,1-4.03,0,1.85,1.85,0,0,1-.667-.611,1.85,1.85,0,0,1,.667-.611" transform="translate(-251.855 495.177)" fill="#dadbd8"/>
      <path id="path58" d="M398.568-434.881a9.138,9.138,0,0,0,1.458-1.938c.673-1.191.8-2.785.449-2.982s-1.764,1.394-1.764,1.394a8.62,8.62,0,0,0,.149-2.032,3.638,3.638,0,0,0-.621-2.217c-.3-.195-.983,1.143-1.274,2.112s-.466,1.766-.466,1.766a14.973,14.973,0,0,0-.522-2.23c-.353-1.006-.674-1.234-.922-1.135s-.413.569-.486,1.909a13.341,13.341,0,0,0,.059,1.918s-.5-.548-1.054-1.081c-.609-.585-.869-.665-1.043-.554s-.222,1.022.721,2.727a9.52,9.52,0,0,0,1.781,2.343,4.085,4.085,0,0,0,3.535,0" transform="translate(-248.931 506.801)" fill="#26b6a6"/>
      <path id="path60" d="M396.661-434.507a3.2,3.2,0,0,1-1.628-.374,9.52,9.52,0,0,1-1.781-2.343,5.415,5.415,0,0,1-.821-2.363c0-.206.043-.328.1-.364a.263.263,0,0,1,.145-.042c.176,0,.437.154.9.6.555.533,1.054,1.081,1.054,1.081h0s-.073-.647-.073-1.392c0-.172,0-.349.013-.525.073-1.34.237-1.81.486-1.909a.287.287,0,0,1,.107-.021c.231,0,.51.289.815,1.156a14.971,14.971,0,0,1,.522,2.23s.175-.8.466-1.766c.272-.9.882-2.131,1.209-2.131a.116.116,0,0,1,.065.019,3.637,3.637,0,0,1,.621,2.217c.007.133.011.264.011.392a8.717,8.717,0,0,1-.16,1.64h0s1.256-1.411,1.693-1.411a.147.147,0,0,1,.071.017c.124.07.188.319.189.665a5.125,5.125,0,0,1-.638,2.317,9.138,9.138,0,0,1-1.458,1.938,5.393,5.393,0,0,1-1.907.374" transform="translate(-248.931 506.801)" fill="#057bb1"/>
      <path id="path62" d="M400.644-486.872a1.1,1.1,0,0,0-1.136-.06,5.013,5.013,0,0,0-2.363,3.773,2.106,2.106,0,0,0,.536,1.98c.188.138.923.687,1.117.828a1.1,1.1,0,0,0,1.13.056,5.017,5.017,0,0,0,2.363-3.773,2.119,2.119,0,0,0-.528-1.974c-.19-.143-.93-.689-1.12-.831" transform="translate(-251.902 534.955)" fill="#26b6a6"/>
      <path id="path64" d="M399.369-480.168a.944.944,0,0,1-.569-.182c-.194-.141-.929-.69-1.117-.828a1.81,1.81,0,0,1-.566-1.5,4.057,4.057,0,0,1,.03-.48,5.013,5.013,0,0,1,2.363-3.773,1.426,1.426,0,0,1,.561-.127.944.944,0,0,1,.575.186c.191.142.931.688,1.12.831a1.822,1.822,0,0,1,.557,1.5,4.1,4.1,0,0,1-.029.476,5.017,5.017,0,0,1-2.363,3.773,1.427,1.427,0,0,1-.561.127" transform="translate(-251.902 534.955)" fill="#1a759f"/>
      <path id="path66" d="M395.589-502.647a3.464,3.464,0,0,0-3.564-.181c-2.424,1.04-4.352,3.469-5.759,6.8-.286.676-.262,1.356.052,1.608l0,0c.368.3,1.008.727,1.321.979l0,0c.395.318,1.091-.161,1.448-1.015.988-2.361,2.229-3.946,3.933-4.677a2.792,2.792,0,0,1,1.769-.217,3.585,3.585,0,0,1,.436.967.6.6,0,0,0,.207.328l1.328.985c.284.208.752.019,1.143-.52l0-.006a2.348,2.348,0,0,0,.456-1.823,4.238,4.238,0,0,0-1.434-2.239c-.226-.169-1.125-.831-1.349-1" transform="translate(-244.893 545.21)" fill="#26b6a6"/>
      <path id="path68" d="M387.931-493.336a.442.442,0,0,1-.284-.1l0,0c-.313-.252-.953-.683-1.321-.979l0,0a.881.881,0,0,1-.251-.7,2.394,2.394,0,0,1,.2-.909c1.407-3.333,3.335-5.762,5.759-6.8a4.488,4.488,0,0,1,1.763-.4,2.976,2.976,0,0,1,1.8.579c.224.165,1.122.827,1.349,1a4.238,4.238,0,0,1,1.434,2.239,1.292,1.292,0,0,1,.048.363,2.635,2.635,0,0,1-.5,1.46l0,.006a1.233,1.233,0,0,1-.882.6.437.437,0,0,1-.261-.082l-1.328-.985a.6.6,0,0,1-.207-.328,3.586,3.586,0,0,0-.436-.967,2.235,2.235,0,0,0-.53-.062,3.15,3.15,0,0,0-1.239.279c-1.7.731-2.944,2.316-3.933,4.677-.282.673-.774,1.114-1.164,1.114" transform="translate(-244.893 545.211)" fill="#1a759f"/>
      <path id="path70" d="M393.57-514.415a6.345,6.345,0,0,0-2.03-2.8c-.228-.17-1.127-.835-1.349-1-1.479-1.1-3.453-1.282-5.73-.305-3.6,1.547-6.512,4.581-8.812,9.445-.339.716-.356,1.474-.02,1.749l.007,0c.382.313.982.7,1.318.977l.007.005c.381.312,1.039-.133,1.421-.946,1.867-3.977,4.136-6.269,7.081-7.533a4.817,4.817,0,0,1,3.98-.163,5.716,5.716,0,0,1,1.049,1.74.589.589,0,0,0,.2.27c.193.141,1.242.921,1.322.98.288.214.75.034,1.142-.507a2.254,2.254,0,0,0,.418-1.918" transform="translate(-238.118 555.315)" fill="#26b6a6"/>
      <path id="path72" d="M377.245-506.239a.44.44,0,0,1-.284-.1l-.007-.005c-.336-.275-.936-.664-1.318-.977l-.007,0a.862.862,0,0,1-.243-.68,2.568,2.568,0,0,1,.263-1.069c2.3-4.864,5.21-7.9,8.812-9.445a7.173,7.173,0,0,1,2.822-.636,4.785,4.785,0,0,1,2.908.941c.221.164,1.121.829,1.349,1a6.345,6.345,0,0,1,2.03,2.8,1.281,1.281,0,0,1,.079.471,2.6,2.6,0,0,1-.5,1.446,1.212,1.212,0,0,1-.871.594.448.448,0,0,1-.272-.088c-.08-.059-1.129-.839-1.322-.98a.589.589,0,0,1-.2-.27,5.716,5.716,0,0,0-1.049-1.74,4,4,0,0,0-1.681-.356,5.849,5.849,0,0,0-2.3.519c-2.945,1.264-5.214,3.556-7.081,7.533-.3.636-.765,1.046-1.137,1.046" transform="translate(-238.119 555.315)" fill="#1a759f"/>
      <path id="path74" d="M404.219-482.64a5.017,5.017,0,0,1-2.363,3.773c-1.114.478-1.863-.436-1.673-2.041a5.016,5.016,0,0,1,2.363-3.773c1.114-.478,1.863.435,1.673,2.041" transform="translate(-253.829 533.527)" fill="#2889b5"/>
      <path id="path76" d="M395.647-500.146c-2.423,1.04-4.352,3.469-5.759,6.8-.285.676-.261,1.356.052,1.608l0,0c.4.318,1.092-.161,1.449-1.015.988-2.361,2.229-3.946,3.933-4.677a2.4,2.4,0,0,1,3.53,1.731c.182.626.836.527,1.354-.188l0-.006a2.348,2.348,0,0,0,.456-1.823c-.725-2.42-2.6-3.476-5.022-2.435" transform="translate(-247.191 543.51)" fill="#2889b5"/>
      <path id="path78" d="M388.084-515.84c-3.6,1.547-6.512,4.581-8.812,9.445-.338.715-.356,1.474-.02,1.75l.007,0c.381.312,1.039-.133,1.421-.946,1.868-3.977,4.136-6.27,7.081-7.533s5.278-.157,6.353,2.558c.219.554.836.452,1.336-.238a2.252,2.252,0,0,0,.418-1.918c-1.317-3.313-4.174-4.673-7.784-3.123" transform="translate(-240.416 553.617)" fill="#2889b5"/>
      <path id="path80" d="M130.7-486.622l2.016-1.163,10.965-57.366c.367-1.916-.705-2.678-2.394-1.7L53.238-496.087a8.775,8.775,0,0,0-3.722,5.233L38.759-434.579a1.567,1.567,0,0,0,.754,1.651l24.673,14.284,92.091-53.166L130.7-486.622" transform="translate(-24.568 573.154)" fill="#33535f"/>
      <path id="path82" d="M52.605-488.922,41.86-432.757l94.095-53.967,10.811-56.5c.367-1.916-.705-2.678-2.394-1.7L56.327-494.156a8.778,8.778,0,0,0-3.722,5.234" transform="translate(-26.553 571.929)" fill="#17282f"/>
      <path id="path84" d="M133.952-382.842,41.86-329.675l25.021,14.45,92.091-53.166-25.02-14.451" transform="translate(-26.553 468.847)" fill="#273e47"/>
      <path id="path86" d="M168.386-541.972,79.661-490.841c-1.946,1.123-2.553,2.942-2.21,5.338L87.074-418.3c.343,2.4,2.252,3.8,4.2,2.675l87.938-50.75a6.747,6.747,0,0,0,2.9-6.372l-9.582-66.924c-.343-2.4-2.2-3.428-4.144-2.3" transform="translate(-49.072 570.076)" fill="#33535f"/>
      <path id="path88" d="M177.12-538.96a2.737,2.737,0,0,0-2.391.3L86.787-487.909a5.917,5.917,0,0,0-2.244,2.575l-2.839-1.2a5.365,5.365,0,0,1,2.644-2.4l87.936-50.754a2.708,2.708,0,0,1,2.485-.255v0l2.352.992" transform="translate(-51.827 568.628)" fill="#26b6a6"/>
      <path id="path90" d="M84.116-485.517l-.418-.177-1.993-.845h0a5.365,5.365,0,0,1,2.644-2.4l87.936-50.754a3.128,3.128,0,0,1,1.548-.451,2.293,2.293,0,0,1,.937.2h0v0l2.352.992a2.307,2.307,0,0,0-.842-.156,3.118,3.118,0,0,0-1.55.453l-4.39,2.533L86-487.527a4.375,4.375,0,0,0-1.886,2.01" transform="translate(-51.827 568.628)" fill="#01334a"/>
      <path id="path92" d="M91.957-320.444v0a3.083,3.083,0,0,1-1.708-2.58L80.72-389.579a6.885,6.885,0,0,1,.26-3.97l2.839,1.2c-.075.156-.144.316-.212.481q-.077.2-.138.395l-.018.061a4.443,4.443,0,0,0-.134.459c-.042.159-.078.323-.1.481a2.857,2.857,0,0,0-.051.364,5.641,5.641,0,0,0,0,1.556l9.581,66.921a3.09,3.09,0,0,0,1.732,2.6l-2.521-1.413" transform="translate(-51.102 475.639)" fill="#26b6a6"/>
      <path id="path94" d="M112.633-193.2l-2.105-1.2v-.007h0v0l1.977,1.109c.042.032.084.062.127.09m-2.489-1.406a2.393,2.393,0,0,1-.3-.236h0a2.4,2.4,0,0,0,.3.236" transform="translate(-69.675 349.593)" fill="#8f9192"/>
      <path id="path96" d="M91.266-320.884h0a3.514,3.514,0,0,1-1.021-2.14l-9.527-66.551a6.875,6.875,0,0,1,.258-3.969h0a6.889,6.889,0,0,0-.258,3.968l9.528,66.551a3.508,3.508,0,0,0,1.02,2.141" transform="translate(-51.099 475.636)" fill="#20353d"/>
      <path id="path98" d="M87.575-391.062l-.418-.177.418.177h0" transform="translate(-55.286 474.174)" fill="#069984"/>
      <path id="path100" d="M93.934-319.331l-1.977-1.109v0h0a2.259,2.259,0,0,1-.383-.2,2.4,2.4,0,0,1-.3-.236,3.508,3.508,0,0,1-1.02-2.141L80.72-389.575a6.889,6.889,0,0,1,.258-3.968l1.995.842.418.177a4.546,4.546,0,0,0-.321,1.048h0l0,.007a7.1,7.1,0,0,0,0,2.271l.009.06,9.667,67.517v.006c.007.054.015.108.026.161a4.366,4.366,0,0,0,.215.79c.015.041.031.083.05.124a2.906,2.906,0,0,0,.9,1.207" transform="translate(-51.102 475.635)" fill="#01334a"/>
      <path id="path102" d="M178.194-536.869,89.469-485.738c-1.945,1.123-2.552,2.941-2.209,5.338l9.675,67.576c.343,2.4,2.2,3.428,4.144,2.3l87.938-50.75a6.746,6.746,0,0,0,2.9-6.372l-9.581-66.924c-.343-2.4-2.2-3.428-4.144-2.3" transform="translate(-55.294 566.839)" fill="#26b6a6"/>
      <path id="path104" d="M99.527-410.065a2.522,2.522,0,0,1-2.35-1.8,4.365,4.365,0,0,1-.215-.79c-.009-.053-.018-.107-.026-.161v-.006l-9.667-67.517-.009-.059a8.486,8.486,0,0,1-.091-1.2,4.422,4.422,0,0,1,2.3-4.141l88.725-51.132a3.11,3.11,0,0,1,1.552-.454c1.3,0,2.343,1.02,2.592,2.759l9.582,66.924a5.58,5.58,0,0,1,.055.785,6.737,6.737,0,0,1-2.957,5.587l-87.939,50.75a3.111,3.111,0,0,1-1.552.454m3.68-7.493c.129.9.67,1.43,1.343,1.43a1.612,1.612,0,0,0,.8-.236l78.494-45.3a3.5,3.5,0,0,0,1.5-3.3l-9.288-64.872c-.129-.9-.67-1.43-1.343-1.43a1.613,1.613,0,0,0-.8.236l-78.494,45.3a3.491,3.491,0,0,0-1.532,2.9h0a2.852,2.852,0,0,0,.029.407l9.288,64.872h0" transform="translate(-55.294 566.84)" fill="#025074"/>
      <path id="path106" d="M195.509-451.152l-78.494,45.3c-1.008.582-1.97.047-2.147-1.195l-9.288-64.872a3.5,3.5,0,0,1,1.5-3.3l78.494-45.3c1.009-.582,1.97-.048,2.148,1.194l9.288,64.872a3.5,3.5,0,0,1-1.5,3.3" transform="translate(-66.954 556.33)" fill="#17282f"/>
      <path id="path108" d="M105.579-471.512l9.288,64.872c.007.05.017.1.027.143l78.494-45.3a3.5,3.5,0,0,0,1.5-3.3l-9.316-65.015-78.494,45.3a3.5,3.5,0,0,0-1.5,3.3" transform="translate(-66.954 555.922)" fill="#26b6a6"/>
      <path id="path110" d="M114.895-406.5c-.01-.047-.02-.094-.027-.143l-9.288-64.872a2.854,2.854,0,0,1-.029-.407,3.491,3.491,0,0,1,1.532-2.9l78.494-45.3,9.316,65.015a2.889,2.889,0,0,1,.028.407,3.493,3.493,0,0,1-1.532,2.9l-78.495,45.3m30.593-44.1c-1.976,5.847-3.761,19.395-4.872,29.243l17.032-9.826,2.534-1.463,10.839-6.253L169.89-451.44h0a106.667,106.667,0,0,0,.544-19.386,15.99,15.99,0,0,0-1.783-6.131,9.509,9.509,0,0,0-6.593-7.034c-.281-.173-.444-.258-.444-.258l-5.443-1.11-7.606,1.692c-2.894.621-4.393,2-4.648,4.315a13.733,13.733,0,0,0,.417,5.043l.646,4.471h0s.406,1.7,1.338,5.2a21.533,21.533,0,0,1,.806,5.593,17.653,17.653,0,0,1-2.021,8.154h0a2.929,2.929,0,0,0,.386.294" transform="translate(-66.954 555.922)" fill="#ceeee7"/>
      <path id="path112" d="M109.84-289.231a1.757,1.757,0,0,1-.756,1.661c-.507.293-.991.024-1.08-.6a1.758,1.758,0,0,1,.757-1.661c.507-.293.991-.024,1.08.6" transform="translate(-68.5 409.923)" fill="#17282f"/>
      <path id="path114" d="M105.054-317.744h0a1.366,1.366,0,0,0-.588,1.291l.827,5.776c.069.485.446.694.84.467a1.368,1.368,0,0,0,.588-1.292l-.827-5.776c-.07-.485-.446-.694-.84-.467" transform="translate(-66.259 427.612)" fill="#17282f"/>
      <path id="path116" d="M231.847-320.636l-10.838,6.253-2.534,1.463-17.032,9.826c1.207-10.7,3.21-25.767,5.388-30.58l23.886.5,1.131,12.541" transform="translate(-127.781 437.659)" fill="#2a3c44"/>
      <path id="path118" d="M257.321-316.3a14.583,14.583,0,0,1-6.472,7.972l-.294,4.966-2.534,1.463.716-7.466s6.216-2.507,8.585-6.935" transform="translate(-157.327 426.637)" fill="#19262b"/>
      <path id="path120" d="M258.865-427.294a10.784,10.784,0,0,1,8.526-1.076c4.47-2.562,8.393-2.059,12.154-1.49.935.141,4.021-.3,4.6.228a3.109,3.109,0,0,1,.785,1.816l-1.879,5c-3.26.647-5.141,1.444-9.811,2.182-3.682.582-6.039.941-6.444,2.682a28.919,28.919,0,0,1-7.937-9.341" transform="translate(-164.205 498.964)" fill="#f5a784"/>
      <path id="path122" d="M316.993-455.987a4.1,4.1,0,0,0,.567-2.971c-.113-2-.451-5.914-.751-7.633a46.8,46.8,0,0,0-1.228-6.223c-.738-2.27-.474-3.685-1.51-5.225s-6-2.678-7.066-.411c-.612,1.3,1.625,1.956,1.686,2.95,0,0-1.745,1.367-.506,1.835.979.37,1.922.527,2.214,3.612.258,2.726-.654,5.762-.654,9.881,0,1.7.853,6.691.853,6.691,2.117-.591,5.012-.772,6.4-2.506" transform="translate(-194.674 530.307)" fill="#f5a784"/>
      <path id="path124" d="M310.858-465.733c.147.535,2.609.986,3.163.867a.862.862,0,0,0,.675-.53l1.692.515.065-1.409-5.483-.267a2.423,2.423,0,0,0-.112.823" transform="translate(-197.179 521.95)" fill="#db8c68"/>
      <path id="path126" d="M318.5-428.932s-.332-1.785-3.707-2.992c-.021.326-.054.705-.054,1.008a7.617,7.617,0,0,1,3.761,1.984" transform="translate(-199.646 499.982)" fill="#db8c68"/>
      <path id="path128" d="M296.683-483.358l0-.017a2.923,2.923,0,0,0-3.576-2.075,2.907,2.907,0,0,0-1.326.771l-.018.017-.057.061-.063.069a5.9,5.9,0,0,0-1.266,5l.006.017,0,.016c.023.086.051.171.081.253l0,.007a2.923,2.923,0,0,0,3.493,1.815,2.907,2.907,0,0,0,.6-.236,2.689,2.689,0,0,0,.746-.538,5.869,5.869,0,0,0,1.385-5.126l-.009-.03" transform="translate(-184.105 533.996)" fill="#33535f"/>
      <path id="path130" d="M297.155-482.89a5.869,5.869,0,0,0-1.385,5.127c.434,1.636,1.76,1.994,2.96.8a5.871,5.871,0,0,0,1.385-5.126c-.435-1.636-1.76-1.995-2.96-.8" transform="translate(-187.527 532.758)" fill="#273e47"/>
      <path id="path132" d="M311.261-474.515h-.006l-.019-.005L301.216-477.3v0a.7.7,0,0,0-.7.243,2.256,2.256,0,0,0-.532,1.969.709.709,0,0,0,.47.563l10.028,2.784h0a.705.705,0,0,0,.694-.248,2.254,2.254,0,0,0,.532-1.969.723.723,0,0,0-.444-.555" transform="translate(-190.252 528.781)" fill="#17282f"/>
      <path id="path134" d="M327.478-467.463a.622.622,0,0,0,1.137.307,2.253,2.253,0,0,0,.532-1.969.622.622,0,0,0-1.137-.307,2.256,2.256,0,0,0-.532,1.969" transform="translate(-207.695 523.946)" fill="#33535f"/>
      <path id="path136" d="M312.311-479.264c-.459-1.346-.307-1.626-1.424-1.867s-1.122-1.171-2.237-1.04a10.326,10.326,0,0,1-2.447.356c-.5-.152-1.485.386-1.946,1.13a4.535,4.535,0,0,0-.387,2.6c.064.753.836,1.692,2.443,2.1,1.574.4,3.225.757,3.563-.021.261-.6.022-1.12.1-1.483a1.408,1.408,0,0,1,.772-.946l.784.218.777-1.054" transform="translate(-192.733 531.863)" fill="#f5a784"/>
      <path id="path138" d="M329.237-474.389l0-.017a2.924,2.924,0,0,0-3.576-2.075,2.913,2.913,0,0,0-1.326.771l-.019.017-.056.061-.063.069a5.9,5.9,0,0,0-1.266,5l.005.017,0,.016c.023.086.051.17.081.253l0,.007a2.923,2.923,0,0,0,3.493,1.815,2.947,2.947,0,0,0,.6-.235,2.687,2.687,0,0,0,.746-.539,5.867,5.867,0,0,0,1.385-5.126l-.009-.029" transform="translate(-204.755 528.308)" fill="#33535f"/>
      <path id="path140" d="M329.709-473.921a5.87,5.87,0,0,0-1.385,5.126c.435,1.637,1.76,1.995,2.96.8a5.867,5.867,0,0,0,1.385-5.126c-.434-1.636-1.76-1.994-2.96-.8" transform="translate(-208.177 527.069)" fill="#273e47"/>
      <path id="path142" d="M308.7-466.9c-.25-.812-1.812-1.833-2.775-2.356a2.852,2.852,0,0,1-1.582-1.834.973.973,0,0,1,.169-.847,3.476,3.476,0,0,1,.744-.5c.349-.191.706-.372,1.055-.559.4-.215.778-.489,1.162-.73a1.162,1.162,0,0,1,.3-.15.389.389,0,0,1,.323.039c.381.266.333,1,.178,1.371a3.222,3.222,0,0,1-.726.932,2.013,2.013,0,0,0-.6.86c-.06.3.326.539.555.645a6.361,6.361,0,0,0,1.314.45c.587.12-.294,2.114-.119,2.685" transform="translate(-193.036 526.608)" fill="#f5a784"/>
      <path id="path144" d="M235.093-415.107a9.754,9.754,0,0,0-8.906-7.718l-6.554-.109s-1.692.282-4.617.9-4.44,1.994-4.7,4.325a13.733,13.733,0,0,0,.417,5.043l.646,4.471s2.262,6.22,2.452,8.605a20.139,20.139,0,0,1-1.428,9.3c8.632,3.793,16.676,4.993,23.357.175.972-5.826,1.156-14.521-.67-24.988" transform="translate(-133.357 494.279)" fill="#db8c68"/>
      <path id="path146" d="M238.829-410.546c-.772-9.2-8.82-13.424-8.82-13.424l-5.443-1.11-7.673,1.707s1.915,9.525-3.519,13.815c0,0,.406,1.7,1.338,5.2a18.257,18.257,0,0,1-1.215,13.748s2.39,2.361,11.449,3,13.339-3.546,13.339-3.546a106.665,106.665,0,0,0,.544-19.386" transform="translate(-135.349 495.639)" fill="#c1d7e1"/>
      <path id="path148" d="M213.374-385.763a8.506,8.506,0,0,0,1.7-1.8v0a8.511,8.511,0,0,1-1.695,1.8" transform="translate(-135.349 471.845)" fill="#f57c8d"/>
      <path id="path150" d="M223.251-363.96c-7.652-.789-9.746-2.843-9.754-2.851h0a17.653,17.653,0,0,0,2.021-8.154,21.533,21.533,0,0,0-.806-5.593c-.932-3.5-1.338-5.2-1.338-5.2h0a8.512,8.512,0,0,0,1.695-1.8l-.213.657c.966,2.487,2.918,7.656,3.218,10.775s.009,6.993.827,7.465,5.264.989,5.312,2.189a5.776,5.776,0,0,1-.962,2.512" transform="translate(-135.349 471.839)" fill="#c1d7e1"/>
      <path id="path152" d="M186.384-420.977s-3.741-.986-6.206.47c-2.029,1.2-3.129,2.648-4.083,5.545a24.358,24.358,0,0,0-4.274,4.329c-2.243,3.066-3.9,6.643-5.156,8.61-.68,1.061-1.586,2.083-1.351,3.613.091.593.47.935,1.173,1.593l6.873-1.916c2.022-2.2,6.5-5.352,9.265-8.936l.239.506a8.693,8.693,0,0,0,4.079-6.859c.329-5.667-.559-6.956-.559-6.956" transform="translate(-104.839 493.245)" fill="#f5a784"/>
      <path id="path154" d="M166.5-361.14a42.193,42.193,0,0,0,4.392,4.605,62.213,62.213,0,0,0,7.32,4.762c2.069,1.191,2.852,1.772,4.448,2.723a13.946,13.946,0,0,0,6.393,2.1,5.236,5.236,0,0,0,4.43-3.133c.579-1.127-1.244-1.848-3.7-2.241a9.523,9.523,0,0,1-4.411-1.552c-.508-.271-.47-.608-.3-1.157a6.537,6.537,0,0,0,.307-1.193c-.116-.082-.705-.009-1.385.538-.816.656-1.507.818-3.451-1.178-2.011-2.064-2.834-4.1-5.465-6.329s-8.582,2.055-8.582,2.055" transform="translate(-105.618 456.792)" fill="#f5a784"/>
      <path id="path156" d="M214.391-389.933c.051-.742.04-1.1.04-1.1a28.809,28.809,0,0,1-1.711,2.566l.239.506a7.469,7.469,0,0,0,1.482-1.144,4.072,4.072,0,0,1-.05-.828" transform="translate(-134.934 474.043)" fill="#db8c68"/>
      <path id="path158" d="M182.971-364.308a5.124,5.124,0,0,0-4.006-.36s1.668-1.676,4.9-.455l-.9.815" transform="translate(-113.523 457.89)" fill="#db8c68"/>
      <path id="path160" d="M225.6-476.684a3.02,3.02,0,0,0-2.092,2.09c-.366,1.208-.156,3.484.6,6.466a24.617,24.617,0,0,0,2.132,5.665,2.28,2.28,0,0,0,1.329,1.051l-.108-3.544-.143-2.469a10.163,10.163,0,0,0,1.735-3.949,6.346,6.346,0,0,0-.276-3.216l-3.174-2.1" transform="translate(-141.669 528.374)" fill="#273e47"/>
      <path id="path162" d="M225.407-477.509l-2.63-.539a1.43,1.43,0,0,1,1.63-1.154,1.378,1.378,0,0,1,1,1.693" transform="translate(-141.314 529.987)" fill="#273e47"/>
      <path id="path164" d="M226.688-480.376l-1.974-1.819a1.43,1.43,0,0,1,1.992-.147,1.377,1.377,0,0,1-.018,1.966" transform="translate(-142.543 532.177)" fill="#273e47"/>
      <path id="path166" d="M244.635-475.287a5.765,5.765,0,0,0,5.818,5.71,5.764,5.764,0,0,0,5.71-5.818,5.764,5.764,0,0,0-5.818-5.71,5.764,5.764,0,0,0-5.71,5.818" transform="translate(-155.179 531.178)" fill="#273e47"/>
      <path id="path168" d="M226.231-467.939c-.592.52-1.085-.813-1.589-1.331a1.758,1.758,0,0,0-2.939.505c-.813,1.754.742,4.2,2,4.68a1.79,1.79,0,0,0,1.812-.2l.046,7.513c.864,1.683,4.268,3.857,8.149,3.192,1.664-.285.886-2.314.019-3.446l-.031-2.772a13.979,13.979,0,0,0,2.984.125c1.625-.267,2.467-1.5,2.944-3.265a30.119,30.119,0,0,0-.07-13.087c-1.83-1.4-8.145-1.126-11.953,1.32.31,4.874-.776,6.251-1.368,6.77" transform="translate(-140.489 528.494)" fill="#f5a784"/>
      <path id="path170" d="M245.7-489.578a.3.3,0,0,0-.238-.181.387.387,0,0,0-.222.1,10.47,10.47,0,0,1-1.443.984,5.217,5.217,0,0,0,.013-1.977c-.074-.4-.194-1.328-.69-1.424-.3-.057-.552.191-.771.4-1.977,1.873-4.578,1.028-6.974,1.119-2,.076-4.416.906-5.309,2.86a1.85,1.85,0,0,0,.348,2.445,5.637,5.637,0,0,0,2.448.9c4,.67,9.726,2.277,12.655-1.462a2.942,2.942,0,0,0,.606-1.956,4.03,4.03,0,0,0-.411-1.778l-.012-.023" transform="translate(-145.75 538.144)" fill="#273e47"/>
      <path id="path172" d="M242.528-435.448a27.866,27.866,0,0,1-4.915-1.361,5.882,5.882,0,0,1-2.209-1.669,3.185,3.185,0,0,0,1.308,2.266c1.966,1.452,5.825,1.938,5.825,1.938l-.01-1.174" transform="translate(-149.324 504.138)" fill="#db8c68"/>
      <path id="path178" d="M252.281-443.46,255.2-442.4a1.524,1.524,0,0,1-1.964.98,1.624,1.624,0,0,1-.95-2.043" transform="translate(-159.974 507.299)" fill="#c7724c"/>
      <path id="path180" d="M253.29-440.1a1.477,1.477,0,0,0,.8.055,1.408,1.408,0,0,0-1.414-1.341,1.386,1.386,0,0,0-.393.065,1.587,1.587,0,0,0,1,1.221" transform="translate(-160.033 505.986)" fill="#db8c68"/>
      <path id="path188" d="M374.057-230.194l-91.943,53.03-46.681-26.8L327.376-257l46.681,26.8" transform="translate(-149.342 389.02)" fill="#26b6a6"/>
      <g id="g190" transform="translate(86.091 132.023)">
        <g id="g192" transform="translate(0 0)" clip-path="url(#clip-path)">
          <path id="path198" d="M235.433-177.164H374.057V-257H235.433Z" transform="translate(-235.433 256.997)" fill="#a2d1e6"/>
        </g>
      </g>
      <path id="path200" d="M455.033-183.7v1.3l-91.943,53.03v-1.3l91.943-53.03" transform="translate(-230.318 342.525)" fill="#26b6a6"/>
      <path id="path202" d="M363.09-129.367v-1.3l91.943-53.03v1.3l-91.943,53.03" transform="translate(-230.318 342.525)" fill="#4092b8"/>
      <path id="path204" d="M282.113-85.173l-46.681-26.8v1.3l46.681,26.8v-1.3" transform="translate(-149.342 297.029)" fill="#26b6a6"/>
      <path id="path206" d="M282.113-83.872l-46.681-26.8v-1.3l46.681,26.8v1.3" transform="translate(-149.342 297.029)" fill="#4092b8"/>
      <path id="path208" d="M359.641-91.528a2.611,2.611,0,0,1-1.279-.306l-1.041-.6a.9.9,0,0,1-.53-.738.9.9,0,0,1,.53-.739l2.32-1.34L352.4-99.441l-2.32,1.34a2.617,2.617,0,0,1-1.279.306,2.617,2.617,0,0,1-1.279-.306l-1.041-.6a.9.9,0,0,1-.53-.739.9.9,0,0,1,.53-.738l7.04-4.065a2.61,2.61,0,0,1,1.279-.306,2.612,2.612,0,0,1,1.279.306l1.042.6a.9.9,0,0,1,.53.738.9.9,0,0,1-.53.739l-2.563,1.479L361.8-96.5l2.562-1.479a2.616,2.616,0,0,1,1.279-.306,2.616,2.616,0,0,1,1.279.306l1.042.6a.9.9,0,0,1,.529.739.9.9,0,0,1-.529.738l-7.041,4.065a2.608,2.608,0,0,1-1.278.306" transform="translate(-219.443 292.319)" fill="#75afc9"/>
      <path id="path210" d="M354.782-114.989v-.022a3.649,3.649,0,0,0-3.649-3.649,3.629,3.629,0,0,0-1.846.505l-.028.015-.087.056-.1.062a7.369,7.369,0,0,0-3.128,5.623v.042c0,.112.007.222.017.332v.009a3.648,3.648,0,0,0,3.632,3.309,3.642,3.642,0,0,0,.8-.091,3.355,3.355,0,0,0,1.073-.41,7.324,7.324,0,0,0,3.314-5.74l0-.038" transform="translate(-219.443 301.269)" fill="#33535f"/>
      <path id="path212" d="M355.3-114.535a7.327,7.327,0,0,0-3.313,5.74c0,2.114,1.484,2.97,3.313,1.913a7.324,7.324,0,0,0,3.314-5.74c0-2.114-1.484-2.97-3.314-1.914" transform="translate(-223.277 298.94)" fill="#273e47"/>
      <path id="path214" d="M369.217-102.971h0l-.008,0-.025-.015-8.512-4.933,0,0a1.044,1.044,0,0,0-1.11.082,3.377,3.377,0,0,0-1.528,2.646,1.06,1.06,0,0,0,.464,1l8.523,4.939v0a1.055,1.055,0,0,0,1.1-.092A3.376,3.376,0,0,0,369.645-102a1.083,1.083,0,0,0-.429-.974" transform="translate(-227.109 294.535)" fill="#17282f"/>
      <path id="path216" d="M381.436-91.636c0,.975.684,1.37,1.528.882a3.376,3.376,0,0,0,1.528-2.647c0-.974-.684-1.369-1.528-.882a3.378,3.378,0,0,0-1.528,2.647" transform="translate(-241.956 285.938)" fill="#33535f"/>
      <path id="path218" d="M385-97.547v-.021a3.649,3.649,0,0,0-3.649-3.649,3.629,3.629,0,0,0-1.846.505l-.028.015-.087.055-.1.063a7.367,7.367,0,0,0-3.128,5.623v.041c0,.112.006.222.017.331v.009a3.648,3.648,0,0,0,3.632,3.309,3.642,3.642,0,0,0,.8-.091,3.365,3.365,0,0,0,1.074-.411A7.325,7.325,0,0,0,385-97.508l0-.039" transform="translate(-238.608 290.205)" fill="#33535f"/>
      <path id="path220" d="M385.515-97.093a7.324,7.324,0,0,0-3.314,5.74c0,2.114,1.484,2.97,3.314,1.913a7.325,7.325,0,0,0,3.314-5.74c0-2.114-1.484-2.971-3.314-1.914" transform="translate(-242.441 287.876)" fill="#273e47"/>
      <path id="path222" d="M191.137-168.183a14.223,14.223,0,0,0-1.009-2.607c-.043-.095-.09-.189-.138-.284a5.344,5.344,0,0,1,.072-5.035l.089-.16a5.7,5.7,0,0,0,.781-2.964,3.5,3.5,0,0,0-1.692-2.8,5.631,5.631,0,0,0-.785-.382,1.34,1.34,0,0,1-.851-1.243l.006-1.534-4.912-.019-.006,1.534a1.341,1.341,0,0,1-.861,1.237,5.606,5.606,0,0,0-.788.375,3.5,3.5,0,0,0-1.713,2.789,5.692,5.692,0,0,0,.757,2.969l.082.15a5.355,5.355,0,0,1,.041,5.046c-.049.095-.1.189-.139.283a13.969,13.969,0,0,0-1.03,2.6,12.284,12.284,0,0,0-.24,2.644l-.028,7.147a3.112,3.112,0,0,0,1.825,2.568,8.581,8.581,0,0,0,3.55,1.036,10.907,10.907,0,0,0,1.774.007,8.624,8.624,0,0,0,3.536-1.009,3.111,3.111,0,0,0,1.845-2.55l.02-5.17c0-.644.028-1.317.031-1.99a12.19,12.19,0,0,0-.216-2.636" transform="translate(-113.401 343.486)" fill="#33535f"/>
      <path id="path224" d="M203.2-164.943l.089-.161a5.664,5.664,0,0,0,.764-2.508,4.6,4.6,0,0,1-.466,1.015,9.692,9.692,0,0,1-2.214,2.31,4.2,4.2,0,0,0-1.882,2.549,3.154,3.154,0,0,0,1.477,2.63,25.563,25.563,0,0,1,2.577,1.81,6.287,6.287,0,0,1,.856,1.069c-.032-.267-.071-.532-.127-.789a14.222,14.222,0,0,0-1.009-2.606c-.043-.095-.09-.189-.138-.284a5.344,5.344,0,0,1,.072-5.035" transform="translate(-126.536 332.321)" fill="#273e47"/>
      <path id="path226" d="M187.23-183.86l0,.826a1.658,1.658,0,0,0,.973,1.371,5.219,5.219,0,0,0,4.719.019,2.246,2.246,0,0,0,.734-.635A1.246,1.246,0,0,0,193.9-183l0-.839a.881.881,0,0,0-.025-.224,1.786,1.786,0,0,0-.944-1.143l-.049-.026a5.228,5.228,0,0,0-4.67.007,1.8,1.8,0,0,0-.957,1.133.952.952,0,0,0-.026.233" transform="translate(-118.763 343.845)" fill="#26b6a6"/>
      <path id="path228" d="M190.578-178.013a4.831,4.831,0,0,1-2.379-.573,1.664,1.664,0,0,1-.973-1.359v-.012l0-.826a.984.984,0,0,1,.01-.146,1.583,1.583,0,0,0,.962,1.505,4.834,4.834,0,0,0,2.379.573,4.815,4.815,0,0,0,2.339-.555,1.68,1.68,0,0,0,.981-1.319l0,.8a1.246,1.246,0,0,1-.246.721,2.246,2.246,0,0,1-.734.635,4.828,4.828,0,0,1-2.34.554" transform="translate(-118.763 340.768)" fill="#1588bc"/>
      <path id="path230" d="M205.436-180.842v-.041a.9.9,0,0,0-.025-.22l0-.009a1.133,1.133,0,0,1,.022.271" transform="translate(-130.298 340.885)" fill="#babcba"/>
      <path id="path232" d="M187.262-181.089c0-.031.009-.061.016-.092,0,0,0,0,0,.005a.776.776,0,0,0-.017.087" transform="translate(-118.786 340.928)" fill="#babcba"/>
      <path id="path234" d="M190.587-179a4.834,4.834,0,0,1-2.379-.573,1.583,1.583,0,0,1-.962-1.505.772.772,0,0,1,.017-.087h0a1.8,1.8,0,0,0,.948,1.14,4.638,4.638,0,0,0,2.084.562q.15.008.3.008a4.791,4.791,0,0,0,2.334-.555,2.285,2.285,0,0,0,.734-.631,1.264,1.264,0,0,0,.219-.5h0a.9.9,0,0,1,.025.22v.041a1.68,1.68,0,0,1-.981,1.319,4.815,4.815,0,0,1-2.339.555" transform="translate(-118.77 340.919)" fill="#077cb2"/>
      <path id="path236" d="M187.241-186.5l0,.5a.972.972,0,0,0,.025.233,1.8,1.8,0,0,0,.948,1.14,4.638,4.638,0,0,0,2.084.562,4.93,4.93,0,0,0,2.635-.547,2.284,2.284,0,0,0,.734-.631,1.265,1.265,0,0,0,.219-.5.92.92,0,0,0,.027-.226l0-.513a1.654,1.654,0,0,0-.97-1.367c-.058-.033-.116-.065-.177-.095a5.249,5.249,0,0,0-4.541.077,1.657,1.657,0,0,0-.983,1.366" transform="translate(-118.771 345.518)" fill="#26b6a6"/>
      <path id="path238" d="M190.6-180.735c-.1,0-.2,0-.3-.008a4.638,4.638,0,0,1-2.084-.562,1.8,1.8,0,0,1-.948-1.14.969.969,0,0,1-.025-.23v0l0-.5v-.007c0,1.055,1.491,1.914,3.329,1.921h.023c1.822,0,3.3-.841,3.32-1.887l0,.506a.919.919,0,0,1-.027.226,1.264,1.264,0,0,1-.219.5,2.285,2.285,0,0,1-.734.631,4.791,4.791,0,0,1-2.334.555" transform="translate(-118.771 342.197)" fill="#1e8ec2"/>
      <path id="path240" d="M187.245-186.512c0,1.058,1.486,1.923,3.329,1.93s3.339-.845,3.343-1.9-1.486-1.924-3.329-1.931-3.339.845-3.343,1.9" transform="translate(-118.775 345.518)" fill="#278bb9"/>
      <path id="path242" d="M193.216-189.744l-.007,1.727.009.081a.621.621,0,0,0,.329.4,1.6,1.6,0,0,0,.722.195,1.709,1.709,0,0,0,.914-.189.8.8,0,0,0,.255-.219.442.442,0,0,0,.076-.172l.009-.078.007-1.733a.574.574,0,0,0-.336-.474l-.061-.033a1.82,1.82,0,0,0-1.574.026.575.575,0,0,0-.341.473" transform="translate(-122.558 346.782)" fill="#26b6a6"/>
      <path id="path244" d="M194.372-186.191l-.1,0a1.6,1.6,0,0,1-.722-.195.621.621,0,0,1-.329-.4l-.009-.081.007-1.727v0c0,.365.517.663,1.153.666h.008c.635,0,1.149-.294,1.151-.66v0l-.007,1.733-.009.078a.442.442,0,0,1-.076.172.8.8,0,0,1-.255.219,1.666,1.666,0,0,1-.809.192" transform="translate(-122.558 345.63)" fill="#1486bb"/>
      <path id="path246" d="M193.228-189.749c0,.367.515.667,1.153.669s1.157-.293,1.159-.66-.515-.667-1.154-.669-1.157.293-1.158.66" transform="translate(-122.57 346.782)" fill="#2084b2"/>
      <path id="path248" d="M195.678-188.765h0c-.227,0-.41-.107-.41-.237s.183-.235.408-.235h0c.227,0,.41.107.41.237s-.184.235-.409.235" transform="translate(-123.863 346.038)" fill="#0779ae"/>
      <path id="path250" d="M453.479-185.52a35.14,35.14,0,0,1-11.073-1.642,11.76,11.76,0,0,1-4.458-2.37,5.435,5.435,0,0,1-1.8-3.823,3.938,3.938,0,0,1,.067-.735c.438-2.322,2.8-3.751,5.047-4.476,7.26-2.341,15.675-.549,22.323-4.288a7.538,7.538,0,0,0,3.77-4.151c.378-1.288.222-2.681.554-3.981.687-2.685,3.6-4.422,6.365-4.422a5.888,5.888,0,0,1,2.044.352c4,1.483,8.114,4.722,8.741,9.115a10.293,10.293,0,0,1,.1,1.453c0,4.316-2.672,8.45-6.162,11.105a40.6,40.6,0,0,1-16.4,7.1,59.992,59.992,0,0,1-9.115.765" transform="translate(-276.66 362.638)" fill="#68abc9"/>
      <path id="path252" d="M538.9-456.592a9.965,9.965,0,0,1,7.88-.995c4.891-1.68,7.318-1.373,11.232-1.377.874,0,3.716-.281,4.255.211a2.866,2.866,0,0,1,.725,1.678l-1.736,4.62c-3.014.6-4.751,1.335-9.067,2.017-3.4.538-5.581.869-5.955,2.479a26.731,26.731,0,0,1-7.334-8.633" transform="translate(-341.841 517.184)" fill="#f5a784"/>
      <path id="path254" d="M592.62-484.094a3.79,3.79,0,0,0,.524-2.745c-.1-1.845-.779-5.345-1.056-6.934-.442-2.539-.94-4.069-1.3-6.1-.386-2.172-.156-3.314-.935-5.036-.71-1.569-5.481-2.039-6.465.056-.566,1.2,1.5,1.807,1.558,2.725,0,0-1.887-.589-1.488.567.481,1.4,2.264,1.315,2.48,3.1.3,2.512-.018,6.694-.018,10.5,0,1.57.788,6.184.788,6.184,1.957-.547,4.631-.713,5.911-2.316" transform="translate(-369.998 547.134)" fill="#f5a784"/>
      <path id="path256" d="M589.788-494.944l.726-2.3-6.422-1.248c.461.43,1.021.82,1.05,1.292,0,0-1.887-.59-1.488.567a1.929,1.929,0,0,0,.534.8,14.8,14.8,0,0,0,1.956.953c1.166.356,2.05.244,2.493-.442l1.15.381" transform="translate(-370.194 542.207)" fill="#db8c68"/>
      <path id="path258" d="M590.515-460.515a5.368,5.368,0,0,1,3.59,1.483s-.242-1.81-3.586-2.4c-.006.3-.012.6-.016.9l.011.02" transform="translate(-374.573 518.701)" fill="#db8c68"/>
      <path id="path260" d="M573.851-509l0-.016a2.7,2.7,0,0,0-3.3-1.918,2.69,2.69,0,0,0-1.225.713l-.017.016-.052.056-.06.064a5.455,5.455,0,0,0-1.169,4.617l0,.016,0,.014c.021.08.047.157.075.234l0,.006a2.7,2.7,0,0,0,3.228,1.677,2.688,2.688,0,0,0,.556-.217,2.492,2.492,0,0,0,.69-.5,5.424,5.424,0,0,0,1.28-4.738l-.009-.027" transform="translate(-360.231 550.157)" fill="#33535f"/>
      <path id="path262" d="M574.287-508.568a5.424,5.424,0,0,0-1.28,4.738c.4,1.512,1.627,1.843,2.736.739a5.426,5.426,0,0,0,1.28-4.738c-.4-1.512-1.627-1.843-2.735-.739" transform="translate(-363.393 549.013)" fill="#273e47"/>
      <path id="path264" d="M587.323-500.828h0l-.006,0-.017,0-9.261-2.57v0a.646.646,0,0,0-.65.225,2.082,2.082,0,0,0-.491,1.82.655.655,0,0,0,.434.52l9.268,2.572h0a.652.652,0,0,0,.641-.229,2.082,2.082,0,0,0,.491-1.82.668.668,0,0,0-.41-.512" transform="translate(-365.912 545.337)" fill="#17282f"/>
      <path id="path266" d="M602.31-494.311a.574.574,0,0,0,1.051.284,2.082,2.082,0,0,0,.491-1.82.574.574,0,0,0-1.051-.284,2.083,2.083,0,0,0-.491,1.82" transform="translate(-382.031 540.869)" fill="#33535f"/>
      <path id="path268" d="M588.294-505.218c-.425-1.244-.283-1.5-1.316-1.725s-1.037-1.082-2.068-.961a9.513,9.513,0,0,1-2.26.329c-.459-.14-1.373.356-1.8,1.044a4.193,4.193,0,0,0-.357,2.406c.058.7.8,1.526,2.216,2.106,1.391.568,3.479,1.44,3.928.279l-.584-.162a2.117,2.117,0,0,1-.07-1.454,2.131,2.131,0,0,1,.866-1.089l.724.2.719-.974" transform="translate(-368.205 548.185)" fill="#f5a784"/>
      <path id="path270" d="M603.936-500.711l0-.016a2.7,2.7,0,0,0-3.305-1.917,2.682,2.682,0,0,0-1.225.712l-.018.016-.052.057-.059.063a5.457,5.457,0,0,0-1.17,4.618l0,.015,0,.014c.021.08.047.158.075.235l0,.006a2.7,2.7,0,0,0,3.228,1.677,2.656,2.656,0,0,0,.556-.218,2.477,2.477,0,0,0,.69-.5,5.423,5.423,0,0,0,1.28-4.738l-.008-.027" transform="translate(-379.314 544.899)" fill="#33535f"/>
      <path id="path272" d="M604.373-500.279a5.421,5.421,0,0,0-1.28,4.737c.4,1.512,1.626,1.843,2.735.739a5.423,5.423,0,0,0,1.28-4.738c-.4-1.512-1.626-1.843-2.735-.739" transform="translate(-382.478 543.755)" fill="#273e47"/>
      <path id="path274" d="M449.427-156.7c-.162.053-.186.985-.04,1.292a4.848,4.848,0,0,0,3.25,1.868,25.989,25.989,0,0,0,6.146-.074,58.467,58.467,0,0,1,6.3.561,5.072,5.072,0,0,0,4.119-.858,1.28,1.28,0,0,0,.289-1.013c-.034-.811-.11-.975-.2-.967l-19.86-.808" transform="translate(-284.998 325.4)" fill="#273e47"/>
      <path id="path276" d="M469.2-168.053c.038.16.073.32.1.482a8.122,8.122,0,0,1,.179,2.5,2.268,2.268,0,0,1-1.478,1.117,7.651,7.651,0,0,1-4.154.082,29.35,29.35,0,0,0-4.877-.3,30.094,30.094,0,0,1-4.264.211,10.172,10.172,0,0,1-3.137-.639c-.844-.361-1.7-.823-1.909-1.691a2.858,2.858,0,0,1,1.586-2.852c1.546-.9,3.522-.919,5.263-.971a9.421,9.421,0,0,0,4.093-.717,17.556,17.556,0,0,1,1.917-1.093,4.9,4.9,0,0,1,1.468-.071c1.086-.024,2.172-.048,3.258-.057.293,0,.592-.017.884.007.585.049.691,2.068.764,2.462.057.309.067.639.15.938.055.2.107.4.155.6" transform="translate(-285.232 335.143)" fill="#33535f"/>
      <path id="path278" d="M472.71-167.705a3.621,3.621,0,0,0-1.3,2.247c.031.61-1.045.665-1.076.054a3.229,3.229,0,0,1,.941-2.056,2.344,2.344,0,0,1,1.437-.245" transform="translate(-298.344 332.405)" fill="#fafaf9"/>
      <path id="path280" d="M466.549-167.016a2.542,2.542,0,0,0-1.047,1.971c-.015.451-.954.411-.94-.039a3.334,3.334,0,0,1,.857-1.9c.3-.208,1.031-.213,1.129-.035" transform="translate(-294.685 332.024)" fill="#fafaf9"/>
      <path id="path282" d="M529.85-207.331a4.353,4.353,0,0,0,.1,3.173,6.885,6.885,0,0,0,2.4,2.982,12.235,12.235,0,0,1,2.124,2.471,10.566,10.566,0,0,0,2.217,2.661,4.333,4.333,0,0,0,3.5.182c.91-.4,1.211-.756,1.125-2.22-.084-1.431-4.539-1.875-4.539-1.875l-6.933-7.375" transform="translate(-335.942 357.516)" fill="#273e47"/>
      <path id="path284" d="M540.987-205.17c.379.135.489.85.575,2.276.065,1.079.55,2.65-.923,3.36a3.633,3.633,0,0,1-3.944-.755c-1.037-1.25-1.743-2.354-3.217-3.875-1.28-1.319-2.592-1.746-3.2-4.422a2.239,2.239,0,0,1,1.5-2.938c1.585-.713,3.781.99,4.927,1.765.928.627,3.906,4.452,4.285,4.587" transform="translate(-336.301 360.282)" fill="#33535f"/>
      <path id="path286" d="M541.645-206.7c-.068-.018-.14-.042-.216-.07a4.144,4.144,0,0,0-3.435,2.353c-.205.477.464.832.849.456a4.425,4.425,0,0,1,3.433-2.339,1.853,1.853,0,0,0-.631-.4" transform="translate(-341.24 357.158)" fill="#fafaf9"/>
      <path id="path288" d="M545.336-204.4a4.114,4.114,0,0,0-3.189,2.329c-.205.477.463.832.849.456a4.237,4.237,0,0,1,2.858-2.224c-.177-.2-.352-.391-.518-.56" transform="translate(-343.875 355.654)" fill="#fafaf9"/>
      <path id="path290" d="M535.756-345.938c-.246-5.246.322-14.435.263-20.894,1.667-5.68.5-8.073-.969-10.876a50.977,50.977,0,0,0-3.665-6.171L527.959-369.5l-5.476,5.819s3.262,16.913,4.066,20.561c.682,3.1,4.4,28.966,4.4,28.966.345,1.685,4.267,1.9,5.2.708.261-5.74,1.307-22.061,1.324-23.9a18.918,18.918,0,0,0-1.723-8.589" transform="translate(-331.426 469.505)" fill="#f5a784"/>
      <path id="path292" d="M487.659-350.619s-2.169,31.076-2.169,37.245c0,2.36-1.285,29.075-1.285,29.075-.011.694.646,1.213,2.251,1.143,2.288-.1,3.582-.524,3.676-.956.069-.313,3.572-14.971,4.482-19.758a36.439,36.439,0,0,0,.381-10.83c1.292-6.874,3.906-21.859,4.511-26.775.519-4.227-11.846-9.144-11.846-9.144" transform="translate(-307.145 448.407)" fill="#f5a784"/>
      <path id="path294" d="M489.3-385.659c-1.105,6.693-1.306,8.775-2.119,17.358-.633,6.679-1.025,25.985-1.054,28.681s-.543,19.362-.543,19.362,5.036,1.9,8.242.491c0,0,1.419-5.8,2.033-8.433a28.39,28.39,0,0,0,.426-10.46l3.656-22.718s2.919,16.324,3.793,20.965,1.711,9.15,1.711,9.15a11.309,11.309,0,0,0,4.274.677,6.939,6.939,0,0,0,4.055-1.5s.43-6.152.446-8.237a18.084,18.084,0,0,0-1.677-8.427L513-369.572a12.49,12.49,0,0,0,.472-7.312c-1.308-4.519-5.292-11.315-5.292-11.315l-18.884,2.54" transform="translate(-308.018 472.245)" fill="#2a3c44"/>
      <path id="path296" d="M524.852-330.222l1.471-5.406s4.533-.357,6.942-3.485c-.774,1.47-1.513,3.2-5.6,4.761l-1.428,5.513,2.115,18.012-3.5-19.4" transform="translate(-332.929 441.108)" fill="#19262b"/>
      <path id="path298" d="M514.447-446.319c-.308-2.179-1.084-4.822-3.183-5.727s-5.879-.55-5.879-.55c-.3.993-3.918,2.266-5.7.548-1.735.366-3.866.762-6.2,1.33-1.853.451-2.936,7.467-4.156,9.729-1.434,2.656.388,5.381,2.21,6.776,0,0-.049,4.243-.189,7.662,3.2,2.678,9.173,3.408,13.788,2.2,3.476-.906,4.842-1.986,5.132-3.336.227-1.057.841-4.468,1.35-6.308,1.174-4.235,3.244-9.427,2.833-12.329" transform="translate(-310.064 513.138)" fill="#f5a784"/>
      <path id="path300" d="M510.606-452.047c-2.1-.905-5.879-.55-5.879-.55-.3.993-3.918,2.266-5.7.548-1.735.366-3.866.762-6.2,1.33-1.853.451-3.872,4.927-4.9,9.5a6.973,6.973,0,0,0,2.839,6.912s.05,1.237.073,2.816a22.649,22.649,0,0,0,14.176,1.5,17.652,17.652,0,0,0,5.475-2.015c.12-.35.24-.91,1.022-3.171s2.7-8.237,2.286-11.139c-.308-2.179-1.084-4.822-3.183-5.727" transform="translate(-309.407 513.138)" fill="#bad4df"/>
      <path id="path302" d="M474.272-447.382c-2.811-.187-5.916.663-7.163,6.2-.977,1.4-2.505,3.06-3.878,5.19-1.562,2.424-2.443,4.526-3.9,7.191-1.419,2.839-.786,3.69.614,4.995,1.282,1.194,9.117,6.332,9.582,6.932s.008,6.412.845,7.239l.009.013c.021-.179.159-.93.377-1.867a17.412,17.412,0,0,1,1.943-4.21,6.134,6.134,0,0,0,1.142-3.911c-.111-.764-1.205-1.3-1.96-2.023-1.977-1.885-5.719-5.568-5.719-5.568l9.025-10.14c1.544-2.025,2.439-8.191-.914-10.036" transform="translate(-290.857 509.801)" fill="#f5a784"/>
      <path id="path304" d="M472.258-390.311a11.472,11.472,0,0,0,2.612-1.855l.455.548a6.187,6.187,0,0,1-3.068,1.308" transform="translate(-299.566 474.762)" fill="#db8c68"/>
      <path id="path306" d="M498.254-515.4l0-.035a2.473,2.473,0,0,1,.529-1.892,2.98,2.98,0,0,1,1.272-.642c1.253-.4,2.506-.79,3.772-1.137a19.015,19.015,0,0,1,7.342-.825,8.536,8.536,0,0,1,6.222,3.613,2.916,2.916,0,0,1,.518,1.206c.02.289-.094.556-.08.849.042.912.478,1.8.6,2.705a20.59,20.59,0,0,1,.144,2.932c-.019,4.048-9.514,6.265-9.45,9.043l-4.733-6.3c.011-.253-.667-.914-.818-1.135-.282-.414-.529-.856-.786-1.287-.8-1.34-2.153-2.048-3.085-3.259a6.993,6.993,0,0,1-1.45-3.834" transform="translate(-316.051 555.869)" fill="#17282f"/>
      <path id="path308" d="M500.541-488.055s-1.725,2.336-1.525,2.6a3.9,3.9,0,0,0,1.218.58l.307-3.18" transform="translate(-316.53 535.587)" fill="#db8c68"/>
      <path id="path310" d="M507.77-509.184c-1.609.73-4.4,2.089-5.346,7.76-.975,5.822.262,7.914,1.04,8.717.526.542,3.346.854,4.84.468,1.87-.483,5.954-2.25,7.96-5.188,2.361-3.458,3.024-8.175.56-10.144a9.662,9.662,0,0,0-9.055-1.613" transform="translate(-318.475 549.306)" fill="#f5a784"/>
      <path id="path312" d="M516.857-464.654l-.072,4.694c1.588,2.1,7.459,1.743,7.165-.836l.117-4.9-7.21,1.044" transform="translate(-327.812 521.405)" fill="#f5a784"/>
      <path id="path314" d="M506.293-463.945a8.183,8.183,0,0,0,3.9.489l.034-1.058a10.346,10.346,0,0,1-1.893.527,6.7,6.7,0,0,1-2.041.042" transform="translate(-321.156 520.654)" fill="#db8c68"/>
      <path id="path316" d="M511.046-511.278a6.193,6.193,0,0,0-1.878.975,2.488,2.488,0,0,0-.686.8,1.949,1.949,0,0,0-.173.936,2.521,2.521,0,0,0,1.383,2.1,2.449,2.449,0,0,0-.486,2.019,4.863,4.863,0,0,0,1.352,2.142.313.313,0,0,0,.116.093.319.319,0,0,0,.263-.067c1.018-.618,1.679-1.734,3.057-1.214,1.808.683,1.831,2.467.676,4a2.44,2.44,0,0,1-1.765,1.113,1.362,1.362,0,0,1-1.13-.376s.155,3.4,2.673,4.681c0,0,2.586.924,4.235-.052,1.031-1.742,2.743-2.861,3.915-4.409,3.068-4.049,5.744-10.88-.656-13.288-.221-.083-.444-.159-.668-.23a13.8,13.8,0,0,0-6.378-.417,13.82,13.82,0,0,0-3.089.893c-.257.108-.511.2-.762.3" transform="translate(-322.433 551.196)" fill="#17282f"/>
      <path id="path318" d="M559.2-487.087h0a7.057,7.057,0,0,1-7.056-7.057v-11.519a7.057,7.057,0,0,1,7.056,7.057v11.518" transform="translate(-350.243 546.756)" fill="#17282f"/>
      <path id="path320" d="M512.412-483.248a1.357,1.357,0,0,1-.756-1.78,1.393,1.393,0,0,1,1.809-.741l-1.054,2.52" transform="translate(-324.492 534.202)" fill="#17282f"/>
      <path id="path322" d="M550.675-509.549a1.2,1.2,0,0,0,1.7-.162,1.23,1.23,0,0,0-.187-1.716l-1.513,1.879" transform="translate(-349.309 550.413)" fill="#17282f"/>
      <path id="path324" d="M146.942-527.689l-2.069-3.89,1.665-4.8v-2.941l-5.094,2.941v2.941l2.19,3.793a.319.319,0,0,0,.149.132v0l3.16,1.826" transform="translate(-89.722 568.109)" fill="#26b6a6"/>
      <path id="path326" d="M149.7-514.284l-3.138-1.814v0h0a.32.32,0,0,1-.149-.132l-.588-1.018,1.6-.922,2.185,3.785a.332.332,0,0,0,.092.1" transform="translate(-92.501 554.691)" fill="#0e78a8"/>
      <path id="path328" d="M107.746-577.389a3.378,3.378,0,0,0-1.528-2.646l-1.244-.717a3.372,3.372,0,0,0-3.055,0L65.768-559.8a3.376,3.376,0,0,0-1.527,2.646v10.482a3.377,3.377,0,0,0,1.527,2.646l1.243.718a3.376,3.376,0,0,0,3.055,0L95.67-558.1l2.185,3.785a.326.326,0,0,0,.591-.056l2.31-6.668,5.462-3.222a3.374,3.374,0,0,0,1.527-2.646v-10.483" transform="translate(-40.75 594.619)" fill="#2283af"/>
      <path id="path330" d="M64.241-515.688c0-.018,0-.036,0-.053,0,.018,0,.036,0,.053" transform="translate(-40.75 553.149)" fill="#c3c5c2"/>
      <path id="path332" d="M68.529-504a3.1,3.1,0,0,1-1.518-.363h0l-1.243-.718a3.377,3.377,0,0,1-1.527-2.646v-10.482h0c0-.018,0-.036,0-.053a3.161,3.161,0,0,1,.447-1.452l.005,0h0l1.16.669,3.133,1.809a3.123,3.123,0,0,0-.447,1.505v10.483c0,.69.344,1.089.845,1.089a1.194,1.194,0,0,0,.422-.084,3.339,3.339,0,0,1-1.276.24" transform="translate(-40.75 555.668)" fill="#0e78a8"/>
      <path id="path334" d="M145.744-575.686l7.873-4.563q.071-.04.146-.077-.074.036-.143.076l-7.876,4.564m13.223-2.759a3.333,3.333,0,0,0-.777-.9,3.288,3.288,0,0,1,.777.9" transform="translate(-92.449 594.117)" fill="#fff"/>
      <path id="path336" d="M69.774-556.175l-3.137-1.81-1.16-.669a3.08,3.08,0,0,1,1.076-1.14l28.275-16.388,7.876-4.564q.069-.04.143-.076a3.279,3.279,0,0,1,1.385-.287,3.125,3.125,0,0,1,1.526.363l1.247.72a2.263,2.263,0,0,1,.27.182,3.333,3.333,0,0,1,.777.9,3.345,3.345,0,0,1,.429,1.124.8.8,0,0,0-.792-.657,1.392,1.392,0,0,0-.683.209L70.85-557.315a3.025,3.025,0,0,0-1.076,1.14" transform="translate(-41.535 594.614)" fill="#5ea7c8"/>
      <path id="path338" d="M66.637-519.035l-1.16-.669h0l1.16.669" transform="translate(-41.534 555.663)" fill="#58c6b3"/>
      <path id="path340" d="M80.7-509.169a.288.288,0,0,1-.037-.2.655.655,0,0,1,.08-.249l1.57-2.761c.039-.067.086-.147.142-.239a.56.56,0,0,1,.193-.2l.891-.514a.107.107,0,0,1,.139.01.242.242,0,0,1,.058.18v7.261a.576.576,0,0,1-.058.247.369.369,0,0,1-.139.17l-.956.552a.106.106,0,0,1-.139-.01.24.24,0,0,1-.058-.179v-4.913l-.869,1.514a.3.3,0,0,1-.146.146.1.1,0,0,1-.131-.042l-.54-.767" transform="translate(-51.166 551.637)" fill="#fafaf9"/>
      <path id="path342" d="M91.2-500.04a1.211,1.211,0,0,1,.091-.351.531.531,0,0,1,.223-.269l.9-.518a.086.086,0,0,1,.113.007.2.2,0,0,1,.048.147l-.008.083L92-498.375a1.73,1.73,0,0,1-.1.293.5.5,0,0,1-.215.248l-.548.316-.113-.008a.194.194,0,0,1-.048-.147v-.022l.226-2.345" transform="translate(-57.707 543.922)" fill="#fafaf9"/>
      <path id="path344" d="M101.055-520.83a4.9,4.9,0,0,1-.044.655,4.194,4.194,0,0,1-.15.677,6.07,6.07,0,0,1-.277.727,8.64,8.64,0,0,1-.42.8l-1.022,1.782,1.832-1.058a.106.106,0,0,1,.139.01.239.239,0,0,1,.058.179v1.192a.573.573,0,0,1-.058.247.368.368,0,0,1-.139.17l-3.855,2.226a.105.105,0,0,1-.139-.01.237.237,0,0,1-.058-.179v-.967a1.755,1.755,0,0,1,.047-.387,1.324,1.324,0,0,1,.165-.4l2.183-3.665a2.838,2.838,0,0,0,.321-.72,2.223,2.223,0,0,0,.066-.5,1.621,1.621,0,0,0-.018-.209.572.572,0,0,0-.084-.232.3.3,0,0,0-.185-.135.463.463,0,0,0-.325.086,1.039,1.039,0,0,0-.332.3,1.738,1.738,0,0,0-.2.355,2.054,2.054,0,0,0-.1.334c-.022.106-.037.184-.047.235a.644.644,0,0,1-.113.274.663.663,0,0,1-.179.154l-.9.518-.113-.008a.2.2,0,0,1-.047-.147,4.831,4.831,0,0,1,.131-1.014,5.16,5.16,0,0,1,.376-1.065,4.7,4.7,0,0,1,.628-.981,3.261,3.261,0,0,1,.887-.748,1.7,1.7,0,0,1,.851-.272.917.917,0,0,1,.617.229,1.379,1.379,0,0,1,.376.626,3.068,3.068,0,0,1,.128.921" transform="translate(-61.481 557.503)" fill="#fafaf9"/>
      <path id="path346" d="M110.226-510.995a1.182,1.182,0,0,1,.091-.351.532.532,0,0,1,.222-.269l.9-.518.113.007a.194.194,0,0,1,.048.147l-.008.083-.569,2.566a1.746,1.746,0,0,1-.1.293.5.5,0,0,1-.215.248l-.548.316-.113-.008a.2.2,0,0,1-.048-.147v-.022l.227-2.345" transform="translate(-69.776 550.86)" fill="#fafaf9"/>
      <path id="path348" d="M119.755-535.273a.106.106,0,0,1,.139.01.24.24,0,0,1,.058.179v1.192a.693.693,0,0,1-.051.254c-.034.087-.066.161-.1.223l-.883,1.882a1.026,1.026,0,0,1,.927.223,1.6,1.6,0,0,1,.358,1.2,4.337,4.337,0,0,1-.569,2.24,4.3,4.3,0,0,1-1.592,1.56,2.44,2.44,0,0,1-.93.346,1.138,1.138,0,0,1-.683-.112,1.021,1.021,0,0,1-.427-.467,1.733,1.733,0,0,1-.157-.724.464.464,0,0,1,.048-.2.3.3,0,0,1,.113-.138l.92-.531q.153-.089.234-.028t.179.127a.552.552,0,0,0,.256.083.838.838,0,0,0,.449-.153,1.885,1.885,0,0,0,.581-.515,1.164,1.164,0,0,0,.23-.706q0-.393-.23-.441a.872.872,0,0,0-.581.155l-.606.35a.106.106,0,0,1-.139-.009.241.241,0,0,1-.059-.18v-.967a.687.687,0,0,1,.051-.254c.034-.088.068-.167.1-.239l.774-1.65-1.905,1.1a.106.106,0,0,1-.138-.01.239.239,0,0,1-.059-.179v-1.192a.573.573,0,0,1,.059-.247.368.368,0,0,1,.138-.17l3.49-2.015" transform="translate(-73.486 565.552)" fill="#fafaf9"/>
      <path id="path350" d="M131.017-521.411a.581.581,0,0,1-.059.247.367.367,0,0,1-.139.17l-.956.552a.105.105,0,0,1-.138-.01.238.238,0,0,1-.058-.179V-522.1a.57.57,0,0,1,.058-.247.368.368,0,0,1,.138-.17l.956-.552a.107.107,0,0,1,.139.01.243.243,0,0,1,.059.18v1.472" transform="translate(-82.251 557.813)" fill="#fafaf9"/>
      <path id="path352" d="M136.745-524.719a.574.574,0,0,1-.059.247.37.37,0,0,1-.139.17l-.956.552a.106.106,0,0,1-.139-.01.239.239,0,0,1-.059-.179v-1.472a.576.576,0,0,1,.059-.248.368.368,0,0,1,.139-.17l.956-.552a.106.106,0,0,1,.139.009.241.241,0,0,1,.059.18v1.472" transform="translate(-85.885 559.911)" fill="#fafaf9"/>
      <path id="path354" d="M142.475-528.027a.574.574,0,0,1-.059.247.367.367,0,0,1-.139.17l-.957.552a.106.106,0,0,1-.138-.01.239.239,0,0,1-.059-.179v-1.473a.58.58,0,0,1,.059-.248.372.372,0,0,1,.138-.169l.957-.552a.106.106,0,0,1,.139.009.241.241,0,0,1,.059.18v1.472" transform="translate(-89.519 562.01)" fill="#fafaf9"/>
      <path id="path356" d="M148.78-549.4a1.5,1.5,0,0,0-.416.347,1.884,1.884,0,0,0-.274.445,2.316,2.316,0,0,0-.157.507,4.836,4.836,0,0,0-.073.536c-.01.1-.016.241-.018.415s0,.352,0,.536,0,.362.007.535.01.308.015.4a2.336,2.336,0,0,0,.069.455.774.774,0,0,0,.161.323.379.379,0,0,0,.277.126.794.794,0,0,0,.412-.131,1.776,1.776,0,0,0,.357-.274,1.741,1.741,0,0,0,.293-.382,2.064,2.064,0,0,0,.2-.5,2.418,2.418,0,0,0,.073-.615l-.613.354a.105.105,0,0,1-.139-.01.241.241,0,0,1-.059-.179V-547.7a.581.581,0,0,1,.059-.247.373.373,0,0,1,.139-.17l1.766-1.02a.106.106,0,0,1,.139.01.243.243,0,0,1,.058.18v1.439a5.517,5.517,0,0,1-.175,1.394,5.7,5.7,0,0,1-.481,1.25,5.015,5.015,0,0,1-.72,1.028,3.766,3.766,0,0,1-.894.729,1.9,1.9,0,0,1-.938.3,1.066,1.066,0,0,1-.7-.251,1.56,1.56,0,0,1-.45-.713,3.776,3.776,0,0,1-.178-1.071q-.015-.453-.015-.981t.015-1.02a5.83,5.83,0,0,1,.175-1.276,6.052,6.052,0,0,1,.449-1.232,5.059,5.059,0,0,1,.7-1.064,3.651,3.651,0,0,1,.942-.785,1.93,1.93,0,0,1,.92-.3,1.192,1.192,0,0,1,.694.184,1.3,1.3,0,0,1,.445.518,1.753,1.753,0,0,1,.175.7.376.376,0,0,1-.044.2.316.316,0,0,1-.117.14l-.971.561c-.074.042-.13.042-.172,0s-.081-.088-.12-.133a.59.59,0,0,0-.277-.211.689.689,0,0,0-.533.139" transform="translate(-92.926 575.832)" fill="#fafaf9"/>
      <path id="path358" d="M161.832-549.419a.724.724,0,0,0,.2.552c.119.093.276.082.471-.03a1.225,1.225,0,0,0,.471-.514,1.884,1.884,0,0,0,.2-.784c.01-.118.015-.249.015-.391s0-.268-.015-.374a.723.723,0,0,0-.2-.552q-.179-.139-.471.03a1.225,1.225,0,0,0-.471.514,1.882,1.882,0,0,0-.2.785q-.014.177-.014.391C161.817-549.65,161.822-549.525,161.832-549.419Zm2.657-2.344q.008.165.008.429t-.008.437a4.815,4.815,0,0,1-.16,1.1,5.262,5.262,0,0,1-.4,1.058,4.391,4.391,0,0,1-.617.912,3.2,3.2,0,0,1-.806.668,1.708,1.708,0,0,1-.806.263.925.925,0,0,1-.617-.2,1.354,1.354,0,0,1-.4-.595,2.824,2.824,0,0,1-.161-.918q-.007-.165-.007-.429t.007-.437a4.584,4.584,0,0,1,.153-1.1,5.217,5.217,0,0,1,.405-1.06,4.637,4.637,0,0,1,.621-.92,3.135,3.135,0,0,1,.806-.674,1.652,1.652,0,0,1,.806-.258.971.971,0,0,1,.621.2,1.306,1.306,0,0,1,.4.594,2.923,2.923,0,0,1,.157.922" transform="translate(-101.816 577.089)" fill="#fafaf9"/>
      <path id="path360" d="M174.643-556.6a.568.568,0,0,1-.059.247.365.365,0,0,1-.138.17l-.92.531a.106.106,0,0,1-.138-.01.239.239,0,0,1-.059-.179v-1.136a.575.575,0,0,1,.059-.247.368.368,0,0,1,.138-.17l.92-.531a.106.106,0,0,1,.138.01.237.237,0,0,1,.059.179Zm0-2.417a.571.571,0,0,1-.059.248.364.364,0,0,1-.138.169l-.92.531a.106.106,0,0,1-.138-.01.24.24,0,0,1-.059-.18v-4.844a.573.573,0,0,1,.059-.247.369.369,0,0,1,.138-.17l.92-.531a.105.105,0,0,1,.138.01.237.237,0,0,1,.059.179v4.845" transform="translate(-109.948 583.809)" fill="#fafaf9"/>
      <path id="path362" d="M518.524-559.331l-2.069-3.89,1.664-4.8v-2.941l-5.094,2.941v2.941l2.19,3.793a.318.318,0,0,0,.149.133v0l3.16,1.826" transform="translate(-325.427 588.18)" fill="#26b6a6"/>
      <path id="path364" d="M521.27-545.927l-3.136-1.812v0h0a.318.318,0,0,1-.149-.133l-.593-1.027,1.6-.914,2.185,3.786a.323.323,0,0,0,.09.1" transform="translate(-328.197 574.762)" fill="#0e78a8"/>
      <path id="path366" d="M506.655-614.312a3.376,3.376,0,0,0-1.527-2.645l-1.244-.718a3.375,3.375,0,0,0-3.055,0L475.04-602.835a3.376,3.376,0,0,0-1.528,2.646v10.482a3.376,3.376,0,0,0,1.528,2.646l1.244.718a3.375,3.375,0,0,0,3.055,0l11.822-6.747,2.185,3.786a.326.326,0,0,0,.591-.057l2.31-6.668,8.882-5.154a3.377,3.377,0,0,0,1.527-2.646v-10.483" transform="translate(-300.362 618.04)" fill="#2283af"/>
      <path id="path368" d="M476.283-537.2h0l-1.244-.718a3.377,3.377,0,0,1-1.528-2.646h0a3.376,3.376,0,0,0,1.528,2.646l1.244.718h0" transform="translate(-300.362 568.892)" fill="#c3c5c2"/>
      <path id="path370" d="M477.8-557.628a3.1,3.1,0,0,1-1.517-.363h0l-1.244-.718a3.376,3.376,0,0,1-1.528-2.646v-10.482a3.121,3.121,0,0,1,.448-1.505l0,0h0l1.951,1.126,2.342,1.352a3.123,3.123,0,0,0-.448,1.506v10.482c0,.691.343,1.089.844,1.089a1.192,1.192,0,0,0,.422-.084,3.338,3.338,0,0,1-1.276.24" transform="translate(-300.362 589.686)" fill="#0e78a8"/>
      <path id="path372" d="M530.892-613.544l6.331-3.644c.054-.031.109-.06.167-.086-.057.026-.111.055-.164.085l-6.334,3.645m11.682-1.839a3.286,3.286,0,0,0-.831-.944,3.239,3.239,0,0,1,.831.944" transform="translate(-336.76 617.555)" fill="#fff"/>
      <path id="path374" d="M479.046-599.208l-2.345-1.353-1.951-1.126a3.085,3.085,0,0,1,1.076-1.14l19.454-11.2,6.334-3.645c.053-.03.108-.059.164-.085a3.291,3.291,0,0,1,1.364-.277,3.125,3.125,0,0,1,1.526.364l1.247.72a2.267,2.267,0,0,1,.215.141,3.285,3.285,0,0,1,.831.944,3.355,3.355,0,0,1,.428,1.123.8.8,0,0,0-.792-.658,1.389,1.389,0,0,0-.683.208l-25.793,14.842a3.025,3.025,0,0,0-1.076,1.14" transform="translate(-301.147 618.036)" fill="#5ea7c8"/>
      <path id="path376" d="M476.7-572.207l-1.951-1.126h0l1.951,1.126" transform="translate(-301.147 589.681)" fill="#58c6b3"/>
      <path id="path378" d="M490.648-563.038a.287.287,0,0,1-.037-.2.665.665,0,0,1,.08-.249l1.57-2.761c.039-.067.086-.147.142-.239a.556.556,0,0,1,.194-.2l.891-.514a.107.107,0,0,1,.139.01.243.243,0,0,1,.058.18v7.262a.578.578,0,0,1-.058.247.37.37,0,0,1-.139.17l-.956.552a.106.106,0,0,1-.139-.01.239.239,0,0,1-.059-.179v-4.912l-.869,1.513a.3.3,0,0,1-.146.146.1.1,0,0,1-.131-.042l-.54-.767" transform="translate(-311.206 585.808)" fill="#fafaf9"/>
      <path id="path380" d="M501.145-553.909a1.2,1.2,0,0,1,.091-.35.532.532,0,0,1,.223-.269l.9-.518a.086.086,0,0,1,.114.007.2.2,0,0,1,.047.147l-.007.083-.569,2.566a1.725,1.725,0,0,1-.1.293.5.5,0,0,1-.215.248l-.548.316-.113-.008a.193.193,0,0,1-.048-.147v-.022l.226-2.345" transform="translate(-317.747 578.093)" fill="#fafaf9"/>
      <path id="path382" d="M511-574.7a4.943,4.943,0,0,1-.044.655,4.25,4.25,0,0,1-.15.677,6.136,6.136,0,0,1-.277.727,8.67,8.67,0,0,1-.42.8l-1.021,1.782,1.832-1.058a.106.106,0,0,1,.139.01.239.239,0,0,1,.058.179v1.192a.573.573,0,0,1-.058.247.37.37,0,0,1-.139.17l-3.855,2.226a.105.105,0,0,1-.138-.01.237.237,0,0,1-.059-.179v-.967a1.768,1.768,0,0,1,.047-.387,1.347,1.347,0,0,1,.165-.4l2.183-3.665a2.835,2.835,0,0,0,.321-.72,2.221,2.221,0,0,0,.066-.5,1.67,1.67,0,0,0-.018-.209.585.585,0,0,0-.084-.232.306.306,0,0,0-.186-.135.466.466,0,0,0-.325.087,1.033,1.033,0,0,0-.333.3,1.748,1.748,0,0,0-.2.356,2.018,2.018,0,0,0-.1.334l-.047.236a.636.636,0,0,1-.113.273.664.664,0,0,1-.179.154l-.9.518-.113-.008a.2.2,0,0,1-.047-.147,4.823,4.823,0,0,1,.131-1.014,5.118,5.118,0,0,1,.376-1.065,4.691,4.691,0,0,1,.628-.981,3.261,3.261,0,0,1,.887-.748,1.7,1.7,0,0,1,.851-.272.917.917,0,0,1,.617.229,1.378,1.378,0,0,1,.376.626,3.08,3.08,0,0,1,.127.921" transform="translate(-321.521 591.674)" fill="#fafaf9"/>
      <path id="path384" d="M520.171-564.864a1.183,1.183,0,0,1,.092-.351.531.531,0,0,1,.222-.269l.9-.518.113.007a.2.2,0,0,1,.048.147l-.008.083-.569,2.566a1.757,1.757,0,0,1-.1.294.506.506,0,0,1-.215.248l-.548.316-.113-.008a.2.2,0,0,1-.048-.147v-.022l.227-2.345" transform="translate(-329.815 585.03)" fill="#fafaf9"/>
      <path id="path386" d="M529.7-589.142a.106.106,0,0,1,.139.01.242.242,0,0,1,.058.18v1.192a.694.694,0,0,1-.051.254q-.051.13-.1.223l-.883,1.881a1.026,1.026,0,0,1,.927.223,1.6,1.6,0,0,1,.358,1.2,4.337,4.337,0,0,1-.57,2.24,4.3,4.3,0,0,1-1.592,1.56,2.442,2.442,0,0,1-.93.346,1.138,1.138,0,0,1-.684-.112,1.02,1.02,0,0,1-.427-.467,1.737,1.737,0,0,1-.156-.724.46.46,0,0,1,.048-.2.294.294,0,0,1,.113-.138l.92-.531q.154-.088.234-.028t.179.128a.563.563,0,0,0,.255.083.844.844,0,0,0,.449-.153,1.877,1.877,0,0,0,.581-.515,1.162,1.162,0,0,0,.23-.706q0-.393-.23-.441a.874.874,0,0,0-.581.155l-.606.35a.106.106,0,0,1-.139-.009.241.241,0,0,1-.059-.18v-.967a.693.693,0,0,1,.052-.254c.034-.087.068-.167.1-.239l.774-1.65-1.905,1.1a.106.106,0,0,1-.139-.01.239.239,0,0,1-.058-.179v-1.192a.573.573,0,0,1,.058-.247.37.37,0,0,1,.139-.17l3.49-2.015" transform="translate(-333.527 599.723)" fill="#fafaf9"/>
      <path id="path388" d="M540.962-575.28a.58.58,0,0,1-.058.247.368.368,0,0,1-.139.17l-.956.552a.106.106,0,0,1-.138-.01.235.235,0,0,1-.059-.179v-1.473a.563.563,0,0,1,.059-.247.367.367,0,0,1,.138-.17l.956-.552a.106.106,0,0,1,.139.009.243.243,0,0,1,.058.18v1.473" transform="translate(-342.29 591.984)" fill="#fafaf9"/>
      <path id="path390" d="M546.691-578.588a.573.573,0,0,1-.059.247.371.371,0,0,1-.139.171l-.956.552a.106.106,0,0,1-.139-.01.238.238,0,0,1-.059-.179v-1.472a.575.575,0,0,1,.059-.248.368.368,0,0,1,.139-.17l.956-.552a.106.106,0,0,1,.139.009.241.241,0,0,1,.059.18v1.472" transform="translate(-345.925 594.082)" fill="#fafaf9"/>
      <path id="path392" d="M552.42-581.9a.572.572,0,0,1-.059.247.371.371,0,0,1-.139.17l-.957.552a.106.106,0,0,1-.138-.01.239.239,0,0,1-.059-.179v-1.472a.577.577,0,0,1,.059-.248.375.375,0,0,1,.138-.17l.957-.552a.106.106,0,0,1,.139.009.241.241,0,0,1,.059.18v1.472" transform="translate(-349.559 596.181)" fill="#fafaf9"/>
    </g>
  </g>
</svg>
