<svg xmlns="http://www.w3.org/2000/svg" width="283.585" height="226" viewBox="0 0 283.585 226">
  <g id="Training" transform="translate(-56.602 -204.06)">
    <g id="g10" transform="translate(56.602 204.06)">
      <g id="g12" transform="translate(0 0)">
        <path id="path16" d="M201.168-384.436c-44.6-3.339-56.631-7.457-76.335,4.481-5.211,3.158-43.748,26.507-49.028,74.4-4.7,42.616,19.8,78.65,25.445,86.948,63.659,93.623,226.244,61.652,248.244-25.994,10.61-42.268-10.442-101.6-37.856-127.285-11.419-10.7-18.569-10.523-42.5-10.35-14.7.107-35.73.214-67.972-2.2" transform="translate(-75.21 387.925)" fill="#03628e"/>
        <path id="path24" d="M160.373-142.146c-29.066,2.833-78.767,10.229-78.744,18.973.022,8.127,43,14.059,55.683,15.81,99.007,13.666,210.4-1.136,210.358-15.81-.042-13.851-99.376-27.539-187.3-18.973" transform="translate(-69.387 279.284)" fill="#2090c4"/>
        <path id="path26" d="M567.466-296.514c-.225.037-.433.076-.619.1l-.042.006a3.937,3.937,0,0,0-3.168,2.994,43.622,43.622,0,0,1-1.042-5.94c-.042-1.207-.612-17.387-.612-17.939s-2.185-4.473-2.263-4.789,0-1.1,1.026-1.736a1.94,1.94,0,0,1,1.815-.237s.948,2.763,1.5,2.763.316-.947.158-1.658a1.137,1.137,0,0,1,.316-1.1s.711,1.578,1.184,2.526-.815,4.315-.815,4.315.738,5.907.947,8.13c.237,2.526,1.06,8.729,1.06,9.519,0,.158.4,1.8.556,3.048" transform="translate(-339.759 380.726)" fill="#f5a784"/>
        <path id="path28" d="M489.231-87.669h94.261L567.7-95.407H505.018l-15.787,7.737" transform="translate(-299.907 251.346)" fill="#a2d1e6"/>
        <path id="path30" d="M633.251-84.531c-7.411,0-13.419-.235-13.419-.526s6.008-.527,13.419-.527,13.42.236,13.42.527-6.008.526-13.42.526" transform="translate(-373.769 245.791)" fill="#8fc2d9"/>
        <path id="path32" d="M558.069-328.161a3.592,3.592,0,0,0,3.255,3.575c.111.011.224.016.337.016a3.591,3.591,0,0,0,3.591-3.591,3.591,3.591,0,0,0-3.591-3.591c-.114,0-.227.005-.337.016a3.592,3.592,0,0,0-3.255,3.576" transform="translate(-338.839 385.012)" fill="#3884a7"/>
        <path id="path34" d="M556.52-328.161a3.552,3.552,0,0,0,.042.553,3.591,3.591,0,0,0,3.549,3.038c.114,0,.225-.005.337-.016a3.592,3.592,0,0,1-3.212-3.023,3.479,3.479,0,0,1-.043-.553,3.479,3.479,0,0,1,.043-.553,3.593,3.593,0,0,1,3.212-3.023c-.111-.011-.223-.016-.337-.016a3.592,3.592,0,0,0-3.549,3.039,3.552,3.552,0,0,0-.042.553" transform="translate(-337.963 385.012)" fill="#1e3946"/>
        <path id="path36" d="M575-328.161a3.591,3.591,0,0,0,3.255,3.575c.111.011.223.016.337.016a3.591,3.591,0,0,0,3.591-3.591,3.591,3.591,0,0,0-3.591-3.591c-.113,0-.226.005-.337.016A3.591,3.591,0,0,0,575-328.161" transform="translate(-348.416 385.012)" fill="#3884a7"/>
        <path id="path38" d="M573.453-328.161a3.559,3.559,0,0,0,.042.553,3.591,3.591,0,0,0,3.549,3.038q.17,0,.337-.016a3.592,3.592,0,0,1-3.213-3.023,3.53,3.53,0,0,1-.042-.553,3.53,3.53,0,0,1,.042-.553,3.593,3.593,0,0,1,3.213-3.023c-.111-.011-.224-.016-.337-.016a3.592,3.592,0,0,0-3.549,3.039,3.545,3.545,0,0,0-.042.553" transform="translate(-347.539 385.012)" fill="#1e3946"/>
        <path id="path40" d="M559.825-324.205a.518.518,0,0,0,.474.553h5.489a3.551,3.551,0,0,1-.042-.553,3.552,3.552,0,0,1,.042-.553H560.3a.518.518,0,0,0-.474.553" transform="translate(-339.832 381.056)" fill="#1e3946"/>
        <path id="path42" d="M571.126-274.146c.237,1.578,3.158,6.788,3.315,7.183.012.029.032.083.058.158.337.945,1.781,5.267,2.073,6,.316.79,1.815,3.789,1.815,3.789l10.814-1.42s-5.289-6.946-5.763-8.209a1,1,0,0,1-.039-.158c-.208-1.2-.1-7.05,0-12.6.032-1.7.062-3.364.082-4.862.039-2.775.043-4.965-.045-5.67a73.45,73.45,0,0,0-2.8-9.516c-.838-2.483-1.537-4.518-1.537-4.85,0-.79-.395-9.709-.631-12.235-.209-2.223-.71-7.578-.71-7.578s.553-3.315.079-4.262-1.184-2.526-1.184-2.526a1.138,1.138,0,0,0-.316,1.105c.158.711.394,1.658-.158,1.658s-1.5-2.868-1.5-2.868a2.212,2.212,0,0,0-1.815.342,2.254,2.254,0,0,0-.756,2.361c.079.315,2.493,3.638,2.493,4.19s-.752,17.027-.711,18.234a41.945,41.945,0,0,0,1.012,5.362c.413,1.8.9,3.763,1.346,5.511.024.093.049.186.072.279.015.053.028.105.041.156.271,1.048.525,2,.736,2.767.226.823.4,1.431.5,1.712.261.745.608,2.844.158,3.552l-.024.038c-.207.324-.909,1.431-1.782,2.864h0c-2.03,3.326-4.987,8.4-4.824,9.491" transform="translate(-346.22 384.626)" fill="#f5a784"/>
        <path id="path44" d="M571.126-216.126c.237,1.578,3.158,6.788,3.315,7.183.012.029.032.083.058.158h8.9c-.208-1.2-.1-7.05,0-12.6a18.994,18.994,0,0,1-1.3,4.093c-.861,1.153-3.408.814-4.507-1.285-1.756-3.351.029-9.55.134-9.908-.207.324-.909,1.431-1.782,2.864h0c-2.03,3.326-4.987,8.4-4.824,9.491" transform="translate(-346.22 326.607)" fill="#5a8395"/>
        <path id="path46" d="M569.776-247.053c.011.08.034.245.067.474.229,1.554.93,6.018,1.451,6.1a18.989,18.989,0,0,0,2.352.054h.069l.488,1.5.425,1.307.507,1.559.054-.066h0c.911-1.493,1.635-2.633,1.806-2.9.45-.708.1-2.807-.158-3.552-.19-.543-.678-2.305-1.24-4.479h-5.823" transform="translate(-345.46 337.11)" fill="#f5a784"/>
        <path id="path48" d="M574.03-246.578h-4.187c-.033-.229-.056-.394-.067-.474h3.9c.072.1.194.267.356.474" transform="translate(-345.46 337.11)" fill="#b77456"/>
        <path id="path50" d="M575.228-252.026a10.452,10.452,0,0,1-2.305-2.292c-.162-.206-.284-.374-.356-.473h-4.748a7.612,7.612,0,0,1,.034-.814c.017-.207.045-.444.086-.7a8.366,8.366,0,0,1,.291-1.227,3.937,3.937,0,0,1,3.168-2.994l.042-.006c.186-.027.395-.066.619-.1a6.789,6.789,0,0,1,.974-.1c.435,1.891,1,4.132,1.47,5.947h-.011c.27,1.047.524,2,.736,2.765" transform="translate(-344.352 344.85)" fill="#17282f"/>
        <path id="path52" d="M595.827-250.35c.088.7.083,2.895.045,5.669.784.8,1.832,1.116,3.568,1.167,3.526.1,3.42-3.473,3.42-3.473a2.04,2.04,0,0,1-2.578.052c-1.632-.947.842-4.736,1.315-8.578s-2.579-5.21-4.526-5.526a6.513,6.513,0,0,0-4.048,1.172,73.5,73.5,0,0,1,2.8,9.516" transform="translate(-358.607 345.043)" fill="#17282f"/>
        <path id="path54" d="M579.242-233.1h0l-.488-1.5h-.069a3.311,3.311,0,0,0,.542-.265,11,11,0,0,0,2.052-1.894,6.5,6.5,0,0,1-2.037,3.659" transform="translate(-350.498 331.286)" fill="#b77456"/>
        <path id="path56" d="M636.066-102.272l-.026,2.763s-21.944-.237-22.97-.473a3.238,3.238,0,0,1-1.7-1.132c1.288-1.87,2.207-3.948,3.052-4.63.247.018,5.506.405,8.358.868,2.921.474,13.287,2.6,13.287,2.6" transform="translate(-368.983 257.193)" fill="#f5a784"/>
        <path id="path58" d="M602.284-128.325c-.845.682-1.764,2.76-3.052,4.63a38.425,38.425,0,0,1-2.711-3.765c-1.305-2.219-4.929-10.813-6.2-13.793-.208-.491-.354-.829-.414-.962,3.591-.111,6.769-.419,8.026-1.109a6.958,6.958,0,0,0,2.63-2.347l.188,1.906,1.524,15.439h.009" transform="translate(-356.845 279.773)" fill="#2a3c44"/>
        <path id="path60" d="M589.908-142.214c.06.133.206.471.414.962l.532-.014c3.592-.11,6.77-.418,8.026-1.108a7.876,7.876,0,0,0,1.871-1.389l-.188-1.906a6.957,6.957,0,0,1-2.63,2.347c-1.257.69-4.435,1-8.026,1.109" transform="translate(-356.845 279.773)" fill="#19262b"/>
        <path id="path62" d="M670.291-94.022h-3.1s.081-.313.195-.616c.022-.059.045-.117.068-.172.316-.737.527-.842.527-.842l-1.968-1.258c-.251.058-2.731.627-3.031.627-.316,0-.21-1.211-.21-1.211l2.315-.342.02.02.023-2.438s.785-.892,1.387-1.461a1.748,1.748,0,0,1,.623-.462,1.669,1.669,0,0,1,1.158,1.052c.263.631.368,1.421.736,2.315.4.97,2.316,2,2.369,2.579s-.579,2.21-1.105,2.21" transform="translate(-398.04 255.176)" fill="#173746"/>
        <path id="path64" d="M670.288-90.712l.318.2.944-.425a.159.159,0,0,0,.079-.21.158.158,0,0,0-.209-.078l-1.132.51" transform="translate(-402.304 248.987)" fill="#fff"/>
        <path id="path66" d="M671.669-89.735l.318.2.783-.353a.157.157,0,0,0,.079-.208.158.158,0,0,0-.209-.079l-.971.438" transform="translate(-403.085 248.394)" fill="#fff"/>
        <path id="path68" d="M673.107-88.7l.317.2.579-.261a.158.158,0,0,0,.079-.209.159.159,0,0,0-.209-.079l-.767.346" transform="translate(-403.898 247.755)" fill="#fff"/>
        <path id="path70" d="M675.372-96.219s-.2.921-.3,1.29c-.1.338-2.414.3-2.792.291-.114.3-.195.616-.195.616h3.1c.526,0,1.158-1.631,1.105-2.21s-1.969-1.609-2.369-2.579c-.368-.894-.473-1.685-.736-2.315a1.669,1.669,0,0,0-1.158-1.052,1.748,1.748,0,0,0-.623.462.928.928,0,0,1,.583.3,31.963,31.963,0,0,1,1.343,3.315,15.32,15.32,0,0,0,2.039,1.881" transform="translate(-402.938 255.176)" fill="#fff"/>
        <path id="path72" d="M529.421-90.266h3.263a13.2,13.2,0,0,1,1.526-.21,11.868,11.868,0,0,1,1.474.21h2.473s-.045-.342-.107-.754a9.3,9.3,0,0,0-.261-1.3c-.158-.42-.507-1.13-.507-1.13l-1.651-.081-.105-1.895s-1.631-.105-1.631.158a11.942,11.942,0,0,0,.685,1.736,8.043,8.043,0,0,1-2.158,1.105,7,7,0,0,0-2.157.21,2.891,2.891,0,0,0-.608,1.193c-.139.4-.234.753-.234.753" transform="translate(-322.637 251.367)" fill="#173746"/>
        <path id="path74" d="M529.421-84.506h3.263a13.2,13.2,0,0,1,1.526-.21,11.868,11.868,0,0,1,1.474.21h2.473s-.045-.342-.107-.754h-8.395c-.139.4-.234.754-.234.754" transform="translate(-322.637 245.607)" fill="#fff"/>
        <path id="path76" d="M540.776-90.883l.322.55.114.065.066-.017a.133.133,0,0,0,.048-.181L541-91.028c-.018.012-.1.067-.22.145" transform="translate(-329.058 248.87)" fill="#fff"/>
        <path id="path78" d="M539.6-90.142l.3.522.113.065.067-.018a.133.133,0,0,0,.047-.18l-.307-.526c-.071.043-.146.09-.225.137" transform="translate(-328.395 248.446)" fill="#fff"/>
        <path id="path80" d="M538.363-89.424l.264.453.114.065.066-.017a.132.132,0,0,0,.047-.18l-.26-.446-.232.126" transform="translate(-327.694 248.034)" fill="#fff"/>
        <path id="path82" d="M543.4-123.86h1.736s3.869-11.445,3.947-14.918a52.3,52.3,0,0,0-.127-5.375,8.115,8.115,0,0,0-3.1-4.364,3.763,3.763,0,0,0-1.468-.7c-1.511,2.322-.985,25.358-.985,25.358" transform="translate(-330.495 281.779)" fill="#f5a784"/>
        <path id="path84" d="M545.787-157.514a3.764,3.764,0,0,1,1.468.7,8.115,8.115,0,0,1,3.1,4.364c-.018-.22-.03-.335-.03-.335s8.015.47,14.628.266c3.591-.111,6.769-.419,8.026-1.109a6.958,6.958,0,0,0,2.63-2.347c2.241-3.551-.735-7.914-.735-7.914s-10.972,1.342-15.787,2.21-12.514,3.517-13.182,4.026a.516.516,0,0,0-.12.136" transform="translate(-331.892 290.075)" fill="#2a3c44"/>
        <path id="path142" d="M417.639-210.737l.024-.089.023-.082-.046.169h0" transform="translate(-259.418 316.668)" fill="#d85a48"/>
        <path id="path144" d="M417.584-211.24l.156-.608v0l.031-.055c-.041.152-.08.3-.118.433l-.023.082-.024.089a.6.6,0,0,0-.024.061" transform="translate(-259.387 317.232)" fill="#ee2b23"/>
        <path id="path148" d="M417.944-216.277v0a1.836,1.836,0,0,1,1.21-.821,1.905,1.905,0,0,0-1.178.766h0l-.031.055v0m1.21-.823.01,0-.01,0m.015,0,0,0,0,0m.011,0h0m.01,0h0m.011,0h0m.01,0h0m.01,0h0m.485-.177h0m.009,0h0m.009,0h0m.008,0h0m.009,0,.005,0-.005,0m.009,0,0,0,0,0m.009,0,.005,0-.005,0m.01,0,.009,0-.009,0m.011-.005.007,0-.007,0m.01,0,.006,0-.006,0m.01,0,.006,0-.006,0m.008,0,.008,0-.008,0m.009,0,.008,0-.008,0m.009,0,.008,0-.008,0m.009,0a6.61,6.61,0,0,0,2.578-2.382l0,.005s-.034.068-.1.185l-.01-.028a6.522,6.522,0,0,1-2.473,2.22" transform="translate(-259.591 321.661)" fill="#17171d"/>
        <path id="path150" d="M218.5-312.151c-.079.316-2.263,4.236-2.263,4.789s-.571,16.731-.612,17.938a43.39,43.39,0,0,1-1.008,5.8,5.457,5.457,0,0,0-4.213-2.253c.165-1.272.906-3.6.906-3.759,0-.789.823-6.993,1.059-9.519.209-2.223.947-8.13.947-8.13s-1.289-3.368-.816-4.315,1.185-2.526,1.185-2.526a1.14,1.14,0,0,1,.316,1.105c-.158.711-.4,1.658.158,1.658s1.5-2.763,1.5-2.763a1.944,1.944,0,0,1,1.816.237c1.026.631,1.1,1.421,1.026,1.737" transform="translate(-142.217 375.111)" fill="#f5a784"/>
        <path id="path152" d="M176.854-77.742H82.592L98.38-85.478h62.686l15.788,7.737" transform="translate(-69.932 245.731)" fill="#a2d1e6"/>
        <path id="path154" d="M123.2-74.168c-8.022,0-14.525-.259-14.525-.579s6.5-.579,14.525-.579,14.524.259,14.524.579-6.5.579-14.524.579" transform="translate(-84.683 239.989)" fill="#7cafc5"/>
        <path id="path156" d="M154.6-132.287c-.061.133-.206.472-.415.962-.532,1.25-1.478,3.485-2.493,5.823-1.406,3.242-2.947,6.681-3.7,7.97a38.445,38.445,0,0,1-2.712,3.764,3.232,3.232,0,0,1-1.7,1.132c-.827.191-15.221.381-20.792.448l-2.16-.319-.02.019-.023-2.438s10.366-2.131,13.287-2.6c2.852-.463,8.111-.85,8.358-.868h.009l.7-7.1.823-8.336.188-1.905a6.958,6.958,0,0,0,2.63,2.347c1.256.69,4.435,1,8.026,1.108" transform="translate(-91.412 274.158)" fill="#2a3c44"/>
        <path id="path158" d="M184.352-131.325l-.533-.014c-3.591-.111-6.769-.419-8.026-1.109a7.863,7.863,0,0,1-1.871-1.389l.188-1.905a6.958,6.958,0,0,0,2.63,2.347c1.256.69,4.435,1,8.026,1.108h0c-.061.133-.206.472-.415.962h0" transform="translate(-121.583 274.158)" fill="#19262b"/>
        <path id="path160" d="M204.113-124.2H204.1l-.105,1.895-1.651.081s-3.869-11.445-3.947-14.918a52.728,52.728,0,0,1,.127-5.375c.019-.221.031-.335.031-.335s-5.421.318-11.026.317c-1.21,0-2.428-.014-3.6-.051-3.591-.109-6.769-.418-8.026-1.108a6.958,6.958,0,0,1-2.63-2.347c-2.241-3.551.736-7.914.736-7.914s10.117,1.237,15.185,2.1q.315.054.6.106c4.814.868,12.514,3.517,13.181,4.026a.537.537,0,0,1,.12.137c1.239,1.9,1.109,17.751,1.021,23.382" transform="translate(-120.741 284.461)" fill="#2a3c44"/>
        <path id="path162" d="M221.37-318.234a3.591,3.591,0,0,1-3.255,3.576c-.111.01-.223.016-.337.016a3.591,3.591,0,0,1-3.591-3.591,3.592,3.592,0,0,1,3.591-3.591c.114,0,.225.005.337.016a3.591,3.591,0,0,1,3.255,3.575" transform="translate(-144.355 379.398)" fill="#3884a7"/>
        <path id="path164" d="M227.157-318.234a3.489,3.489,0,0,1-.043.553,3.591,3.591,0,0,1-3.549,3.038c-.113,0-.225-.005-.337-.016a3.593,3.593,0,0,0,3.213-3.023,3.558,3.558,0,0,0,.042-.553,3.539,3.539,0,0,0-.042-.552,3.594,3.594,0,0,0-3.213-3.024c.111-.01.224-.016.337-.016a3.591,3.591,0,0,1,3.549,3.039,3.469,3.469,0,0,1,.043.552" transform="translate(-149.469 379.398)" fill="#1e3946"/>
        <path id="path166" d="M204.436-318.234a3.591,3.591,0,0,1-3.254,3.576q-.167.016-.337.016a3.591,3.591,0,0,1-3.591-3.591,3.592,3.592,0,0,1,3.591-3.591q.17,0,.337.016a3.591,3.591,0,0,1,3.254,3.575" transform="translate(-134.778 379.398)" fill="#3884a7"/>
        <path id="path168" d="M210.223-318.234a3.558,3.558,0,0,1-.042.553,3.592,3.592,0,0,1-3.549,3.038c-.114,0-.226-.005-.337-.016a3.593,3.593,0,0,0,3.212-3.023,3.558,3.558,0,0,0,.042-.553,3.539,3.539,0,0,0-.042-.552,3.594,3.594,0,0,0-3.212-3.024c.111-.01.222-.016.337-.016a3.592,3.592,0,0,1,3.549,3.039,3.539,3.539,0,0,1,.042.552" transform="translate(-139.892 379.398)" fill="#1e3946"/>
        <path id="path170" d="M221.2-314.278a.518.518,0,0,1-.474.553h-5.489a3.559,3.559,0,0,0,.042-.553,3.539,3.539,0,0,0-.042-.552h5.489a.517.517,0,0,1,.474.552" transform="translate(-144.95 375.441)" fill="#1e3946"/>
        <path id="path172" d="M194.125-206.2c-.237,1.579-3.157,6.788-3.315,7.182-.012.029-.032.083-.059.158-.337.946-1.78,5.268-2.073,6-.316.79-1.815,3.789-1.815,3.789l-10.814-1.421s5.289-6.946,5.762-8.209a1,1,0,0,0,.039-.158c.192-1.107.115-6.192.022-11.336-.008-.421-.016-.842-.023-1.261.1.413.208.834.316,1.242a12.33,12.33,0,0,0,.98,2.852c.86,1.153,3.407.814,4.507-1.285.882-1.682.871-4.081.628-6.1a25.808,25.808,0,0,0-.47-2.669h0c-.051-.221-.1-.415-.14-.578-.078-.307-.136-.5-.152-.561.053.082.137.214.247.389l.221.352c.33.527.791,1.266,1.315,2.123h0q.131.215.267.439c2.011,3.316,4.713,8.009,4.557,9.052" transform="translate(-122.786 320.992)" fill="#c1d7e1"/>
        <path id="path174" d="M248-80.338h-3.262a13.176,13.176,0,0,0-1.526-.211,11.847,11.847,0,0,0-1.474.211h-2.473s.044-.342.107-.754a9.267,9.267,0,0,1,.261-1.3c.158-.421.507-1.129.507-1.129l1.651-.081.105-1.895h.016c.168-.01,1.616-.089,1.616.159a11.942,11.942,0,0,1-.684,1.737A8.038,8.038,0,0,0,245-82.5a7,7,0,0,1,2.157.21,2.908,2.908,0,0,1,.609,1.193c.138.4.233.754.233.754" transform="translate(-158.536 245.752)" fill="#fff"/>
        <path id="path176" d="M248-74.579h-3.262a13.176,13.176,0,0,0-1.526-.211,11.847,11.847,0,0,0-1.474.211h-2.473s.044-.342.107-.754h8.4c.138.4.233.754.233.754" transform="translate(-158.536 239.993)" fill="#173746"/>
        <path id="path178" d="M247.277-80.957l-.321.55-.114.065-.066-.017a.131.131,0,0,1-.047-.179l.328-.563c.019.013.1.067.22.145" transform="translate(-162.749 243.256)" fill="#173746"/>
        <path id="path180" d="M248.472-80.215l-.3.522-.114.065-.066-.018a.131.131,0,0,1-.048-.18l.307-.527c.071.044.146.09.225.137" transform="translate(-163.434 242.832)" fill="#173746"/>
        <path id="path182" d="M249.764-79.5l-.264.453-.114.066L249.32-79a.132.132,0,0,1-.048-.18l.261-.447c.076.043.154.086.231.126" transform="translate(-164.188 242.42)" fill="#173746"/>
        <path id="path184" d="M114.554-86.357c-.3,0-2.78-.569-3.032-.627l-1.968,1.259s.211.105.527.842c.024.056.047.114.069.173.113.3.194.617.194.617h-3.1c-.527,0-1.158-1.631-1.105-2.21s1.969-1.609,2.368-2.578c.369-.9.474-1.684.737-2.316A1.668,1.668,0,0,1,110.4-92.25a1.736,1.736,0,0,1,.623.462c.6.569,1.386,1.46,1.386,1.46l.023,2.438.02-.019,2.16.319.155.023s.105,1.211-.21,1.211" transform="translate(-83.244 249.561)" fill="#fff"/>
        <path id="path186" d="M116.739-80.785l-.318.2-.944-.426a.157.157,0,0,1-.079-.209.158.158,0,0,1,.209-.079l1.132.51" transform="translate(-88.477 243.373)" fill="#173746"/>
        <path id="path188" d="M115.568-79.807l-.317.2-.783-.353a.156.156,0,0,1-.079-.208.158.158,0,0,1,.208-.079l.971.438" transform="translate(-87.906 242.779)" fill="#173746"/>
        <path id="path190" d="M114.4-78.769l-.317.2-.579-.261a.159.159,0,0,1-.079-.21.158.158,0,0,1,.209-.078l.767.345" transform="translate(-87.358 242.14)" fill="#173746"/>
        <path id="path192" d="M107.055-86.291s.2.92.3,1.289c.1.339,2.413.3,2.792.291.113.3.194.617.194.617h-3.1c-.527,0-1.158-1.632-1.105-2.21s1.969-1.609,2.368-2.578c.369-.9.474-1.684.737-2.316A1.668,1.668,0,0,1,110.4-92.25a1.736,1.736,0,0,1,.623.462.922.922,0,0,0-.583.3,31.909,31.909,0,0,0-1.342,3.316,15.44,15.44,0,0,1-2.039,1.881" transform="translate(-83.244 249.561)" fill="#173746"/>
        <path id="path194" d="M211.164-239.777c-.026,2.278-.371,7.028-1.6,7.057l-.391.007h0l-.111,0c-.537.008-.951.006-1.21,0h0c-.2,0-.3,0-.3,0l-.891,2-1.543,3.46q-.136-.224-.267-.438h0c-.524-.857-.985-1.6-1.315-2.123a8.366,8.366,0,0,0,.738-2.968c.086-1.622-.146-3.839,2.165-4.125a6.074,6.074,0,0,0,4.736-2.868" transform="translate(-138.325 332.995)" fill="#f5a784"/>
        <path id="path196" d="M208.649-223.692a3.362,3.362,0,0,1-1.485-3.67,3.565,3.565,0,0,0,2.376,1.671l-.891,2" transform="translate(-140.324 325.974)" fill="#cf8564"/>
        <path id="path198" d="M199.887-245.056l-.046.058a6.075,6.075,0,0,1-4.736,2.868c-2.311.287-2.079,2.5-2.165,4.126a8.353,8.353,0,0,1-.737,2.968c-.056.132-.115.264-.176.4h0c-.14.307-.293.62-.454.949q-.483.979-.939,1.785c-1.71,3.03-3.136,4.3-4.251,4.467a1.7,1.7,0,0,1-.293.019c-2.661-.058-3.353-6.666-1.674-9.324,6.043-9.568,5.814-11.814,9.091-12.206a8.318,8.318,0,0,1,1.686-.033,5.457,5.457,0,0,1,4.213,2.253,4.162,4.162,0,0,1,.554,1.248.876.876,0,0,1-.072.424" transform="translate(-127.003 338.216)" fill="#17282f"/>
        <path id="path200" d="M199.766-318.677a38.833,38.833,0,0,0-1.7,4.036c0,.553.751,17.027.71,18.234a41.972,41.972,0,0,1-1.012,5.362c-.412,1.8-.9,3.763-1.346,5.51l-.072.279c-.013.053-.027.105-.041.157-.271,1.048-.524,2-.736,2.767-.227.823-.405,1.431-.5,1.712-.261.746-.608,2.845-.158,3.553l.024.037c.105.358,1.89,6.557.134,9.908-1.1,2.1-3.646,2.438-4.507,1.285a18.972,18.972,0,0,1-1.3-4.094c-.031-1.7-.062-3.364-.083-4.862-.038-2.775-.043-4.965.045-5.669a73.509,73.509,0,0,1,2.8-9.516c.838-2.483,1.537-4.518,1.537-4.85,0-.789.394-9.709.631-12.235.209-2.223.71-7.578.71-7.578s-.553-3.315-.079-4.263,1.184-2.526,1.184-2.526a1.139,1.139,0,0,1,.316,1.105c-.158.71-.4,1.657.158,1.657s1.143-3.169,1.143-3.169a1.929,1.929,0,0,1,1.887.323c.846.656.332,2.519.253,2.835" transform="translate(-130.195 379.469)" fill="#f5a784"/>
        <path id="path202" d="M285.07-158.62a2.352,2.352,0,0,0-2.379,2.323v.581h-5.849v-.581a2.352,2.352,0,0,1,2.379-2.323h5.849" transform="translate(-179.79 287.096)" fill="#044d6e"/>
        <path id="path204" d="M324.008-156.3v.581H290.3v-.581a2.352,2.352,0,0,1,2.379-2.323h28.946a2.352,2.352,0,0,1,2.379,2.323" transform="translate(-187.404 287.096)" fill="#a0d0f1"/>
        <path id="path206" d="M291.371-143.415h-2.479l2.338-8.52h2.478l-2.337,8.52" transform="translate(-186.605 283.315)" fill="#fff"/>
        <path id="path208" d="M278.023-143.415h-2.479l2.337-8.52h2.479l-2.337,8.52" transform="translate(-179.056 283.315)" fill="#fff"/>
        <path id="path210" d="M281.887-130.925h-9.268a1.1,1.1,0,0,1-1.116-1.089,1.1,1.1,0,0,1,1.116-1.089h9.268a1.1,1.1,0,0,0-1.115,1.089,1.1,1.1,0,0,0,1.115,1.089" transform="translate(-176.771 272.666)" fill="#044d6e"/>
        <path id="path212" d="M295.068-132.015a1.1,1.1,0,0,1-1.115,1.089,1.1,1.1,0,0,1-1.115-1.089,1.1,1.1,0,0,1,1.115-1.089,1.1,1.1,0,0,1,1.115,1.089" transform="translate(-188.836 272.666)" fill="#a0d0f1"/>
        <path id="path214" d="M347.085-143.415h2.478l-2.338-8.52h-2.478l2.338,8.52" transform="translate(-218.194 283.315)" fill="#fff"/>
        <path id="path216" d="M360.433-143.415h2.478l-2.337-8.52H358.1l2.338,8.52" transform="translate(-225.743 283.315)" fill="#fff"/>
        <path id="path218" d="M358.252-132.015a1.1,1.1,0,0,1-1.115,1.089h-9.269a1.1,1.1,0,0,1-1.116-1.089,1.1,1.1,0,0,1,1.116-1.089h9.269a1.1,1.1,0,0,1,1.115,1.089" transform="translate(-219.328 272.666)" fill="#044d6e"/>
        <path id="path220" d="M368.087-132.015a1.1,1.1,0,0,0,1.116,1.089,1.1,1.1,0,0,0,1.115-1.089A1.1,1.1,0,0,0,369.2-133.1a1.1,1.1,0,0,0-1.116,1.089" transform="translate(-231.394 272.666)" fill="#a0d0f1"/>
        <path id="path222" d="M510.394-210.923a.465.465,0,0,1-.426.5h-.663a3.188,3.188,0,0,0,.039-.5,3.181,3.181,0,0,0-.039-.5h.663a.465.465,0,0,1,.426.5" transform="translate(-311.26 316.957)" fill="#3147a3"/>
        <path id="path224" d="M517.75-185.756a.582.582,0,0,1-.533.621h-.829a3.992,3.992,0,0,0,.047-.621,3.982,3.982,0,0,0-.047-.621h.829a.582.582,0,0,1,.533.621" transform="translate(-315.266 302.795)" fill="#3147a3"/>
        <path id="path226" d="M525.186-159.523a.757.757,0,0,1-.692.808h-1.077a5.225,5.225,0,0,0,.062-.808,5.218,5.218,0,0,0-.062-.807h1.077a.756.756,0,0,1,.692.807" transform="translate(-319.241 288.064)" fill="#3686ab"/>
        <path id="path228" d="M506.155-185.76h-1.8l-6.495-35.993-6.5,35.993h-1.8l7.39-40.945h1.81l7.389,40.945" transform="translate(-300.097 325.602)" fill="#fff"/>
        <path id="path230" d="M476.581-164.814a5.25,5.25,0,0,1-4.757,5.226q-.244.023-.492.023a5.248,5.248,0,0,1-5.249-5.249,5.25,5.25,0,0,1,5.249-5.25c.166,0,.33.008.492.023a5.251,5.251,0,0,1,4.757,5.227" transform="translate(-286.816 293.569)" fill="#a0d0f1"/>
        <path id="path232" d="M485.04-164.815a5.15,5.15,0,0,1-.063.807,5.25,5.25,0,0,1-5.188,4.441c-.166,0-.33-.007-.492-.023a5.251,5.251,0,0,0,4.695-4.419,5.225,5.225,0,0,0,.063-.807,5.225,5.225,0,0,0-.062-.807,5.252,5.252,0,0,0-4.695-4.419q.243-.023.492-.023a5.251,5.251,0,0,1,5.188,4.442,5.15,5.15,0,0,1,.063.807" transform="translate(-294.289 293.569)" fill="#3686ab"/>
        <path id="path234" d="M507.851-165.169a5.251,5.251,0,0,1-4.758,5.227q-.243.023-.492.023a5.249,5.249,0,0,1-5.249-5.249,5.249,5.249,0,0,1,5.249-5.249c.166,0,.33.007.492.023a5.25,5.25,0,0,1,4.758,5.226" transform="translate(-304.5 293.769)" fill="#a0d0f1"/>
        <path id="path236" d="M516.309-165.17a5.163,5.163,0,0,1-.063.808,5.249,5.249,0,0,1-5.187,4.441q-.249,0-.492-.023a5.251,5.251,0,0,0,4.695-4.418,5.09,5.09,0,0,0,.063-.808,5.078,5.078,0,0,0-.063-.807,5.251,5.251,0,0,0-4.695-4.419q.243-.023.492-.023a5.25,5.25,0,0,1,5.187,4.442,5.15,5.15,0,0,1,.063.807" transform="translate(-311.974 293.77)" fill="#3686ab"/>
        <path id="path238" d="M500.168-159.387a.757.757,0,0,1-.693.808h-8.023a5.17,5.17,0,0,0,.062-.808,5.157,5.157,0,0,0-.062-.807h8.023a.757.757,0,0,1,.693.807" transform="translate(-301.163 287.987)" fill="#3686ab"/>
        <path id="path240" d="M479.482-190.2a4.039,4.039,0,0,1-3.66,4.02c-.125.012-.251.018-.379.018a4.038,4.038,0,0,1-4.037-4.038,4.038,4.038,0,0,1,4.037-4.039q.192,0,.379.019a4.038,4.038,0,0,1,3.66,4.02" transform="translate(-289.826 307.243)" fill="#a0d0f1"/>
        <path id="path242" d="M485.988-190.2a4.069,4.069,0,0,1-.048.621,4.039,4.039,0,0,1-3.991,3.417c-.128,0-.254-.006-.379-.018a4.039,4.039,0,0,0,3.612-3.4,3.992,3.992,0,0,0,.048-.621,3.981,3.981,0,0,0-.048-.621,4.04,4.04,0,0,0-3.612-3.4c.125-.012.251-.018.379-.018a4.039,4.039,0,0,1,3.991,3.418,4.057,4.057,0,0,1,.048.621" transform="translate(-295.575 307.244)" fill="#3686ab"/>
        <path id="path244" d="M504.241-190.2a4.039,4.039,0,0,1-3.66,4.02c-.125.012-.251.018-.378.018a4.038,4.038,0,0,1-4.038-4.038,4.038,4.038,0,0,1,4.038-4.039q.191,0,.378.019a4.038,4.038,0,0,1,3.66,4.02" transform="translate(-303.829 307.243)" fill="#a0d0f1"/>
        <path id="path246" d="M510.748-190.2a3.993,3.993,0,0,1-.047.621,4.038,4.038,0,0,1-3.991,3.417c-.127,0-.254-.006-.379-.018a4.039,4.039,0,0,0,3.612-3.4,4,4,0,0,0,.048-.621,3.988,3.988,0,0,0-.048-.621,4.04,4.04,0,0,0-3.612-3.4q.188-.018.379-.018a4.039,4.039,0,0,1,3.991,3.418,3.981,3.981,0,0,1,.047.621" transform="translate(-309.578 307.244)" fill="#3686ab"/>
        <path id="path248" d="M498.333-185.756a.582.582,0,0,1-.533.621h-6.171a4.06,4.06,0,0,0,.048-.621,4.049,4.049,0,0,0-.048-.621H497.8a.582.582,0,0,1,.533.621" transform="translate(-301.263 302.795)" fill="#3686ab"/>
        <path id="path250" d="M479.781-214.482a3.231,3.231,0,0,1-2.928,3.216q-.15.014-.3.014a3.23,3.23,0,0,1-3.23-3.23,3.23,3.23,0,0,1,3.23-3.231c.1,0,.2,0,.3.014a3.23,3.23,0,0,1,2.928,3.216" transform="translate(-290.909 320.517)" fill="#a0d0f1"/>
        <path id="path252" d="M484.986-214.482a3.188,3.188,0,0,1-.038.5,3.23,3.23,0,0,1-3.192,2.733q-.153,0-.3-.014a3.231,3.231,0,0,0,2.889-2.719,3.2,3.2,0,0,0,.039-.5,3.188,3.188,0,0,0-.039-.5,3.232,3.232,0,0,0-2.889-2.72q.15-.014.3-.014a3.231,3.231,0,0,1,3.192,2.734,3.181,3.181,0,0,1,.038.5" transform="translate(-295.508 320.517)" fill="#3686ab"/>
        <path id="path254" d="M499.589-214.482a3.231,3.231,0,0,1-2.928,3.216q-.149.014-.3.014a3.23,3.23,0,0,1-3.231-3.23,3.231,3.231,0,0,1,3.231-3.231c.1,0,.2,0,.3.014a3.231,3.231,0,0,1,2.928,3.216" transform="translate(-302.111 320.517)" fill="#a0d0f1"/>
        <path id="path256" d="M504.794-214.482a3.2,3.2,0,0,1-.039.5,3.23,3.23,0,0,1-3.192,2.733c-.1,0-.2,0-.3-.014a3.232,3.232,0,0,0,2.89-2.719,3.2,3.2,0,0,0,.038-.5,3.188,3.188,0,0,0-.038-.5,3.233,3.233,0,0,0-2.89-2.72c.1-.009.2-.014.3-.014a3.231,3.231,0,0,1,3.192,2.734,3.188,3.188,0,0,1,.039.5" transform="translate(-306.71 320.517)" fill="#3686ab"/>
        <path id="path258" d="M494.861-210.923a.465.465,0,0,1-.426.5H489.5a3.2,3.2,0,0,0,.038-.5,3.188,3.188,0,0,0-.038-.5h4.938a.465.465,0,0,1,.426.5" transform="translate(-300.058 316.957)" fill="#3686ab"/>
        <path id="path260" d="M464.477-195.456l1.909-10.58h5.594l1.909,10.58Zm4.006-22.2h1.4l1.866,10.342h-5.133Zm.7-3.879.47,2.6h-.939Zm.9-4.953h-1.81L460.8-185.021h1.8l1.653-9.157h9.874l1.652,9.157h1.8l-7.483-41.466" transform="translate(-283.826 325.479)" fill="#fff"/>
        <path id="path262" d="M476-210.923a.465.465,0,0,1-.426.5h-3.527a.466.466,0,0,0,.426-.5.465.465,0,0,0-.426-.5h3.527a.465.465,0,0,1,.426.5" transform="translate(-290.187 316.957)" fill="#3686ab"/>
        <path id="path264" d="M471.916-210.923a.466.466,0,0,1-.426.5.465.465,0,0,1-.426-.5.465.465,0,0,1,.426-.5.465.465,0,0,1,.426.5" transform="translate(-289.633 316.957)" fill="#a0d0f1"/>
        <path id="path266" d="M474.751-184.667a.582.582,0,0,1-.532.622H469.81a.583.583,0,0,0,.533-.622.583.583,0,0,0-.533-.622h4.409a.582.582,0,0,1,.532.622" transform="translate(-288.923 302.179)" fill="#3686ab"/>
        <path id="path268" d="M469.649-184.667a.583.583,0,0,1-.533.622.583.583,0,0,1-.532-.622.583.583,0,0,1,.532-.622.583.583,0,0,1,.533.622" transform="translate(-288.23 302.179)" fill="#a0d0f1"/>
        <path id="path270" d="M470.431-157.943a.757.757,0,0,1-.692.808h-5.731a.757.757,0,0,0,.692-.808.757.757,0,0,0-.692-.807h5.731a.757.757,0,0,1,.692.807" transform="translate(-285.642 287.17)" fill="#3686ab"/>
        <path id="path272" d="M463.8-157.943a.757.757,0,0,1-.692.808.757.757,0,0,1-.692-.808.757.757,0,0,1,.692-.807.757.757,0,0,1,.692.807" transform="translate(-284.741 287.17)" fill="#a0d0f1"/>
        <path id="path274" d="M287.424-391.652c-.661-.033-1.314-.064-1.954-.094V-395.3h1.954v3.651" transform="translate(-184.669 420.953)" fill="#dff5fb"/>
        <path id="path276" d="M279.454-345.2a6.357,6.357,0,0,1-6.349-6.349,6.358,6.358,0,0,1,5.372-6.274v-29.292c.64.03,1.293.061,1.954.094v29.2a6.358,6.358,0,0,1,5.373,6.274,6.357,6.357,0,0,1-6.349,6.349m0-10.745a4.4,4.4,0,0,0-4.4,4.4,4.4,4.4,0,0,0,4.4,4.4,4.4,4.4,0,0,0,4.4-4.4,4.4,4.4,0,0,0-4.4-4.4" transform="translate(-177.676 416.323)" fill="#c2ebf7"/>
        <path id="path278" d="M324.805-390.76l-1.954-.109V-395.3h1.954v4.543" transform="translate(-205.811 420.953)" fill="#dff5fb"/>
        <path id="path280" d="M316.834-344.06a6.357,6.357,0,0,1-6.35-6.349,6.359,6.359,0,0,1,5.373-6.274V-385.1l1.954.109v28.305a6.359,6.359,0,0,1,5.373,6.274,6.357,6.357,0,0,1-6.349,6.349m0-10.745a4.4,4.4,0,0,0-4.4,4.4,4.4,4.4,0,0,0,4.4,4.4,4.4,4.4,0,0,0,4.4-4.4,4.4,4.4,0,0,0-4.4-4.4" transform="translate(-198.817 415.182)" fill="#c2ebf7"/>
        <path id="path282" d="M283.726-319.488a4.4,4.4,0,0,0-4.4,4.4,4.4,4.4,0,0,0,4.4,4.4,4.4,4.4,0,0,0,4.4-4.4A4.4,4.4,0,0,0,283.726-319.488Zm0,10.745a6.356,6.356,0,0,1-6.349-6.349,6.357,6.357,0,0,1,6.349-6.349,6.357,6.357,0,0,1,6.35,6.349,6.357,6.357,0,0,1-6.35,6.349" transform="translate(-180.092 379.181)" fill="#075072"/>
        <path id="path284" d="M321.106-319.488a4.4,4.4,0,0,0-4.4,4.4,4.4,4.4,0,0,0,4.4,4.4,4.4,4.4,0,0,0,4.4-4.4A4.4,4.4,0,0,0,321.106-319.488Zm0,10.745a6.356,6.356,0,0,1-6.349-6.349,6.357,6.357,0,0,1,6.349-6.349,6.357,6.357,0,0,1,6.35,6.349,6.357,6.357,0,0,1-6.35,6.349" transform="translate(-201.233 379.181)" fill="#075072"/>
        <path id="path286" d="M291.7-395.191v34.14h-1.954v-34.14H291.7" transform="translate(-187.086 420.89)" fill="#fff"/>
        <path id="path288" d="M329.077-395.191v34.14h-1.954v-34.14h1.954" transform="translate(-208.227 420.89)" fill="#fff"/>
        <path id="path290" d="M394.676-61.274a.522.522,0,0,1,.521-.521h2.24a.521.521,0,0,1,.521.521v1.21a5.143,5.143,0,0,0-1.354-.26l-.141-.007-.145,0-.146,0-.141.007a5.148,5.148,0,0,0-1.354.26Zm4.324,1.8v-1.8a1.564,1.564,0,0,0-1.563-1.562H395.2a1.564,1.564,0,0,0-1.563,1.562v1.8a4.6,4.6,0,0,0-1.927,3.749,4.611,4.611,0,0,0,2.805,4.244h3.611a4.612,4.612,0,0,0,2.8-4.244A4.6,4.6,0,0,0,399-59.472" transform="translate(-244.752 232.926)" fill="#004464"/>
        <path id="path292" d="M361.424-71.808a.745.745,0,0,1,.744-.744h3.2a.745.745,0,0,1,.744.744v1.729a7.345,7.345,0,0,0-1.9-.37c-.065,0-.131-.008-.2-.01l-.1,0h-.3l-.095,0c-.066,0-.132.006-.2.01a7.325,7.325,0,0,0-1.9.37Zm6.177,2.574v-2.574a2.235,2.235,0,0,0-2.233-2.232h-3.2a2.235,2.235,0,0,0-2.233,2.232v2.574a6.574,6.574,0,0,0-2.753,5.355,6.589,6.589,0,0,0,4.007,6.063h5.159a6.589,6.589,0,0,0,4.006-6.063,6.577,6.577,0,0,0-2.753-5.355" transform="translate(-225.226 239.262)" fill="#004464"/>
        <path id="path294" d="M471.144-366.238a.89.89,0,0,1-.852.631H427.523a.89.89,0,0,1-.853-.631.891.891,0,0,1,.359-1l20.988-13.989v-9.524H449.8v9.524l20.987,13.989a.889.889,0,0,1,.358,1" transform="translate(-264.504 418.379)" fill="#a0d0f1"/>
      </g>
    </g>
  </g>
</svg>
