<svg xmlns="http://www.w3.org/2000/svg" width="236.693" height="226" viewBox="0 0 236.693 226">
  <g id="Group_57" data-name="Group 57" transform="translate(-342.422 172.008)">
    <path id="path770" d="M468.03-165.814c-6.453-6.527-19.442-7.986-27.554-3.946-15.938,7.931-15.386,28.761-19.423,43.449a55.923,55.923,0,0,1-14.326,25.059c-12.142,11.946-29.606,16.849-42.89,27.511-14.492,11.63-23.228,30.605-21.1,49.064s15.781,35.465,33.765,40.134c11.094,2.878,23,1.25,34.044,4.326,8.417,2.345,15.85,7.29,23.94,10.593,11.131,4.545,23.268,5.895,35.233,7.081,12.142,1.2,24.754,2.223,36.228-1.918,14.119-5.1,24.649-17.584,30.4-31.451a76.365,76.365,0,0,0,5.5-35.765c-.709-8.038-2.7-16.009-2.28-24.066.542-10.55,5.15-20.432,7.194-30.793a64.679,64.679,0,0,0-7.247-44.2c-1.87-3.264-4.147-6.476-7.444-8.289-3.252-1.786-7.113-2.006-10.824-2.056-7.907-.108-15.873.359-23.678-.9s-15.639-4.495-20.595-10.658c-3.335-4.143-5.2-9.391-8.944-13.173" transform="translate(0 0)" fill="#03628e"/>
    <path id="path772" d="M546.345-35.03H403.929a1.324,1.324,0,0,1-1.326-1.323,1.325,1.325,0,0,1,1.326-1.327H546.345a1.324,1.324,0,0,1,1.324,1.327,1.324,1.324,0,0,1-1.324,1.323" transform="translate(31.446 70.189)" fill="#91a8b2"/>
    <path id="path774" d="M407.212-27.66a2.256,2.256,0,0,1-2.255-2.255V-39.03a2.256,2.256,0,0,1,2.255-2.255,2.257,2.257,0,0,1,2.255,2.255v9.115a2.257,2.257,0,0,1-2.255,2.255" transform="translate(32.676 68.306)" fill="#91a8b2"/>
    <path id="path776" d="M410.176-16.96a2.257,2.257,0,0,1-2.257-2.255V-44.26a2.257,2.257,0,0,1,2.257-2.257,2.257,2.257,0,0,1,2.255,2.257v25.045a2.257,2.257,0,0,1-2.255,2.255" transform="translate(34.224 65.572)" fill="#91a8b2"/>
    <path id="path778" d="M413.138-12.13a2.254,2.254,0,0,1-2.255-2.255V-46.253a2.256,2.256,0,0,1,2.255-2.258,2.258,2.258,0,0,1,2.257,2.258v31.868a2.256,2.256,0,0,1-2.257,2.255" transform="translate(35.773 64.53)" fill="#91a8b2"/>
    <path id="path780" d="M493.526-27.66a2.256,2.256,0,0,0,2.257-2.255V-39.03a2.256,2.256,0,0,0-2.257-2.255,2.257,2.257,0,0,0-2.255,2.255v9.115a2.257,2.257,0,0,0,2.255,2.255" transform="translate(77.777 68.306)" fill="#91a8b2"/>
    <path id="path782" d="M490.564-16.96a2.256,2.256,0,0,0,2.255-2.255V-44.26a2.256,2.256,0,0,0-2.255-2.257,2.257,2.257,0,0,0-2.257,2.257v25.045a2.257,2.257,0,0,0,2.257,2.255" transform="translate(76.229 65.572)" fill="#91a8b2"/>
    <path id="path784" d="M487.6-12.13a2.254,2.254,0,0,0,2.255-2.255V-46.253a2.256,2.256,0,0,0-2.255-2.258,2.257,2.257,0,0,0-2.255,2.258v31.868A2.255,2.255,0,0,0,487.6-12.13" transform="translate(74.68 64.53)" fill="#91a8b2"/>
    <path id="path786" d="M438.359-98.306a17.537,17.537,0,0,1-2.481,1.894c-2.225,1.419-4.663,2.452-6.811,3.977-.278.2-.556.41-.822.623A63.558,63.558,0,0,1,418.3-85.45c-7.887,4.322-15.256,8.1-18.079,9.531-9.769,4.981-27.629,9.146-34.005,10.536-1.472.331-2.339.5-2.339.5s-3.565-4.691-.384-8.788c0,0,27.014-11.65,31.4-14.565,5.394-3.579,10.166-8.589,15.162-12.765q2.686-2.247,5.408-4.44c4.03-3.286,8.112-6.479,12.233-9.622,2.2-1.673,4.89-3.766,7.755-3.963a5.856,5.856,0,0,1,2.134.211,7.254,7.254,0,0,1,3.617,2.716c.28.374.518.743.745,1.115,3.287,5.6.928,12.446-3.593,16.674" transform="translate(10.323 27.676)" fill="#f5a784"/>
    <path id="path788" d="M367.9-88.9a11.235,11.235,0,0,1,1.535.711s3.358,4.6,1.214,7.542c-.024.034-.666.225-1.689.577-.924.32-2.168.767-3.544,1.323-1.011.426-4.974,2.858-5.853,2.034a1.607,1.607,0,0,1-.369-.7c-.339-.993-.666-2.005-1-3-.564-1.73-1.464-4.622.564-5.645-1.228.166-4.139.582-4.984-.641l-.069-.959s4.472-1.031,6.419-1.689a11.534,11.534,0,0,1,7.781.445" transform="translate(5.893 42.938)" fill="#f5a784"/>
    <path id="path790" d="M450.248-59.952c-28.9,6.1-64.908,9.637-64.908,9.637.834,3.607.132,10.564-1.194,18.225-2.014,11.65-5.446,24.964-7,30.725-.211.781-.8,2.9-.8,2.9a11,11,0,0,1-9.224-1.564c.012-.24.02-.491.026-.742.014-.638.041-1.3.041-2.017.278-17.442-3.076-56.08,4.533-60.771,13.4-8.27,61.845-21.831,69.983-22.4,5.619-.385,11.094.528,13.534,4.732a12.11,12.11,0,0,1,1.232,7.249c-.028.384-.081.756-.132,1.127-1.673,10.313,7.2,10.085-6.1,12.895" transform="translate(12.683 44.923)" fill="#f5a784"/>
    <path id="path792" d="M423.388-119.583a5.074,5.074,0,0,0,.94.9,7.466,7.466,0,0,0,4.316,1.817c1.084,0,2.113-.553,3.171-.423.788.1,1.425.715,2.31.7a1.913,1.913,0,0,0,1.862-1.218c.248-.879-.382-1.857-.043-2.7.439-1.1,2.008-1.047,3.049-1.616,1.188-.646,1.634-2.1,1.973-3.408q.615-2.375,1.23-4.752a11.06,11.06,0,0,0,.51-3.421,3.73,3.73,0,0,0-1.561-2.958c-1.4-.871-3.421-.406-4.651-1.5-.6-.542-.9-1.374-1.531-1.884-1.466-1.179-3.589-.01-5.471.01-2.546.026-4.628-2.134-7.148-2.517a5.955,5.955,0,0,0-5.24,2.026,7.8,7.8,0,0,0-1.8,5.073c.02,1.537.784,2.369,1.452,3.764,1.177,2.458.767,5.645,2.6,7.664.913,1.008,2.071,1.625,2.874,2.742.465.648.733,1.188,1.159,1.711" transform="translate(38.081 15.356)" fill="#3b2645"/>
    <path id="path794" d="M419.924-131.873a2.175,2.175,0,0,0-3.514,0c-1.758,2.109,1.228,6.145,3.514,6.324a49.982,49.982,0,0,0,0-6.324" transform="translate(38.384 20.482)" fill="#e0855c"/>
    <path id="path796" d="M453.047-102.014c-.81,2.227-1.738,4.4-2.452,6.666-.173.544-.331,1.1-.479,1.671-.266,1.047-.5,2.095-.715,3.128-.134.649-.252,1.261-.345,1.858-.676,4.135-2.7,24.068-3.019,27.21-.025.266-.043.41-.043.41-9.277,2.545-18.741,2.121-25.024,1.326a62.839,62.839,0,0,1-7.371-1.326s-.026-.3-.091-.887c-.028-.254-.053-.544-.081-.889-.436-4.56-1.616-17.164-2.493-29.2-.051-.7-.252-3.366-.29-3.989-.475-7.13-.8-13.708-.717-17.787a.952.952,0,0,1,.585-.834c1.088-.611,3.512-.585,5.317-.837.41-.053.834-.105,1.244-.16s.836-.082,1.259-.118c.958-.083,1.9-.172,2.757-.213,1.419-.078,2.637-.105,3.406-.117.146-.012.28-.012.4-.012h.491l.211-2.335c0-.027.152-1.547.152-1.547l.4-4.2c.264.055.524.11.788.138a12.027,12.027,0,0,0,1.539.159,14.914,14.914,0,0,0,1.9-.029c.3-.026.6-.051.873-.091.414-.052.81-.12,1.194-.2a18.823,18.823,0,0,0,1.855-.505,4.253,4.253,0,0,0,.532-.183.518.518,0,0,0,.144-.055c.134-.052.28-.105.41-.159a15.062,15.062,0,0,0,2.19-1.088c.382-.223.715-.434.978-.623.093-.065.132-.091.173-.117.148-.1.266-.187.359-.266a2.36,2.36,0,0,0,.238-.185c-.053.292-.075.41-.093.544-.166,1.33-.357,3.035-.436,4.732-.067,1.668-1.088,3.51.436,4.838a6.074,6.074,0,0,0,2.028,1.006,30.973,30.973,0,0,0,3.262.887,30.813,30.813,0,0,0,4.109.611,16.611,16.611,0,0,1,2.239.252,4.856,4.856,0,0,1,1.271.424,5.1,5.1,0,0,1,2.531,4.068c.266,2.532-.765,5.66-1.614,8.019" transform="translate(35.267 23.311)" fill="#f5a784"/>
    <path id="path798" d="M433.9-127.408c-2.046,9.283-11.395,8.644-13.587,7.418l.4-4.2a16.352,16.352,0,0,0,13.189-3.221" transform="translate(40.7 23.305)" fill="#e0855c"/>
    <path id="path800" d="M419.275-135.319c-1.169,1.214-1.265,3.938-1.362,6.95-.3,9.123,2.438,11.972,7.1,12.475s9.531-1.292,10.536-9.75c.5-4.229,1.037-8.136-.5-9.961-2.292-2.724-12.184-3.441-15.767.286" transform="translate(39.435 17.83)" fill="#f5a784"/>
    <path id="path802" d="M429.311-129.834s1.425-3.78,3.674-1.776-.859,7.708-4.3,7.284c0,0-.471-4.216.625-5.507" transform="translate(45.022 20.802)" fill="#f5a784"/>
    <path id="path804" d="M431.6-130.683a3.157,3.157,0,0,0-1.368.893,3.817,3.817,0,0,0-1,1.279c-.057.152.154.246.258.148.29-.27.526-.595.8-.89a1.763,1.763,0,0,0,.662.522c.205.075.359-.182.268-.35a1.612,1.612,0,0,0-.544-.522,8.317,8.317,0,0,0,1.086-.814.16.16,0,0,0-.154-.266" transform="translate(45.355 21.592)" fill="#e0855c"/>
    <path id="path806" d="M423.569-126.951c-.4-.059-1.315.178-1.5-.251a11.713,11.713,0,0,1,.577-2.844,35.513,35.513,0,0,0,.92-3.772c.012-.067-.108-.108-.138-.037a44.125,44.125,0,0,0-1.831,6.89.2.2,0,0,0,.191.247c.585-.009,1.153.116,1.74.118.193,0,.252-.321.047-.351" transform="translate(41.365 19.916)" fill="#e0855c"/>
    <path id="path808" d="M421.809-134.486c-.564-.286-1.62-.365-2.032.223a.176.176,0,0,0,.15.262c.282-.012.53-.15.812-.175a2.331,2.331,0,0,1,.881.138.246.246,0,0,0,.189-.449" transform="translate(40.407 19.492)" fill="#3b2645"/>
    <path id="path810" d="M427.381-133.87c-.323-.8-1.723-.879-2.32-.382a.227.227,0,0,0,.1.376,5.3,5.3,0,0,0,1.078.01,3.5,3.5,0,0,1,.867.272.227.227,0,0,0,.276-.276" transform="translate(43.146 19.566)" fill="#3b2645"/>
    <path id="path812" d="M424.711-132.376a4.215,4.215,0,0,1,1.977-.217,2.439,2.439,0,0,1,1.661.56c.034.045.03.13-.037.14a7.124,7.124,0,0,1-1.624-.2,13.72,13.72,0,0,0-1.868.124c-.207.013-.311-.319-.11-.4" transform="translate(42.941 20.581)" fill="#3b2645"/>
    <path id="path814" d="M420.654-132.84a2.689,2.689,0,0,1,1.728.584c.28.234-.077.605-.363.473a2.827,2.827,0,0,0-1.466-.372c-.432.029-.814.3-1.238.259a.232.232,0,0,1-.2-.343c.252-.51,1.017-.6,1.537-.6" transform="translate(40.061 20.466)" fill="#3b2645"/>
    <path id="path816" d="M421.415-127.441a6.907,6.907,0,0,0,2.619.319,11.653,11.653,0,0,0,2.229-.944c.152-.055.264.136.2.259-.832,1.6-3.991,1.832-5.284.772-.2-.167.022-.45.237-.406" transform="translate(41.111 22.956)" fill="#e0855c"/>
    <path id="path818" d="M516.8.346a47.439,47.439,0,0,1-2.215,5.766c-1.431,2.97-4.811,2.718-7.808,2.649a4.368,4.368,0,0,1-2.544-.6,1.528,1.528,0,0,1-.319-2.28,2.831,2.831,0,0,1,.875-.4c1.656-.611,2.546-2.135,3.329-3.618a14.047,14.047,0,0,0,1.139-6.6c-.319-.055-1.87-.33-2.32-.41-18.755-3.488-37.576-9.107-54.648-17.722-26.165-13.189-35.682-59.182-35.589-59.606,1.525-6.815,17.089-9.08,25.783.6s14.086,41.313,19.4,44.336c5.566,3.167,37.365,19.908,52.476,24.761.834.263,1.616.5,2.345.687,4.149,1.089,1.1,9.371.093,12.434" transform="translate(38.815 43.702)" fill="#f5a784"/>
    <path id="path820" d="M381.957-19.31c-1.23.89-2.915.769-4.346.848-3.155.187-6.309.069-9.452-.038-2.065-.065-4.121-.144-6.19-.264-1.707-.094-4.4.211-5.844-.69a.878.878,0,0,1-.424-.477.755.755,0,0,1,.12-.53,3.162,3.162,0,0,1,1.817-1.208c3.153-1.1,6.518-1.482,9.647-2.649A12.9,12.9,0,0,0,372.9-28.2a6.058,6.058,0,0,0,.5-.717,9.376,9.376,0,0,0,.57-1.153c.528-1.239.94-2.427,2.371-3.062,3-1.338,6.981.8,6.549,4.334-.075.623-.134,1.218-.173,1.814-.026.346-.051.691-.065,1.036-.134,2.266,1.616,4.984-.7,6.638" transform="translate(6.932 72.355)" fill="#f5a784"/>
    <path id="path822" d="M443.741-75.772l9.632,13.634a3.836,3.836,0,0,0-.92,5.347,3.833,3.833,0,0,0,5.345.92l4.054-2.864a3.835,3.835,0,0,0,.92-5.345A3.839,3.839,0,0,0,457.426-65L447.8-78.637a3.833,3.833,0,0,0,.92-5.345,3.836,3.836,0,0,0-5.347-.92l-4.052,2.864a3.838,3.838,0,0,0-.922,5.345,3.839,3.839,0,0,0,5.347.919" transform="translate(49.782 45.148)" fill="#91a8b2"/>
    <path id="path824" d="M456.394-58.247a.292.292,0,0,1,.079-.12A.16.16,0,0,1,456.394-58.247Zm18.516-35.19c-.861-3.249-3.234-5.874-5.633-8.218-1.829-1.8-3.711-3.606-5.674-5.329-6.667-5.923-14.133-10.958-23.14-11.917-.24-.024-.453-.052-.65-.065a10.855,10.855,0,0,0-6.748,1.629,6.714,6.714,0,0,0-3.128,4.859,7.866,7.866,0,0,0,.148,2.591,10.116,10.116,0,0,0,1.007,2.716c1.827,3.394,5.42,5.648,9.066,7.436,1.642.8,3.3,1.513,4.8,2.177,3.075,1.362,6.228,2.61,9.212,4.147a32.565,32.565,0,0,1,5.71,3.644,3.9,3.9,0,0,1,1.169,1.3,4.377,4.377,0,0,1,.173,2.148c-.755,8.311-.359,18.77-5,26.045a9.793,9.793,0,0,1-3,2.994c-.556.345-1.127.69-1.669,1.049a9.623,9.623,0,0,0-2.268,1.935,4.149,4.149,0,0,0-.755,4.586c1.75,3.02,7.223,3.936,9.277,1.153q.716-.974,1.391-1.987c.731-1.086,1.433-2.242,2.083-3.366,1.79-3.09,3.366-6.3,4.89-9.454,2.32-4.8,4.6-9.634,6.561-14.592,1.724-4.361,3.392-10.814,2.174-15.481" transform="translate(45.704 27.698)" fill="#f5a784"/>
    <path id="path826" d="M381.957-20.455c-1.23.89-2.915.769-4.346.848-3.553.212-7.1.032-10.633-.077-1.719-.052-3.435-.162-5.152-.233s-4.3.194-5.7-.682a.878.878,0,0,1-.424-.477.755.755,0,0,1,.12-.53,3.161,3.161,0,0,1,1.817-1.208c3.153-1.1,6.519-1.482,9.647-2.649a14.285,14.285,0,0,0,3.906-2.15,4.761,4.761,0,0,0,1.756-3.727,3.1,3.1,0,0,1,1.033.124,4.151,4.151,0,0,1,2.982,3.26c1.417,1.208,3.524.173,5.42-.117a3.32,3.32,0,0,1,.345-.055c-.026.346-.051.691-.065,1.036-.134,2.266,1.616,4.984-.7,6.638" transform="translate(6.932 73.5)" fill="#1d2f37"/>
    <path id="path828" d="M487.006-25.6a47.433,47.433,0,0,1-2.215,5.766c-1.431,2.97-4.811,2.718-7.807,2.649a4.368,4.368,0,0,1-2.544-.6,1.528,1.528,0,0,1-.319-2.28,2.832,2.832,0,0,1,.875-.4c1.656-.611,2.546-2.135,3.329-3.618a14.047,14.047,0,0,0,1.139-6.6c-.319-.055.544-1.645,1.565-1.855.528-.108,1.072-.12,1.59-.278a3.637,3.637,0,0,0,2.225-2.929,10.3,10.3,0,0,0-.276-2.982c.834.263,1.616.5,2.345.687,4.149,1.089,1.1,9.371.094,12.434" transform="translate(68.613 69.646)" fill="#1d2f37"/>
    <path id="path830" d="M359.079-88.074,363.57-72a3.838,3.838,0,0,0-2.665,4.726,3.836,3.836,0,0,0,4.726,2.664l4.781-1.336a3.833,3.833,0,0,0,2.663-4.725,3.836,3.836,0,0,0-4.726-2.661l-4.488-16.08a3.837,3.837,0,0,0,2.663-4.726A3.839,3.839,0,0,0,361.8-96.8l-4.781,1.334a3.84,3.84,0,0,0-2.663,4.729,3.839,3.839,0,0,0,4.726,2.661" transform="translate(6.16 39.225)" fill="#91a8b2"/>
    <path id="path832" d="M362.845-87.153a6.052,6.052,0,0,1,1.062,1.874,8.914,8.914,0,0,1,.737,3.825,4.607,4.607,0,0,1-1.7,3.4,5.851,5.851,0,0,1-2.343.932,4.441,4.441,0,0,1-1.79.1,3.507,3.507,0,0,1-2.355-2.044,9.7,9.7,0,0,1-.692-3.147c-.183-1.843-.053-3.973,1.671-5.083,1.559-1,4.044-1.377,5.414.146" transform="translate(6.937 43.805)" fill="#f5a784"/>
    <path id="path834" d="M480.694-106.586a33.443,33.443,0,0,1-8.124,12.391c-.424.4-.861.8-1.311,1.182-2.984-1.537-6.137-2.786-9.212-4.147-1.5-.664-3.155-1.381-4.8-2.177-.173.544-.331,1.1-.479,1.671-.266,1.047-.5,2.095-.715,3.128-.134.649-.252,1.261-.345,1.858-.676,4.135-2.7,24.068-3.019,27.21-.024.266-.043.41-.043.41-9.277,2.545-18.741,2.121-25.024,1.326a62.842,62.842,0,0,1-7.371-1.326s-.026-.3-.091-.887c-.028-.254-.053-.544-.081-.889-.436-4.56-1.616-17.164-2.493-29.2-2.225,1.419-4.663,2.452-6.811,3.977a21.662,21.662,0,0,1-7.57-4.293,18.422,18.422,0,0,1-1.456-1.381c-1.752-1.827-3.977-4.572-4.574-7.329,4.03-3.286,8.112-6.479,12.233-9.622,2.2-1.673,4.89-3.766,7.755-3.963,1.088-.611,3.512-.585,5.317-.837.41-.053.834-.105,1.244-.16s.834-.092,1.259-.118c.187,3.977,1.352,7.966,4.336,10.485,3.577,3.02,9.076,3.073,13.214.861a16.05,16.05,0,0,0,4.492-3.664,21,21,0,0,0,3.128-4.859,22.688,22.688,0,0,0,.94-2.239,1.047,1.047,0,0,0,.069-.2,30.807,30.807,0,0,0,4.109.611,15.4,15.4,0,0,1,2.239.252c9.052.928,16.514,6.005,23.181,11.929" transform="translate(28.612 27.3)" fill="#c1d7e1"/>
    <path id="path836" d="M368.128-14.082c5.286,3.38,13.146.569,13.146.569,6.762-12.511,7.29-35.27,7.29-35.27s38.743-2.877,54.08-2.877a15.427,15.427,0,0,1,7.925,1.87c7.529,4.32,9.346,15.375,22.6,25.715,16.912,13.2,48.392,15.042,48.392,15.042,4.574-3.394,4.308-11.279,4.308-11.279a52.451,52.451,0,0,0-13.7-10.9,54.319,54.319,0,0,0-5.329-2.677c-11.967-5.25-17.734-9.7-18.092-9.982-5.94-20.146-18.928-40.625-18.928-40.625-18.743,4.389-32.9-1.549-32.9-1.549-8.181,0-59.7,16.62-66.461,22.028s-7.621,46.536-2.33,49.93" transform="translate(11.636 44.92)" fill="#2a3c44"/>
    <path id="path838" d="M380.371-58.275s38.743-2.877,54.08-2.877a15.427,15.427,0,0,1,7.925,1.87c-.065-.41-1.721-9.013-17.02-8.575-15.664.448-44.985,9.582-44.985,9.582" transform="translate(19.829 54.413)" fill="#19262b"/>
    <path id="path840" d="M455.857-46.438a52.433,52.433,0,0,0,13.733.757,54.329,54.329,0,0,0-5.329-2.677c-11.967-5.25-17.734-9.7-18.092-9.982,0,0-.24,9.876,9.687,11.9" transform="translate(54.211 59.394)" fill="#19262b"/>
    <path id="path842" d="M415.52-103.82c-2.225,1.419-4.663,2.452-6.811,3.977a20.818,20.818,0,0,1-7.57-4.293,30.239,30.239,0,0,1,14.381.316" transform="translate(30.681 35.084)" fill="#a9bdc6"/>
    <path id="path844" d="M450.9-160.509c-2.793,3.124-4.612,7.418-6.618,11.082-1.929,3.528-4.9,7.609-5.55,11.606a.209.209,0,0,0,.347.2c2.9-2.84,4.561-7.493,6.531-11.031,2.038-3.674,4.793-7.379,6.155-11.354a.522.522,0,0,0-.865-.5" transform="translate(50.321 5.93)" fill="#bed6e1"/>
    <path id="path846" d="M481.7-148.143c-7.192,3.589-14.086,8-20.9,12.255-6.486,4.048-13.266,8.08-19.145,12.992-.449.374.126,1.055.609.786,6.845-3.812,13.27-8.486,19.939-12.611,6.693-4.139,13.652-7.848,20.341-11.983a.834.834,0,0,0-.842-1.439" transform="translate(51.766 12.418)" fill="#bed6e1"/>
    <path id="path848" d="M468.006-130.519c-4.785-.373-9.876.441-14.669.729-1.09.069-1.1,1.77,0,1.71,4.864-.272,10.083-.063,14.862-1.005.855-.166.579-1.374-.193-1.433" transform="translate(57.527 21.629)" fill="#bed6e1"/>
  </g>
</svg>
